<?xml version="1.0" standalone="no"?>
<!DOCTYPE svg PUBLIC "-//W3C//DTD SVG 1.1//EN" "http://www.w3.org/Graphics/SVG/1.1/DTD/svg11.dtd" >
<svg xmlns="http://www.w3.org/2000/svg" xmlns:xlink="http://www.w3.org/1999/xlink" version="1.1">
<metadata></metadata>
<defs>
<font id="tom_violenceautospaced" horiz-adv-x="2029" >
<font-face units-per-em="2048" ascent="1638" descent="-410" />
<missing-glyph horiz-adv-x="1024" />
<glyph horiz-adv-x="0" />
<glyph unicode="&#xd;" horiz-adv-x="1024" />
<glyph unicode=" "  horiz-adv-x="1024" />
<glyph unicode="&#x09;" horiz-adv-x="1024" />
<glyph unicode="&#xa0;" horiz-adv-x="1024" />
<glyph unicode="!" horiz-adv-x="686" d="M565 1479l-8 -23l-55 19v24zM481 1462l-78 25q8 0 31 10t29 10q18 -31 18 -45zM596 1610q-10 0 -59.5 -10.5t-71.5 -10.5l-37 33q-29 -33 -74 -33q-25 0 -31 11.5t-12 21.5q-33 0 -6 -27q-14 0 -39.5 13.5t-48.5 13.5q-18 0 -46 -12.5t-58 -12.5q-37 0 -97 15l17 28 q57 8 170 7q199 -4 176 -5q-10 0 94 5q59 2 102 -7zM223 1454l-205 16v29l205 -16v-29zM178 1114q-27 -10 -86 -8q-88 2 -90 2q0 47 47 47t129 -41zM578 672l-111 24q6 0 23.5 11.5t41.5 11.5q46 0 46 -47zM483 1110q-18 2 -77 -33q-6 -274 -7 -614q-20 4 -41.5 -17.5 t-21.5 -46.5q-6 0 -30.5 19.5t-51.5 27.5q0 -10 -7 -33.5t-7 -31.5q0 -16 18 -16q-2 0 68 -7q45 -6 75 4v-59q-2 -18 -39 -18q-14 0 -23 15t-40 15q-18 0 -83.5 3.5t-102.5 3.5q33 10 114 55v90q-14 12 -63 12q0 8 18 23q27 20 39 37q23 61 -22 90q25 88 30 225 q-18 18 -18 53q0 55 47 64q-14 8 -31 8q0 27 -17 76t-17 67q0 25 13 33t13 10q4 90 27 260h155q-10 -43 -6 -129q6 -139 6 -145q33 -12 82 -41zM594 309l-139 19v26l139 -16v-29zM408 438l-21 -43l-22 11l20 40zM131 494l-10 -23l-53 21v22zM549 -135l-8 -23l-54 21v22z M78 317l-78 25q8 0 28.5 11.5t28.5 11.5q21 -1 21 -48zM115 252l-11 -23l-53 21v22zM420 90q0 -37 -25 -55q-20 -8 -41 -19q35 -37 45 -75q8 -45 19 -91h-62q0 18 -26 48q-10 -6 -29.5 -28t-42.5 -22q-94 0 -143 21q0 10 90 10q12 41 12 98q0 12 -14 175h182 q0 -4 17.5 -21.5t17.5 -40.5zM98 -199l-10 -22l-53 18v25zM371 887l-78 24q0 -57 6 -63q21 39 72 39z" />
<glyph unicode="&#x22;" d="M1980 485l-57 -315h-76q-6 0 -21.5 3t-19.5 3q-219 16 -458 105q-20 -43 -29 -78q-29 -131 -29 -226v-194q0 -31 10 -125q-45 -2 -163 -33q-111 -31 -170 -31q-74 0 -103 37q-14 25 -26 50q-16 33 -37 34q0 20 2 66.5t2 48.5q0 45 -12 117q-12 82 -31 98 q-80 -74 -184 -133q-84 -43 -170 -86l-68 260q0 4 2 12q74 43 207 125q96 63 291 183q-4 2 -23 2q-78 0 -151 -31q-2 -2 -13 -47q-37 27 -49 26q-10 0 -14 -8q-2 -16 -8 -53q-10 8 -35 29q-6 -31 0 -70l-88 45q-6 -23 0 -102q-43 35 -88 61q-6 -39 0 -88l-80 61v-96 q-39 41 -72 66q-2 -27 -6 -56q-4 -37 6 -51l-84 80q-4 -4 -14 -4q0 182 -121 432q285 76 350 96q193 59 322 129q-41 70 -140 187q-104 123 -208 243q-35 43 -103 140q188 86 373 245q63 -68 184 -249q104 -156 219 -318q115 86 238 266q102 150 205 301q98 -41 254 -186 q180 -166 180 -266q0 -82 -139 -227q-98 -94 -197 -191q6 -8 31 -18q59 -23 411 -148v-121zM885 748q0 20 -17.5 41.5t-44.5 21.5q-25 0 -44 -20.5t-19 -42.5q0 -23 20.5 -42.5t40.5 -19.5t42 17.5t22 44.5zM858 748q0 -12 -17.5 -23.5t-25.5 -11.5q-37 0 -37 35q0 37 39 36 q14 0 27.5 -13t13.5 -23z" />
<glyph unicode="#" horiz-adv-x="1388" d="M1159 -399h-45v26h45v-26zM1450 1612q-18 -23 -47 -23q-20 0 -21 17v0q0 16 -20 16q-12 0 -92 -15.5t-123 -15.5q-2 18 10 37q14 27 45 27q2 0 92 -8q84 -8 148 -7q8 -14 8 -28zM1288 1466h-86q25 25 45 25q14 0 33 -6zM1110 1591h-76q0 33 60 62q0 -8 8 -31t8 -31z M1174 1454l-140 16v29l140 -16v-29zM997 1591h-125q0 8 -7 31t-7 31q59 -29 119 2q20 -21 20 -64zM1014 1454l-76 19v26l76 -18v-27zM1452 1114q-27 0 -77 -12t-68 -12q-70 0 -113 45zM836 1653q0 -53 -25 -78q0 8 -10 29.5t-10 29.5q31 19 45 19zM913 1464h-73q20 43 73 21 v-21zM1174 1100l-91 16v29l91 -19v-26zM723 1454l-92 16v29l92 -16v-29zM1061 1098l-74 20v27l74 -19v-28zM965 1100l-156 16v29l156 -17v-28zM772 1653v-39q-4 -25 -27.5 -25t-47 -8t-44.5 -8q-18 0 -42.5 16.5t-45.5 16.5q4 0 -110.5 -3.5t-206.5 -3.5q-135 2 -238 9v-49 l-8 94h770zM727 1124l-8 -24l-55 20v23zM1368 471l-108 16v29l108 -18v-27zM244 1479l-11 -23l-53 19v24zM1352 309l-107 17v28l107 -16v-29zM629 1130l-580 -20l19 43q-6 0 46 -6t150 -10q144 -7 365 -7zM1305 846q-6 -76 -21 -129l-14 -53q0 -14 35 -37h-211 q-8 -39 -29 -109q6 -6 30.5 -16t32.5 -21q-47 0 -114 -32v-89q61 -23 145 -14q-8 -41 -32.5 -135t-32.5 -135q-10 0 -41 30q-4 0 -26.5 -16t-43.5 -16q-23 0 -19.5 13t-2.5 19q-37 -74 -91 -90q8 -8 24.5 -14t25.5 -14q-8 -33 -37 -70t-50.5 -37t-29.5 -16.5t-29 -16.5 q-29 0 -76 54q-2 10 15.5 59t17.5 78q0 43 -33 67q-25 4 -47 5q-221 0 -202 -261q-55 31 -87 31q-16 0 -16 -10v-6q2 -6 2 -8q0 -8 -18 -9q-23 0 -32 21.5t-17 44.5q-8 -10 -9 -64h-61q0 10 18.5 22.5t22.5 18.5q2 18 22 84q16 59 17 82q0 25 -8.5 29t-40.5 4 q-23 0 -40.5 -7t-21.5 -7q0 74 33 270q25 -2 87 12.5t95 16.5q94 4 277 -10q207 -16 301 -17l26 29v74q-2 4 -6 18q-2 8 -26 8q-45 0 -74 -33q-20 -23 -41 -47q-12 25 18 56q-45 45 -45 55q23 0 37 -14q16 14 29 51q14 45 29 67q-23 10 -138 11q-111 0 -129 -7 q-25 -8 -32 -53q-20 -92 -43 -149q-12 25 2 39q-6 10 -14.5 17t-33.5 7q-47 0 -77 -31q-20 -25 -41 -49q8 53 16 107q14 82 53 110q-39 18 -174 11v141h51q6 6 7 8q-4 0 -8.5 4t-4.5 21q0 37 88 53q51 10 95 10q25 74 79 228q25 -8 70 -34t70 -34q0 4 -7.5 -45t-7.5 -117 q10 -12 50 -12q16 0 78.5 9t86.5 9q20 31 41 60q27 41 27 69q0 12 -4 25q8 4 35 33q20 20 41 20q23 0 59.5 -17.5t50.5 -17.5v-57h-127q66 -29 111 -23q0 -14 -7 -49t-7 -49q31 -14 129 -14zM727 494l-8 -23l-55 21v22zM311 825l-20 -43l-23 11l21 41zM1305 -150h-287 q16 39 43 39q8 0 14 -6q31 0 108 6.5t103 6.5q19 -32 19 -46zM870 111h-77l20 59zM403 494l-8 -23l-53 21v22zM1006 -111l-21 -43l-22 11l20 41zM94 469l-76 20v27l76 -18v-29zM190 309l-139 17v28l139 -16v-29zM1030 713v28h-59v-28h59zM709 989q-43 -20 -93 -14 q0 -14 2 -53q2 -33 0 -41q11 30 91 108zM750 195v0v0v0z" />
<glyph unicode="$" horiz-adv-x="1099" d="M1004 1591q-51 10 -142 6q-150 -6 -153 -6q-18 31 -19 45q33 0 138.5 9.5t123.5 9.5q27 0 42.5 -19.5t9.5 -44.5zM956 1464l-108 23q6 0 23.5 12t39.5 12q45 0 45 -47zM829 1466h-157q23 25 65 27q70 0 74 2q18 -15 18 -29zM61 1608h-59v45h59v-45zM176 1466h-174l18 43 q62 -12 156 -43zM1010 344l-11 -22l-53 18v25zM1008 1116q-33 0 -107 -2t-104 -2q-31 -61 -31 -127h-156q8 76 0 96l-24 29q-2 -8 -17 -119q-8 -70 -28 -106q18 14 32 14q0 -29 7 -49q84 -66 165 -172q27 27 39 27q-33 -31 -32 -74q0 -23 30 -58q39 -45 49 -61v-88 q-35 0 -34 18q0 8 4 17l-56 12q-8 -8 -4 -33q6 -37 7 -47l-39 31l-68 -12q10 33 -12 77h-43q-27 -27 -27 -57q0 -31 14 -57q23 -12 37 -13q12 0 30.5 15.5t39.5 15.5q23 0 33 -16.5t16 -16.5q43 6 119 -4q-27 -33 -34 -113.5t-30 -113.5q4 -4 29 -18q16 -10 16 -21 q-23 0 -51 31q-66 -129 -203 -217q6 -6 56 -8q31 0 57 -9q-88 -8 -256 -47q33 -23 70 -22q29 0 53 14l18 -125h-172q6 31 46 39t81 16q-31 23 -139 23q-25 23 12 59q0 37 -32 37q-25 0 -33 -7t-14 -7q0 23 30 53q-57 29 -112 74q6 2 33.5 15t45.5 24q-10 6 -20 6 q-6 0 -24.5 -7t-34.5 -7q-49 0 -93 131q-35 106 -34 159q-33 12 -80 41q18 0 53 8q35 20 14 66q16 4 50 27l73 -25q-33 -8 -96 -33q8 -12 16.5 -25.5t32.5 -13.5q20 0 24.5 16.5t22.5 16.5q25 0 57.5 -9t36.5 -9q0 -18 -20 -72q12 -82 65 -135q47 20 48 59q0 20 -18.5 64.5 t-22.5 62.5q8 12 19 25.5t36 13.5q18 0 43 -16.5t49 -16.5q29 27 29 56q0 31 -27 57l-72 -14q0 -8 15.5 -24.5t15.5 -22.5h-76q0 59 -47 79q0 29 33 29q18 31 8 117q-39 39 -116 115q-18 16 -35 67q-23 66 -35 88q20 10 82 -20q-31 63 -96 51q0 113 -17 176q-109 -4 -178 25 q35 -2 164 8q18 23 35.5 71t29.5 66q43 66 156 164q-27 12 -79 23.5t-66 19.5q18 -2 50 2t46 4q63 0 63 39q0 35 -25.5 53.5t-54.5 18.5q-37 0 -186 -27q-10 8 -35 29v45l553 2q18 -20 19 -62q-23 0 -54 29q-20 -27 -57 -102q33 -18 80 -54q-49 0 -64 -12q59 -59 154 -176 q14 -20 27 -109q33 -35 170 -36q62 -1 82 -17zM1014 74h-29v43h29v-43zM965 -96l-21 -43l-22 10l20 41zM131 657l-16 -14l-56 55l17 17zM317 479l-90 19v26l90 -16v-29zM831 -133l-88 12q12 18 35 19q18 0 45 -11zM205 479l-107 19v26l107 -16v-29zM641 -377l-8 -22l-53 20 v23zM541 -399l-123 16v27l123 -17v-26zM178 -121l-10 -22l-53 20v23zM20 -135h-26v43h26v-43zM512 1415q-20 29 -61 29q0 -8 -16.5 -21.5t-16.5 -21.5q2 0 35 -2q23 0 37 2t22 14zM430 1280v29h-43v-29h43zM389 969v139h-27v-139h27zM317 1040v27h-75v-27h75zM451 901 q-16 8 -70 14q-63 6 -92 13q23 -6 59 -41q31 -33 47 -33l51 51q5 0 5 -4zM446 721v27h-43v-27h43zM612 530l-24 25l-17 -16l23 -25zM639 268v58l-78 -19l21 -125q20 20 38.5 39.5t18.5 46.5zM743 127q-31 0 -30 31q0 -29 2 -17q-2 -6 -27 -6h-113q-25 0 -36 26.5t-21 53.5 q0 -76 -37 -109q96 21 262 21zM373 127l-23 8l-20 -41l22 -10z" />
<glyph unicode="%" horiz-adv-x="1331" d="M852 -399h-92v26h92v-26zM1350 1653q0 -31 -33 -62h-107l21 62q60 -29 119 0zM1354 1464h-111l21 45q37 -14 90 -45zM1190 1454l-74 19v26l74 -18v-27zM1176 1636q0 -18 -8.5 -36.5t-8.5 -22.5q-6 0 -36.5 14.5t-49.5 14.5q-20 0 -24.5 -16.5t-24.5 -16.5t-80.5 24.5 t-81.5 24.5q-20 0 -76.5 -24.5t-76.5 -24.5q-25 0 -51.5 28.5t-26.5 51.5q180 -17 545 -17zM1094 1454l-123 16v29l123 -16v-29zM1352 1100l-107 16v29l107 -19v-26zM948 1454l-76 19v26l76 -18v-27zM852 1454l-172 16v29l172 -16v-29zM610 1591q-4 0 -25.5 -9t-43.5 -9 q-18 0 -19 10q0 2 2 6v8q0 8 -18.5 8.5t-45 3.5t-40.5 3q53 12 153 43q37 -37 37 -64zM549 1479l-8 -23l-54 19v24zM385 1602q-12 -6 -39 20q-8 -8 -14 -31.5t-15 -31.5q-4 0 -16 7t-32.5 7t-66.5 10t-65 12q6 8 6 15q0 12 -22 12l-121 -10q133 45 348 37q37 -24 37 -47z M371 1466l-275 19q27 0 85.5 12t76.5 12q68 0 113 -43zM1243 494l-10 -23l-53 21v22zM1206 1108q-115 4 -241 -6q-20 -37 -41 -74q-31 -63 -25 -98q-41 41 -133 112q-2 -25 -37 -63q0 14 6 49t6 51q-29 29 -51 29q-16 -41 -32.5 -122t-30.5 -120q-25 -4 -58 64 q-33 -20 -41 -31q-16 -20 -16 -68q29 31 68 31v-57q-39 -53 -68 -64q-20 -6 -100 -6q-92 0 -112.5 14.5t-88.5 127.5q12 0 72 -62q10 4 92 57q23 -6 78 2q-25 39 -58 39q-43 0 -43 -30q-8 0 -34.5 21.5t-43.5 27.5q0 6 11.5 30.5t11.5 41.5q0 10 -4 20q8 -6 43 -39 q29 -25 51 -24h62q39 -2 53 -3l14 93q-4 18 -24.5 39.5t-20.5 33.5q0 16 29 39q-63 55 -97 56q-27 0 -50 -24t-48 -46q57 -10 146 -35q-29 -2 -60 -4q-51 -8 -72 -51q-25 0 -57 31q-25 0 -37 -11q0 -14 24.5 -32.5t24.5 -36.5q0 -37 -20 -80q-8 0 -38 -7.5t-36 -7.5 q10 76 -42 142.5t-122 70.5q27 -14 50 -14q61 0 130.5 158t133.5 158q20 0 43 -13q31 -16 49 -22v49h74q8 -14 114 -127q70 -76 70 -141q0 -12 -4 -27q12 -10 41 -10q57 0 102 127q29 80 55 161h62q16 0 20 -4v-12q-2 -8 5 -14q16 8 41.5 23.5t41.5 23.5q-18 -117 -77 -293 q35 -10 102 -4q96 8 92 8q45 0 45 -47zM78 1454l-76 19v26l76 -18v-27zM1143 465q-29 -27 -90 -68q0 8 6 25.5t6 26.5q-43 25 -90 -21q14 33 -23 33h-55q-2 -25 -35 -64q-8 6 -10 21q0 10 2 27.5t2 19.5q12 12 -27 12q-23 0 -49 -24q-18 -20 -35 -39l-4 4q-8 10 17 35 l-27 24q-53 -29 -41 -80q-10 8 -41 52q-8 12 -61 12q-47 0 -76 -47q-10 29 4 43q4 10 -16 24q-31 20 -31 23q39 4 70.5 42t31.5 87q0 12 -2 24q80 158 127 304l127 -25q-49 0 -114 -33l15 -15t34 -7q18 0 16 8v8q-2 4 -2 6q0 10 19 10q16 0 16 -10v-6q-2 -6 -2 -8 q0 -8 18 -8q23 0 32 14t15 14q-16 -33 -30 -114q-16 -88 -25 -113q-41 -25 -65 -86q-12 -39 -25 -78q4 -4 8 -10q-6 2 25 2q18 0 103 48t106 48q57 0 176 -84v-57zM1255 -141h-139v28h139v-28zM162 817l-8 -22l-54 18v25zM1241 225q-20 -23 -70 -22q-8 -6 -13 -19.5 t-13 -21.5q8 -6 33 0q33 8 45 6q10 -82 -68 -174q-63 -72 -127 -146q6 0 -100 0q-20 0 -40 28t-30 32q-102 55 -141 168q-25 74 -37 241q-45 -14 -88 -149q-61 -193 -92 -250q0 -6 20.5 -28.5t26.5 -39.5h-92q0 8 28 39l-26 25q-25 2 -58 -64h-59q0 33 -31 33q23 88 68 269 q55 18 59 86q2 55 2 108q6 0 22.5 17.5t39.5 17.5q20 0 44.5 -16.5t43.5 -16.5q20 0 24 16.5t25 16.5q20 0 24.5 -16.5t24.5 -16.5q23 0 33 16l10 17l37 -33q33 33 63 33q23 0 45 -14q37 -20 44 -23v-106q-35 0 -64 -27q31 -51 57 -68q39 -18 78 -37q27 47 92 74 q-8 10 -28 92q-12 53 -70 58q2 2 21 20q12 14 36 15q23 0 25 -19q2 -27 8 -31q6 16 29 47h104q8 -43 35 -137zM291 494l-8 -23l-54 21v22zM416 309l-90 17v28l90 -16v-29zM852 -150l-143 23q16 0 63 11.5t64 11.5q16 -32 16 -46zM690 -150q-16 0 -35.5 10.5t-25.5 10.5 q29 25 45 25q16 -32 16 -46zM78 309l-76 19v26l76 -18v-27zM119 100l-21 -43l-22 9l18 43zM283 -127v0v0v0zM561 -399h-76v26h76v-26zM223 -158l-123 17v28l123 -18v-27zM369 -399h-60v26h60v-26zM256 -399h-43v26h43v-26zM498 1313q-8 0 -39 -9.5t-39 -9.5q14 -14 24 -43 q8 16 31 35t23 27zM811 786v43h-27v-43h27zM819 100v27h-43v-27h43zM545 100v27h-43v-27h43zM489 109v59h-28v-59h28z" />
<glyph unicode="&#x26;" horiz-adv-x="1390" d="M1309 -401l-90 18v27l90 -17v-28zM850 -377l-10 -22l-54 20v23zM1389 1456l-170 17v28l170 -18v-27zM1389 1591q-35 10 -117 6q-123 -6 -105 -6q-18 0 -18 15.5t-21 15.5q-25 0 -31.5 -9t-15.5 -18q-51 6 -158.5 5t-160.5 8q-4 -6 -19 -31q-12 -16 -20 -16q0 53 -10 61 q-12 -16 -13 -31q0 14 -36 15q-23 0 -28 -14.5t-9 -14.5v76h762v-62zM1149 1456l-203 17v28l203 -18v-27zM1397 1112h-27v43h27v-43zM1360 1114h-127l20 43q46 -12 107 -43zM926 1454l-76 21v26l76 -18v-29zM1212 1104l-120 16v29l120 -19v-26zM590 1616h-60v29h60v-29z M750 1456l-187 17v28l187 -18v-27zM1069 1104l-123 16v29l123 -19v-26zM1341 735l-73 19v26l73 -18v-27zM465 1614q-12 0 -24.5 -13.5t-12.5 -25.5q-41 41 -41 61zM549 1503l-21 -43l-22 10l20 41zM477 1456l-123 17v28l123 -18v-27zM367 1610h-156q-109 2 -162 2 q45 39 146 37q119 -4 147 6q25 0 25 -45zM336 1485l-127 -19q43 45 80 45zM125 1456l-123 17v28l123 -18v-27zM1313 55q0 -23 -29 -65q-37 -61 -43 -72q4 -10 4 -53h-123q0 10 45 55q-12 37 -16 49q-2 10 0 23q2 18 2 35q-6 2 -82 16q-53 8 -78 35q-10 10 -42.5 65.5 t-69.5 87.5q-8 -39 -50 -108q0 -29 9 -37q31 31 39 31q0 8 -23 -58q-51 8 -98 -55q-53 -74 -90 -84q-10 -4 -6 -24l8 -31q-8 0 -19 16q-14 25 -18 29q-29 -27 -29 -47q-18 10 -57 6q-57 -6 -60 -6q-20 0 -49.5 29.5t-56.5 60.5q-29 12 -70 27q-39 43 -91 175t-91 177 q-2 8 19.5 27.5t44.5 39.5l-23 11q-10 4 -10 28q0 27 53 142.5t98 185.5q23 6 48.5 29.5t25.5 50.5q0 -4 -14.5 7t-8.5 75q-2 12 -18 39q-31 -31 -45 -31q-4 41 -8 80q-10 63 -49 100v121q6 0 37 -31q25 66 86 144q76 96 131 96q18 0 30.5 -23.5t32.5 -23.5q23 0 42.5 15.5 t33.5 15.5q59 -59 158 -195q-4 -25 -7 -66q6 -6 95 -55h-68q-14 -47 -49 -178q-8 0 -19 18q-16 25 -20 29q-10 2 -25 -16q-23 -31 -22 -31q0 25 -21 76q-23 63 -30 100q-63 -4 -115 25q66 -4 96 16q-12 61 -35 61q-6 0 -18 -4t-18 -4q-45 0 -88 -55q14 -14 47 -14 q-16 -8 -53 -46t-60 -53q8 -8 14 -20t15 -21q8 0 22.5 16.5t26.5 30.5q-14 -41 -28.5 -80.5t-49.5 -54.5l43 -39q47 23 102 41q-6 6 -30.5 23.5t-32.5 26.5q55 0 37 4q27 -4 37 -31q29 29 43 29q-2 -33 -23 -99l23 -26q16 68 63 75q51 2 105 5q0 -41 -29 -72q43 -43 43 -55 q-37 23 -92 -11q37 -45 75.5 -94t49.5 -90q33 0 39 29q29 119 112 293l92 -21q-16 4 -65 -20q23 -43 41 -86q23 39 59 124h60q-59 -152 -86 -264q-12 -8 -37 -30q-4 -55 -39 -197q-6 0 -20.5 19.5t-30.5 27.5q-8 -8 -8.5 -32.5t-8.5 -32.5q-8 6 -35 26q-18 12 -28 12 q-6 0 -13 -2q-14 23 -41 39q-8 0 -120 2q-61 0 -90 9q6 41 30 112q-53 27 -88 27q-57 0 -82 -47q-39 -74 -63 -97q-39 -8 -111 -49l-33 33q-4 -18 -24 -70q84 -27 139 -26q20 -20 0 -72q4 -27 25 -76q76 -109 182 -108q53 0 111 90q68 106 71 110q-4 6 -28 19q-16 8 -17 18 q4 0 31 17.5t47 17.5t108.5 -16.5t106.5 -16.5q16 0 16 7q0 4 -3 10t-3 8q0 8 15 8q25 0 49 -20q12 -12 24 -25q-6 -14 16.5 -40.5t45.5 -35.5q4 -23 12 -61q20 -27 68 -35q8 -14 53 -59q37 -37 37 -60zM221 1104l-123 16v29l123 -19v-26zM342 911l-20 -43l-23 11l20 41z M1356 -133h-74q20 43 74 20v-20zM78 1104l-76 18v27l76 -19v-26zM754 432l-11 -22l-57 26l8 25zM285 735l-74 19v26l74 -18v-27zM1032 -113v0v0v0zM590 319l-76 19v27l76 -19v-27zM909 -133h-188q20 33 37 33q4 0 6 -2q14 -4 127 -4q18 -15 18 -27zM141 479l-139 17v28 l139 -16v-29zM686 -401l-106 18v27l106 -17v-28zM367 -133h-93l17 43q37 0 76 -43zM254 -145l-92 18v27l92 -17v-28zM121 -113v0v0v0zM84 -102l-41 -39l-14 16l39 39zM535 793v59h-29v-59h29zM1077 127l-22 8l-21 -41l23 -10zM293 88v109h-27v-109h27z" />
<glyph unicode="'" d="M1980 485l-57 -315h-76q-6 0 -21.5 3t-19.5 3q-219 16 -458 105q-20 -43 -29 -78q-29 -131 -29 -226v-194q0 -31 10 -125q-45 -2 -163 -33q-111 -31 -170 -31q-74 0 -103 37q-14 25 -26 50q-16 33 -37 34q0 20 2 66.5t2 48.5q0 45 -12 117q-12 82 -31 98 q-80 -74 -184 -133q-84 -43 -170 -86l-68 260q0 4 2 12q74 43 207 125q96 63 291 183q-4 2 -23 2q-78 0 -151 -31q-2 -2 -13 -47q-37 27 -49 26q-10 0 -14 -8q-2 -16 -8 -53q-10 8 -35 29q-6 -31 0 -70l-88 45q-6 -23 0 -102q-43 35 -88 61q-6 -39 0 -88l-80 61v-96 q-39 41 -72 66q-2 -27 -6 -56q-4 -37 6 -51l-84 80q-4 -4 -14 -4q0 182 -121 432q285 76 350 96q193 59 322 129q-41 70 -140 187q-104 123 -208 243q-35 43 -103 140q188 86 373 245q63 -68 184 -249q104 -156 219 -318q115 86 238 266q102 150 205 301q98 -41 254 -186 q180 -166 180 -266q0 -82 -139 -227q-98 -94 -197 -191q6 -8 31 -18q59 -23 411 -148v-121zM885 748q0 20 -17.5 41.5t-44.5 21.5q-25 0 -44 -20.5t-19 -42.5q0 -23 20.5 -42.5t40.5 -19.5t42 17.5t22 44.5zM858 748q0 -12 -17.5 -23.5t-25.5 -11.5q-37 0 -37 35q0 37 39 36 q14 0 27.5 -13t13.5 -23z" />
<glyph unicode="(" horiz-adv-x="716" d="M670 1440l-76 18v27l76 -19v-26zM766 1087l-156 17v29l156 -17v-29zM193 1595q-25 -27 -87 -10q-6 -4 -26.5 -22.5t-28.5 -18.5q0 6 7.5 19.5t7.5 17.5q0 10 -19 10q-23 0 -31 -7t-14 -7v59q82 -27 164 2q27 0 27 -43zM268 1440l-170 16v29l170 -17v-28zM590 1087 l-139 17v29l139 -17v-29zM78 1440l-76 18v27l76 -19v-26zM768 1597q-74 -2 -195 -20q-27 -45 0 -127q-45 0 -94 -76q-35 -66 -69 -131q-29 -29 -74 -106q31 -10 80 -37q-41 0 -68 -10q-53 -37 -72 -117q4 -18 5 -51q-31 -27 -38 -105t-34 -98q8 -10 45 -10v-232 q2 -18 -8 -35.5t-10 -21.5t4 -8q-10 0 -23 16q-18 25 -20 27q-12 2 -41 -64q-20 0 -68 47q-6 -6 -17.5 -25.5t-19.5 -19.5v53q-4 31 0 144q0 2 -9 13t-9 36q0 31 23.5 134.5t47.5 160.5q16 -33 25 -45q16 -25 37 -35q27 25 27 57q0 12 -11.5 13.5t-11.5 13.5q0 10 6 35 q-16 20 -78 12q8 35 31 98q-49 10 -129 37q14 0 133 10q2 2 82 140q63 111 104 121q-14 10 -28 10v74q49 25 74 90l-19 12q-14 8 -47 6q-63 -6 -88 -6q0 61 37 61q20 0 24 -16t25 -16q18 0 102 24.5t105 24.5q14 -1 264 -58zM545 328l-8 -23l-54 19v24zM641 -137l-8 -23 l-53 21v22zM545 -137l-8 -23l-54 21v22zM446 -158q-33 4 -221 11q-96 2 -129 38l70 -14q8 8 21.5 13.5t21.5 13.5q-53 80 -86 190q-25 94 -49 189q-12 29 -74 43q29 10 104.5 20t110.5 29q27 0 51 -37q6 -61 53 -82q-14 -10 -28 -18q-18 -14 -19 -39q0 -31 57.5 -150 t116.5 -207zM600 -385h-256q55 0 88 16q-53 25 -94 25q0 8 -8 29.5t-8 29.5q16 8 46.5 14.5t47.5 14.5q-16 23 -41 23q-12 0 -46 -9.5t-53 -5.5q-18 16 -18 62q113 -27 217 0q6 -6 8 -21q0 -10 -2 -26.5t-2 -20.5q39 -8 96 -33q0 -18 -30 -82q16 -16 55 -16zM80 -129 l-76 -23v46zM545 1501q-53 18 -64 23q-29 14 -41 35q-14 -14 -24 -43q47 -19 129 -15zM270 1010v26h-139v-26h139zM229 856v43h-26v-43h26zM238 104v60h-60v-53q-2 -8 10 -9q8 -2 27 0q21 2 23 2z" />
<glyph unicode=")" horiz-adv-x="837" d="M780 1440l-137 16v29l137 -17v-28zM621 1440l-138 16v29l138 -17v-28zM750 1087l-76 19v27l76 -19v-27zM158 1593q-23 -8 -75 -9t-81 -9v61q8 0 78 -6q35 -2 59 8q19 -31 19 -45zM78 1440l-76 18v27l76 -19v-26zM813 1593q-8 0 -26.5 -9t-20.5 -9l-39 31q-10 -10 -10 -47 q-55 33 -117 32q-20 0 -20 -16t-21 -16l-180 16q-10 12 -10 -25q0 -23 24.5 -43t46.5 -39l90 -184q63 -121 125 -162q0 -27 -34 -26q-6 -10 -7 -23q0 -20 25 -65q0 -6 -18 -19q-29 -16 -46 -33q12 -35 56 -118q6 8 6 22q0 10 -4 34t-4 36t4 20q16 -41 37 -131 q23 -113 28 -131q2 -8 2 -22q0 -10 -3 -41t-3 -47q0 -74 41 -101q-68 -27 -67 -63q0 -10 2 -21q-23 4 -45 10q-33 12 -60 52q-10 -6 -29.5 -25.5t-37.5 -19.5q0 23 14 36q-31 16 -80 52q76 -2 90 20q6 6 6 49q0 80 -75 469q-35 72 -140 72q-25 0 -77 -5t-76 -5q-27 0 -47 4 q72 25 243 24l29 27q-6 20 -53 94q-41 63 -41 103q0 43 45 71q-41 23 -90 -22q0 35 -15 47q-10 -8 -55 -4q-70 6 -78 6q0 12 20.5 21.5t45.5 7.5q8 55 31 176h84q16 2 33.5 -14.5t39.5 -16.5q10 0 125 8t170 8q6 0 20.5 -16t37.5 -16q20 0 23 16t24 16q23 0 37 -7t16 -5 q8 -19 8 -33zM78 1087l-76 19v27l76 -19v-27zM322 743l-9 -22l-55 18v25zM774 -113l-22 -43l-21 11l19 41zM678 -113l-21 -43l-22 11l20 41zM686 338q-51 -121 -51 -188q0 -41 20 -56q-23 -20 -75 -84q6 -16 4 -45q-37 -33 -37 -71q0 -23 12 -44q-72 4 -96 -16q0 -27 49 -27 q-27 -14 -72 -73q-76 -100 -78 -103q-2 -16 15 -20h-199q4 59 -18 102q25 8 73 16.5t72 16.5q-8 14 -35.5 31.5t-27.5 34.5q147 -4 207 10q-72 8 -209 47q10 10 57 10q33 0 96 137q70 160 72 162v41q-25 12 -64 41h66q10 41 35 115q104 -37 184 -37zM141 303l-139 19v26 l139 -16v-29zM229 -113l-20 -43l-23 11l21 41zM317 1497q-35 68 -75 90q12 -10 12 -22q0 -18 -23 -41q-12 -12 -22 -25q16 -8 57 0q39 6 51 -2zM418 1286l-10 23l-37 -21v-22zM543 961l-11 24l-28 -12l14 -27zM559 106q-53 55 -53 60q-4 -29 -25 -74q8 0 39 7t39 7z" />
<glyph unicode="*" horiz-adv-x="931" d="M893 1647l-23 -43l-22 10l20 41zM836 1591q-14 4 -35 4q-14 0 -52 -4t-57 -4q-25 0 -45 6v60q14 -4 123 -15q68 -4 66 -47zM885 1454l-92 16v29l92 -16v-29zM711 1479l-9 -23l-55 19v24zM545 1575q-12 0 -28.5 22.5t-16.5 36.5q25 20 41 21q12 0 14 -29q2 -26 -10 -51z M483 1632q-29 -41 -43 -30q-14 6 -34 6h-21q-14 -2 -20 -2q-35 0 -58 26h176zM289 1634q0 -37 -39 -75q-39 47 -72 47q-104 0 -158 -31q0 8 -8 39t-8 39q31 -8 129 -8q107 -3 156 -11zM225 1464h-94l19 43q34 0 75 -43zM887 1112q-35 4 -180 -18q-25 -25 -99 -86h-10 q-2 -12 22.5 -27.5t24.5 -36.5q0 -18 -29 -76q-35 -68 -38 -84q-18 0 -35 21q-27 33 -41 43q-2 -27 -6 -53.5t-29 -26.5q-31 0 -92 -31q0 4 -18.5 25.5t-18.5 44.5q0 20 10 46t12 34q23 2 60 20q0 10 -19 25q-27 23 -30 24h110q0 -4 -8 -23.5t-8 -37.5h41q10 12 10 41 q0 59 -61 59q-2 20 28 86q-6 6 -30.5 5t-36.5 6q0 -25 20 -74q-20 -25 -86 -25q-10 -8 -6 -30q8 -33 8 -31q-88 0 -127 -21q29 -18 113 -18q-8 -16 -28.5 -55t-28.5 -54q-6 20 -49.5 79t-53.5 95q-2 0 33 7q20 6 37 -4l10 71q-8 8 -33 2q-39 -8 -59 -8q-18 20 -19 68 q-57 12 -147 39q25 -4 45 -5q41 0 88 29q63 41 109 55q-45 45 -45 78q63 -12 77 2q-25 27 -63 84q6 0 32.5 10.5t47.5 10.5q23 0 35 -16.5t18 -16.5l27 25q-14 14 -15 59q-41 12 -98 41q35 0 126 10t108 10q51 0 137 -43q-84 8 -162 -16q4 -35 41 -102q27 29 27 63 q43 -14 75.5 -55t32.5 -88q0 -29 -14 -56q10 -10 31.5 -13t23.5 -5q2 -20 21 -53q59 -6 182 -29zM885 309l-109 17v28l109 -16v-29zM756 309l-92 17v28l92 -16v-29zM549 494l-8 -23l-54 21v22zM877 100l-29 -59l-23 10l27 55zM561 309l-90 17v28l90 -16v-29zM399 229 l-106 17v28l106 -18v-27zM256 309l-92 17v28l92 -16v-29zM690 -147h-61l41 45q20 -33 20 -45zM885 -399h-109v26h109v-26zM131 334l-10 -23l-53 19v24zM399 -158l-90 17v28l90 -18v-27zM193 -147h-160l20 43q62 -12 140 -43zM369 -399h-60v26h60v-26zM207 -399h-43v26h43 v-26zM127 -399h-43v26h43v-26zM61 -399h-43v26h43v-26zM481 1294v27h-43v-27h43zM610 891v27h-59v-27h59z" />
<glyph unicode="+" horiz-adv-x="1038" d="M705 1286l-109 21v32l109 -20v-33zM156 1315l-13 -29l-63 25v26zM250 778l-10 -26l-64 22v29zM993 14q-106 0 -166 -20q0 20 18.5 55t18.5 55h129v-90zM954 477q-16 -27 -73 -55q10 -12 73 -12v-148h-307q0 -31 2 -149v-193q-90 -61 -151 -61q-29 0 -60 22q-49 37 -53 39 q0 10 37 47q0 12 -18.5 21.5t-34.5 17.5q-49 4 -150 12q0 10 2 21q0 10 -31 10q-27 0 -47 -17.5t-24 -17.5v92h104q14 -18 27 -34q16 -23 47 -23q43 0 65 41h29l31 31v139q-203 6 -346 29q43 6 198 12q127 6 205 27q-70 41 -180 41h-43q-29 -2 -43 -2q-82 0 -137 20 q82 0 174 39q6 8 -12 27q8 -20 -37 -21q-31 0 -63 30t-60 60q123 8 383 37q-37 37 -37 53q76 -14 149 23q-49 31 -131 31q-2 41 -4 47q-10 29 -53 49q0 10 19.5 32.5t21.5 30.5q-2 57 -23 176q20 10 86 15q96 4 136 10l45 -49q-57 -55 -60 -131v-293q201 -16 344 2v-78z M840 102q-57 -57 -58 -88h-110q20 43 78 64zM897 -92l-90 22v33l90 -24v-31zM207 176l-146 21v32l146 -20v-33zM207 -92l-88 22v33l88 -24v-31zM840 416q0 10 -22.5 37.5t-22.5 35.5q-6 -51 -84 -63q-20 -2 -109 -2q39 0 119 -4t119 -4zM582 481l-29 11l-25 -50l27 -12z M498 422l-25 14q-37 18 -61 19q-18 0 -28 -11l-11 -12zM590 311v33h-88v-33h88zM330 426l-29 31l-18 -21l26 -26z" />
<glyph unicode="," horiz-adv-x="907" d="M883 1204l-11 -26l-61 22v27zM649 1419l-10 -26l-61 22v27zM195 1591h-48v31h48v-31zM338 1176l-119 20v31l119 -19v-32zM608 602l-102 19v30l102 -18v-31zM872 322q0 6 -4 6q-14 0 -45 -58q-25 -4 -67 84q4 0 24.5 -3t34.5 -3q20 2 37 10q20 1 20 -36zM393 684h-86 q0 51 43 51t43 -51zM877 170l-119 20v31l119 -18v-33zM680 270h-68q0 41 -10 52l-41 -35q0 8 8.5 33.5t8.5 33.5q16 0 84 2zM877 0q-72 23 -72 47q0 10 8 21h64v-68zM539 330q-43 4 -76 -60q-6 0 -41 33q-33 -33 -41 -33v86zM754 49q-6 -20 -23 -49q-16 0 -39.5 21.5 t-23.5 46.5q20 0 49 -9.5t37 -9.5zM643 8l-84 21v30l84 -20v-31zM319 287q-6 4 -12 4q-8 0 -28.5 -10.5t-32.5 -10.5q-6 14 24 43q-16 25 -16 41h65v-67zM211 356q0 -70 -23.5 -78t-42.5 -8q3 25 66 86zM123 289q-6 0 -15.5 -10.5t-35.5 -10.5q-16 0 -17 8q0 2 3 9.5t3 11.5 q0 6 -16 6q-27 0 -32 -16.5t-11 -16.5v84q8 0 43 2h57q21 -20 21 -67zM270 25q2 0 -46 -12.5t-113 -12.5v68q26 0 159 -43zM537 68q0 -18 -29 -60q-37 -51 -47 -74q2 -4 11 -15t5 -21q-41 -80 -125 -215q4 -18 -4 -56q-10 -43 -10 -57h-211q20 76 84 246q74 188 98 270z" />
<glyph unicode="-" horiz-adv-x="1202" d="M1280 -399h-49v30h49v-30zM856 1266l-10 -25l-60 21v26zM1288 117l-22 -47l-25 10l23 47zM121 1239l-119 18v31l119 -18v-31zM1229 57h-68q-8 51 27 84q0 -41 41 -84zM1083 207l-100 18v31l100 -18v-31zM1016 180l-8 -26l-62 22v25zM1137 45l-101 21v30l101 -20v-31z M1085 549q-25 -76 -24 -121q0 -27 6 -49q-90 -23 -256 -23q-20 0 -20 11q0 2 2 7t2 7q0 10 -21 10q-23 0 -22.5 -17.5t-20.5 -17.5q-29 0 -41 18.5t-22 35.5q-12 -12 -13 -52q-53 0 -170.5 9.5t-160.5 9.5q0 8 32 41q-45 18 -123 67v64h852zM1032 115q-23 0 -57 -15 q-10 -6 -6 -20q8 -20 8 -25l-139 27q20 0 55 22q29 18 59 39zM1065 -43l-82 20v31l82 -22v-29zM1049 289h-816q12 137 29 137q8 -8 8 -23q2 -10 -1 -29.5t-3 -23.5q6 -6 31 -26h731zM819 57h-67q-8 51 26 84q0 -41 41 -84zM856 -16l-10 -25l-60 21v26zM713 57h-54 q-25 -2 -24 4q0 2 2 7.5t2 9.5q0 6 -6 12q-12 -18 -12 -33h-68q10 20 37.5 28.5t32.5 12.5q-14 25 -15 41q20 0 51 -33q42 -43 54 -49zM1155 -399h-156v30h156v-30zM481 233l-8 -26l-59 22v27zM977 -399h-66v30h66v-30zM453 139l-21 -82h-31l21 82h31zM299 205l-82 22v29 l82 -20v-31zM887 -399h-66v30h66v-30zM530 -43l-100 18v31l100 -18v-31zM365 61v0v0v0zM193 207l-101 18v31l101 -18v-31zM799 -399h-101v30h101v-30zM322 -16l-11 -25l-59 21v26zM301 102q-29 -68 -88 -67q-23 0 -40 26.5t-40 26.5q-27 0 -54.5 -10t-55.5 -23q0 8 -10.5 42 t-10.5 42q10 0 34.5 -20.5t41.5 -30.5q14 14 14 51h84q0 -39 10 -51q10 10 38 27.5t38 25.5q0 -12 13.5 -25.5t25.5 -13.5zM586 -399h-49v30h49v-30zM496 -399h-494v30h494v-30zM997 414l-45 49q-16 -16 -43 -29q8 0 43 -10t45 -10zM647 412l-18 102h-31l18 -102h31z M588 432l-66 66q0 -16 -22 -45q18 -21 88 -21z" />
<glyph unicode="." horiz-adv-x="432" d="M328 -215q0 -6 -19 -18q-27 -16 -30 -19q8 -23 2 -72q-8 -63 -9 -73q-4 0 -27.5 -6.5t-47.5 -6.5q-20 0 -48 7.5t-40 7.5q-35 61 -15 145q-2 2 -22.5 18.5t-20.5 30.5q-12 0 58.5 6.5t177.5 6.5z" />
<glyph unicode="/" horiz-adv-x="1234" d="M70 -399h43v26h-43v-26zM4 1651q51 -78 88 -78q55 0 80 49q10 -18 35 -37q35 -25 35 -26q2 23 -13 36q27 10 78 4q78 -6 96 -6l-16 60q-55 0 -186 -2h-197zM55 1454l74 19v26l-74 -18v-27zM152 1454l90 16v29l-90 -16v-29zM297 1454l106 16v29l-106 -16v-29zM457 1636 q0 -20 41 -61q0 10 26.5 20.5t50.5 10.5q4 0 7 4q0 4 -8.5 19.5t-8.5 23.5q-49 0 -71 -47q-31 30 -37 30zM147 1268l9 -23l53 21v22zM2 1124l8 -24l56 20v23zM86 1100l156 16v29l-156 -17v-28zM539 1454l90 16v29l-90 -16v-29zM264 1100l90 16v29l-90 -19v-26zM664 1479 l8 -23l53 19v24zM377 1098l76 20v27l-76 -19v-28zM635 1577q2 0 41 22q68 6 278 7q20 0 28.5 -16.5t29.5 -16.5q14 0 14 8q0 2 -3 8t-3 10q0 6 14 7q20 0 28.5 -16.5t29.5 -16.5q20 0 31.5 17.5t27.5 17.5q0 -8 -8 -23.5t-8 -23.5q8 0 29.5 16t29.5 16l-18 60 q-262 -25 -537 2q-10 -6 -8 -31q4 -55 4 -47zM745 1464h111l-20 45q-38 -14 -91 -45zM565 1268l10 -23l54 21v22zM909 1464h62l-41 45q-21 -31 -21 -45zM297 727l74 21v26l-74 -18v-29zM1020 1464h127l-19 43q-25 0 -60.5 -14.5t-47.5 -28.5zM6 309l90 17v28l-90 -16v-29z M440 399q23 6 45 11q31 12 58 51q18 -41 67 -64q84 111 131 279q23 84 17 164q6 25 30 32q0 6 9 54q8 37 2 53q20 31 39 63q33 51 67 68q0 6 -31 39q63 160 64 223q0 55 -37 64q-10 6 -23.5 -9.5t-27.5 -29.5q-10 14 -10 28h-76q0 -8 -5 -26.5t-5 -30.5q0 -27 22 -59 q-23 -6 -57 -29q-8 -47 -51 -139q-57 -6 -181 -31h150q27 -33 27 -76q0 -23 -7 -22q-2 0 -8 4q-6 2 -10 0q-35 -94 -82 -287q-35 -109 -117 -330zM926 1100h268v28h-268v-28zM152 309l251 17v28l-251 -16v-29zM922 639l8 -23l53 21v22zM254 -127v0v0v0zM293 -47q0 -25 9 -40 t17 -28q8 0 41 -18.5t54 -18.5q20 0 20 16.5t21 16.5q16 0 16 -10v-6q-2 -4 -2 -6q0 -8 18 -9h129q-25 45 -41 41q-29 14 -79 -10q-4 2 -11 6q2 -4 2 25q0 16 45.5 103t47.5 118q4 41 6 51q6 37 24 60q6 14 -26 47q25 18 78 31q78 18 83 20q-37 0 -122.5 19.5t-104.5 19.5 q-18 0 -18 -16v0q0 -16 -21 -17q-25 0 -37 7t-18 7q4 -57 -41 -137q-47 -88 -51 -127q-6 -63 6 -96l-27 -14q-18 -8 -18 -35zM905 494l8 -23l56 21v22zM764 309l172 17v28l-172 -16v-29zM631 92l8 -24l55 20v23zM952 334l11 -23l53 19v24zM1118 469l76 20v27l-76 -18v-29z M997 100l29 -59l23 10l-29 55zM618 -399h76v26h-76v-26zM1114 92l10 -24l54 20v23zM1018 -135l8 -23l55 21v22zM680 907q53 27 53 70q8 -8 21.5 -28.5t21.5 -28.5q-14 -8 -42.5 -31t-35.5 -23q0 14 -18 41zM645 778l23 25l16 -17l-22 -22zM578 528v76h28v-76h-28z" />
<glyph unicode="0" horiz-adv-x="1648" d="M1651 -397h-70v32h70v-32zM416 1358l-13 -27l-61 23v26zM1593 82q-29 0 -63 35q-20 -14 -80 -35q-47 -18 -78 -49q8 -8 36 -20.5t38 -22.5q-18 4 -37 4q-53 0 -104 -60q-37 -49 -74 -96q-6 -6 -90 -47q-66 -33 -80 -80q-66 -27 -215 -26q-12 0 -74.5 5t-105.5 5 q-68 0 -117 -8q0 37 72 67q0 12 -48 62q-33 -33 -65 -33q0 25 18 43q-12 12 -71 12v88q88 -29 168 -2q0 8 -22.5 25.5t-33.5 36.5q-2 0 -20.5 -19.5t-48.5 -19.5q-20 0 -105.5 20.5t-126.5 20.5q0 10 35 45q-47 31 -149 127q29 12 45 -6q37 35 36 63q0 18 -29.5 63.5 t-31.5 88.5q51 -10 186 24q-6 14 -30.5 35t-24.5 31q0 12 16 24q-23 12 -165 13q-6 170 20 213q-23 90 -22 125q0 23 18 36t18 54q0 20 30 65t30 64q8 0 28.5 -8.5t30.5 -8.5q16 14 17 37q0 25 -41 25q51 127 196 264q170 164 320 164q115 0 254 -62q131 -61 178 -127 q12 18 12 37l90 -31q-37 10 -94 -16q2 -4 96 -119q61 -72 84 -121q25 -88 97 -245q-31 -109 -31 -123t3 -26.5t27.5 -50.5t24.5 -64q0 -27 -24.5 -49.5t-49.5 -45.5q16 -12 35 -26.5t19 -36.5q-66 0 -100 8t-48 8q-29 0 -39 -17.5t-14 -17.5v277q98 0 127 20q-27 20 -107 21 q-14 18 -75 168q-47 117 -97 135v70q43 -10 93 14q-10 35 -60 37q-63 2 -84 14q-16 47 -37 62q-16 -2 -32 -2q-39 0 -107 13t-86 13q-61 0 -147 -24q-20 -6 -82 -50q-53 -39 -80 -39q-82 0 -139 58q-20 -45 -68 -70q14 -41 47 -119q16 31 135 113q0 -27 43 -70q2 0 -78 -28 q-35 -39 -135 -250q4 -27 4 -43q-57 0 -73 -16q0 -35 57 -29q0 -57 10 -76q4 -8 -12.5 -30.5t-16.5 -49.5q0 -29 16.5 -40t31.5 -17q4 -12 0 -64q-2 -43 12 -61q45 -66 139 -176q8 -49 51 -98.5t97 -49.5q14 -33 45 -106q37 0 4 33q14 0 47 -31q8 12 17 24.5t38 12.5 q25 0 29 -9.5t28 -9.5q23 0 23 18.5t25 18.5l41 -18q0 10 13 15t19 13q-27 12 -73 45h55q25 0 24 -8l-2 -6t-2 -8q0 -8 7 -12q10 18 43.5 39.5t42.5 42.5q-31 16 -166 -7q0 45 16 62q-16 2 -19 -2t-24 -41q-14 0 -41 12t-41 12q-10 0 -22 -6q0 41 0 35q4 20 34 21 q25 0 25 -9q0 -2 -2 -8v-8q0 -6 4 -12q33 31 33 53q31 0 65 -35q10 0 29.5 17.5t30.5 17.5q0 -14 -9.5 -29.5t-9.5 -17.5q0 -6 21 -6q29 0 28 10q0 2 -3 10t-3 15q12 0 47 -35h52q6 6 6 14t-5.5 20.5t-5.5 18.5q53 0 76 6q76 133 76 201q33 -10 98 -6q115 6 121 6 q0 -113 -55 -195l33 -28q29 16 114 16v-88zM152 1358l-11 -27l-63 23v26zM547 831l-10 -26l-64 22v29zM936 240l-125 20v33l125 -21v-32zM1556 -397h-163v32h163v-32zM508 586l-53 -25v27l43 24zM899 -25l-88 23v33l88 -23v-33zM1368 -397h-313v32h313v-32zM702 164l-24 -49 l-27 12l23 47zM641 156l-10 -27l-64 23v26zM975 -266h-70v33h70v-33zM213 401h-33v70h33v-70zM918 -397h-144v32h144v-32zM729 -397h-219v32h219v-32zM43 145l-23 -49l-26 10l22 50zM485 -397h-125v32h125v-32zM260 -397h-70v32h70v-32zM166 -397h-88v32h88v-32zM1034 1303 l-73 22v-27l63 -24zM1137 -80v0v0v0zM1092 -74l-11 27l-63 -21v-28zM786 -266v33h-106v-33h106z" />
<glyph unicode="1" horiz-adv-x="878" d="M129 1630h-51v33h51v-33zM739 1028l-24 -49l-27 12l25 47zM807 131q0 -72 -66 -72q-27 0 -28 13q-4 20 -8 26q-6 -6 -7 -14q0 -2 2 -8v-6q0 -10 -24 -11q-61 0 -94 -30q0 -29 55 -29q0 -10 -21 -23q-25 -18 -28.5 -25t-5.5 -87v-197h-185q-8 8 -6 74q4 170 4 287 q-37 37 -76 37q25 25 43.5 71.5t18.5 77.5q-4 16 -21 16q0 -20 3.5 46.5t3.5 203.5q-2 193 -11 510q20 96 76 183q-137 35 -260 34q0 66 16 82q-31 31 -73 31q0 35 41 35q8 16 8 55t10 57q27 0 100.5 -4t126.5 -4q84 0 177 8q4 -25 8 -47q10 -45 32 -71q0 -23 -73 -62 q8 -6 30 -33q8 -246 9 -219q0 -109 -21 -176q20 -18 62.5 -35.5t50.5 -25.5q-82 4 -113 -19v-481q37 -39 76 -39q-18 -10 -35 -22q-23 -16 -22 -45q0 -27 18 -50q29 -39 31 -45q23 20 53 0q14 12 14 54zM823 -41l-143 18v33l143 -18v-33zM340 -14l-10 -27l-64 23v28zM43 145 l-23 -49l-26 10l22 50zM166 -41l-107 18v33l107 -20v-31zM543 1087v33h-88v-33h88zM524 694q-8 0 -31.5 -12t-31.5 -12q16 0 39 -27q16 16 24 51zM518 342q14 14 12 49t-16 64q0 -45 -43 -88q16 0 47 -25z" />
<glyph unicode="2" horiz-adv-x="1175" d="M1133 1315l-107 18v33l107 -20v-31zM1098 831q-12 -6 -60.5 -61t-89.5 -76q0 -27 56 -26q0 -18 -9.5 -61.5t-9.5 -61.5q-106 -61 -156 -62q-25 0 -38 19.5t-37 19.5q-27 0 -41.5 -9t-18.5 -9q-8 18 -24 47q51 49 155 133q-4 31 10.5 95.5t14.5 86.5q0 115 -29 230 q10 0 30.5 -8.5t29.5 -8.5l30 27q-27 12 -155 76q-96 47 -123 47q-57 0 -154 -43q-49 -23 -65 -80q-45 -166 -45 -303h-179q-23 2 -22 45q0 41 22 166q27 147 58 227q25 63 97.5 132t164.5 102q10 10 23.5 21t44.5 11q57 0 151 -38.5t162 -92.5q14 -12 26.5 -42.5t6.5 -55.5 q37 -31 86 -135q55 -119 55 -211q0 -49 -18 -84q14 -17 51 -17zM821 821l-10 -26l-63 22v27zM281 1341l-11 -26l-61 22v29zM188 1341l-10 -26l-63 22v29zM1079 80q-10 0 -45 8t-45 8v68q47 0 90 -84zM725 395h-145q8 59 63 88q33 -25 82 -88zM932 82q-6 0 -32 -13.5 t-52 -13.5q-63 0 -64 54zM983 -27l-86 21v33l86 -23v-31zM1042 -158q0 -27 -24.5 -49t-48.5 -45q27 -12 71 -59h-872q25 41 25 100v25q-2 16 -3 22q0 63 52 82q-6 4 -54 98q27 0 45 -16l64 66q-6 10 -11 18t-34 8q-27 0 -42 -7t-22 -7v69h54q20 0 22 -4q2 -2 -2 -14 q-2 -10 6 -18q6 27 49 39q53 16 58 20q43 66 43 80q0 8 -4 16q59 33 59 49q0 4 -6 35q31 0 104.5 2t96.5 2q80 0 118 31q-12 55 39 78h68q-96 -172 -229 -289q-8 -39 4 -115q-29 -2 -45 15q-23 -10 -52 -43q-45 -53 -49 -60l22.5 -22.5t24.5 -22.5q74 37 119 37 q25 0 47.5 -18.5t46.5 -18.5q27 0 43.5 18.5t22.5 18.5q10 0 21.5 -24.5t17.5 -32.5l82 14q-35 35 -35 39q6 0 20.5 -25.5t40.5 -25.5q29 0 29 4q0 2 -5 9t-5 13q0 -4 14 -36.5t14 -55.5zM262 262l-10 -26l-62 22v27zM1133 -397h-572v30h572v-30zM174 164l-24 -72l-27 10 l22 62h29zM537 -397h-68v30h68v-30zM444 -397h-385v30h385v-30zM723 1278v31h-68v-31h68zM991 999l-28 29l-19 -18l27 -27zM954 889l-28 29l-19 -21l27 -27zM807 543v51h-33v-51h33zM946 -268v32h-67v-32h67zM723 -100v32h-49v-32h49zM799 -256l-45 51l-45 -51h90zM680 -252 q-18 0 -48 5t-55.5 5t-35 27t-15.5 27q-29 -53 -116 -54q-115 0 -150 -10q80 -10 211 -6q211 6 209 6z" />
<glyph unicode="3" horiz-adv-x="1157" d="M1085 803l-86 22v33l86 -22v-33zM1014 1341h-135q-14 12 -15 -32q0 -23 47 -129.5t45 -130.5v-234q-35 -14 -131 -110q0 -31 15 -46q31 -2 73 -12q-6 -16 11 -45q29 -49 32 -59q-80 -6 -221 10q0 6 7.5 24.5t7.5 28.5t-9 19q-20 -23 -55 0q-31 -33 -31 -74h-202 q0 18 10 63t10 64q8 0 38 -8t40 -8l51 45q-14 8 -31 8q-12 0 -38.5 -7.5t-38.5 -7.5q-12 53 -41 144q164 0 264 20q0 41 10 131q18 133 27 213q-29 0 -84.5 17.5t-77.5 17.5q-29 0 -100 -55q-80 -59 -117 -70q18 -16 94 -47q0 -18 -10 -71.5t-10 -71.5q-143 0 -203 18v135 q-2 23 27.5 72t31.5 64q4 37 8 71q8 53 31 84q45 61 131 107.5t154 46.5q20 0 94 -62q86 -72 117 -86q18 -8 81.5 -16.5t92.5 -20.5zM1192 170l-23 -88h-32l22 88h33zM1114 82h-31v88h31v-88zM358 831l-10 -26l-63 22v29zM1092 6l-11 -29l-63 25v27zM1180 -397h-199v32h199 v-32zM1053 266q0 -35 -19 -119q-20 -98 -47 -157q-4 -10 -39 -36t-43 -40q-12 -47 -51 -129q-27 -12 -70 -31q-10 -6 -20 -31.5t-19 -33.5q-20 0 -83.5 -11.5t-88.5 -11.5q-57 0 -159 68q150 0 149 4q-14 25 -53 24q0 6 5 24.5t5 29.5q0 12 -6 20q-23 -2 -38 -25.5t-9 -48.5 l-129 45q59 0 76 27q-18 14 -54 23q-45 12 -59 20q0 10 24.5 20.5t49.5 20.5q-45 14 -92 31q-59 20 -95 43q29 49 -10 125q-10 -23 -39.5 -34t-58.5 -22q0 70 -23 107q20 0 49 -18q43 -31 52 -33q16 35 16 90q0 150 -2 133q16 0 52 10t59 10q29 0 45 -10l18 -18 q20 -23 33 -127q23 -29 43 -41q37 -68 14 -113q27 -35 70 -35q-27 -29 -92 -94q20 -8 43 -8t61.5 7t54.5 7q25 0 89 49q78 61 110 76v72l-12 10q-23 -16 -53 -16q-12 0 -34 3t-30 3q-37 0 -45 -43h-106q0 8 -9.5 43t-9.5 45q35 0 82 -53q12 12 12 53h244l16 123 q-35 33 -73 33q0 10 19.5 22t21.5 21q-8 14 36 104l113 -20q20 20 21 39q29 -29 28 -72q6 0 -69 -8q-49 -6 -84 6q-14 -16 -15 -23q72 -25 123 -24q31 0 62 8q43 -86 43 -113zM954 -397h-143v32h143v-32zM96 268l-10 -26l-63 22v27zM674 -397h-51v30h51v-30zM598 -397h-332 v32h332v-32zM242 -397h-88v32h88v-32zM129 -397h-51v30h51v-30zM831 1319l-18 27l-84 -64l16 -27zM899 1085v33h-51v-33h51zM635 1294v33h-162v-33h162zM768 715q-18 0 -59 -12.5t-62 -12.5q6 0 18.5 -14t39.5 -14q63 0 63 53zM729 -98v32h-67v-32h67z" />
<glyph unicode="4" horiz-adv-x="1441" d="M1208 1430l-92 24v33l92 -23v-34zM1368 279l-133 20v35l133 -21v-34zM1391 111h-78q-27 -2 -27 6q0 2 2 8t2 8q0 8 -6 14q-14 -18 -14 -36h-121q-2 -57 22 -99q-51 14 -88 15q-84 0 -106 -80q-8 -33 -10 -187q8 -12 16 -27.5t8 -37.5h-235q43 29 51 32t47 3q33 0 49.5 16 t30.5 33q-12 6 -29 6q-12 0 -40.5 -7t-45.5 -7q-14 27 -37.5 114.5t-40.5 116.5q-399 8 -639 8q0 14 37 51q0 14 -20.5 32t-36.5 18q0 10 22.5 25.5t28.5 23.5q0 12 7 40.5t7 43.5q0 31 -28 53q84 68 104 127q127 -31 250 0q0 -2 -10 -43t-10 -76q55 23 90 23q47 0 63 -41 q12 18 12 37q6 0 22.5 -9.5t45.5 -9.5q57 0 72 49q23 70 24 70q10 0 31 -9t33 -9q25 0 49 38q-33 23 -117 23l-22 448q20 25 100 60q-12 10 -20 10q-45 -2 -41 -2q-49 0 -76 -35q8 -20 8 -57q-61 -51 -103 -137t-36 -140q-86 -61 -74 -145q-170 4 -254 -20q29 63 64 200 q6 20 65 94q57 68 57 105q0 39 -49 67q63 6 103 86q33 68 63 136q23 33 154 75q-12 12 -80 13q39 106 78 211q70 164 159 163q74 0 119 -26v-682q0 12 -28 -199q-14 2 -50 -18q14 -14 78 -15l-20 -71q-12 -43 -39 -43q-25 0 -54.5 26.5t-43.5 26.5q-18 0 -41 -23 q23 -23 67.5 -43t52.5 -26l56 16q0 -20 5 -62t5 -65q0 -31 -8 -55q59 -23 188 -18q-14 -23 -26 -43q-20 -35 -21 -62q0 -37 33 -72q41 0 70 60h73q0 -53 -2 -37q2 -20 38 -20.5t43.5 -4t21.5 -32.5zM1294 29l-12 -29l-65 25v28zM1249 -397h-112v35h112v-35zM1090 -397h-152 v35h152v-35zM911 -397h-92v35h92v-35zM793 -397h-332v35h332v-35zM78 203q0 -10 -23 -23q-29 -16 -35 -22q37 -39 37 -45q-35 -23 -55 -23v113h76zM434 -397h-53v35h53v-35zM354 -397h-192v35h192v-35zM135 -397h-131v35h131v-35zM954 1208q-10 10 -77 15q-92 6 -138 16 q0 -23 12.5 -68t12.5 -49q18 59 72 72q59 6 118 14z" />
<glyph unicode="5" horiz-adv-x="1290" d="M215 1432l-113 20v35l113 -21v-34zM1290 143q-6 -23 -24 -53h-70v53h94zM1192 305q0 -57 -68 -282q-45 -41 -53 -48q-33 -27 -59 -30q0 -80 -88 -148q-164 -127 -228 -127q-18 0 -121 17q-123 23 -217 30q45 -10 93 72q0 -33 22 -33q10 0 25 6q-43 86 -90 86 q-55 0 -56 -36q-18 8 -45.5 41.5t-48.5 44.5q61 61 61 94q-29 10 -89 11t-91 11q10 18 11 52q0 59 -21 81q-37 -37 -47 -36q0 16 18.5 44.5t18.5 61.5q0 57 -78 105h65q6 8 13 43q6 29 28 41h166q20 -29 21 -76q0 -18 -4 -51t-4 -46q0 -47 43 -47q29 0 45 8.5t22 8.5 q-29 -51 -14 -121q20 -14 74 -92q43 -61 71 -62q25 0 30 10.5t30 10.5q59 0 118 -60l31 31q-37 37 -80 37q12 6 37 55q18 41 62 41q20 0 45 -8q12 94 -2 160q41 -10 98 16v49q-59 14 -160 52h164q29 61 29 120q0 18 -4 46t-4 34q0 33 55 39q0 20 -45 41q-39 14 -76 31 q8 8 22.5 52t36.5 67q-59 25 -94 92l-65 -15q6 -6 36 -22q20 -10 21 -23h-64q-23 0 -26 4q0 2 4 13q4 10 -4 16q-160 27 -166 27q-25 0 -74 -33q-57 -37 -71 -43q-6 -2 -27 3t-33 5q-18 0 -35 -8q0 -27 58 -27q0 -37 -25 -90q-31 -68 -72 -67q-35 0 -81 53q-41 45 -56 82 q27 0 99 37q-10 8 -56 8q-45 90 -45 139q0 86 45 232q6 14 41 71q33 51 39 86q4 20 4 45q0 106 -47 107q16 23 31 43q27 43 41 108q426 0 758 -2v-172q-23 0 -70 9.5t-72 9.5l-35 -27q23 0 61 -10t58 -10q18 0 37 6v-76q-289 4 -541 -10q-33 -6 -71 -84l14 -148 q59 59 156 60q35 0 122 -29t134 -59q25 -16 69.5 -71.5t71.5 -70.5q29 -78 150 -276q-12 -25 -44 -51q-53 -45 -57 -49q10 -10 50 -20.5t51 -20.5q-41 -20 -121 -62q-8 -8 10 -26q39 39 86 38q43 -90 43 -139zM1253 29l-10 -29l-67 25v28zM715 111h-99q-27 -2 -26 6q0 2 2 8 v8q0 8 -6 14q-37 -37 -64 -36v75q-2 -10 60 -41v60q47 -35 133 -94zM1329 -397h-432v35h432v-35zM852 -397h-53v35h53v-35zM772 -397h-213v35h213v-35zM47 111h-35v73h35v-73zM82 29l-12 -29l-66 25v28zM532 -397h-450v35h450v-35zM57 -397h-55v35h55v-35zM399 1219l-10 28 l-47 -24v-29z" />
<glyph unicode="6" horiz-adv-x="1374" d="M1303 -379l-168 21v34l168 -20v-35zM1284 1436l-209 20v33l209 -21v-32zM508 1464l-10 -28l-66 24v29zM412 1464l-13 -28l-63 24v29zM295 1464l-12 -28l-66 24v29zM172 1436l-129 20v33l129 -21v-32zM1305 229q0 -59 -33 -92q12 33 -43 92h76zM1151 322q0 -156 -8 -179 q-29 -86 -197 -290q-6 -8 -54 -38t-63 -61q-98 -47 -176 -47q-74 0 -202 43q0 27 36 66q-51 51 -79 51q0 -61 -13 -62q-8 10 -8 23q0 23 23 45q-8 10 -19 23q-8 6 -42 6t-34 30q0 23 17 39q-12 10 -37 15q-16 0 -33 2q-16 37 -83.5 112.5t-90.5 75.5q-18 0 -18 -8 q0 -4 4 -12.5t4 -10.5q0 -8 -19 -8q-27 0 -26 17q0 4 2 12v12q0 10 -6 17q-18 -18 -19 -50q0 10 6.5 43t6.5 43q66 8 122 -16l31 33q-6 18 -55 49q-72 43 -82 49h84q4 10 16 68q8 35 37 35l84 -21l33 31q-6 10 -14 22q-4 6 -35 6q-29 0 -44.5 -8t-23.5 -8v64q0 31 28.5 98 t55.5 104q6 8 35 15q37 10 55 18q-18 14 -37 14q37 152 138 336q86 156 174 312q-18 18 -60 18q25 12 72 68q66 76 72 79h204q0 -57 -24 -147q-2 -6 -39 -33.5t-47 -46.5q-27 -45 -53 -88q-31 -55 -35 -84q-8 -63 -51 -133q35 -12 159 -78q94 -51 123 -51t44.5 8t21.5 8 q0 -39 -56 -65q33 -27 33 -51q0 -31 -53 -66l47 -49q14 18 14 37q59 -8 78 -84q14 -57 29 -113q47 -92 47 -239zM1270 -252l-13 -29l-63 25v29zM1108 -379l-168 21v34l168 -20v-35zM819 -207h-117q8 6 29 49q16 37 27 37q0 -55 61 -86zM893 -379l-227 21v34l227 -20v-35z M406 -379l-324 21v34l324 -20v-35zM651 1233v72h-35v-72h35zM649 1143l-26 10l-25 -51l27 -12zM1130 463q-16 0 -60 3t-64 3q-33 -2 -50 -10q18 -10 74.5 -24.5t77.5 -22.5q-1 18 22 51zM659 772v35h-51v-35h51zM563 754v32h-53v-32h53zM936 438q0 25 -14.5 115t-14.5 121 q0 -51 -53 -51q-18 43 -35 86q-23 53 -22 90h-88q-43 -35 -113 -66q-80 -35 -127 -37q18 -18 12 -41q-111 -131 -108 -198v-103q76 0 76 -28q-14 -16 -76 -17v-71q68 0 129 -62q0 16 16.5 39t30.5 23q0 -68 -17 -105h-81q10 -20 38.5 -45t36.5 -41q0 -8 9 0q16 20 36 31 q27 -51 -4 -113q20 0 43 17.5t43 17.5q31 0 37 -12v-27q6 12 131 135q98 98 109 166q6 57 6 176zM946 -29v0v0v0zM465 -47v35h-53v-35h53zM776 303l-90 23v32l90 -22v-33zM799 190q0 -45 -29 -73q-10 10 -44 56t-42 54q39 0 115 -37zM641 303l-170 21v34l170 -20v-35z" />
<glyph unicode="7" horiz-adv-x="1224" d="M1204 1511q-29 -29 -104 -143q-59 -92 -117 -123q12 -12 80 -12v-70q0 -33 -26.5 -93t-61.5 -89q-27 -88 -66 -276q6 -12 4 -48q-18 -6 -39.5 -36.5t-21.5 -63.5q0 -20 10 -39q-14 0 -49 37q-10 -18 -22 -37q-14 -25 -48 -24q-98 0 -137 -19v76q66 0 76 12q-18 14 -37 15 q41 184 41 194q106 -8 178 14q-10 12 -19 20.5t-42 8.5q-29 0 -50.5 -8t-27.5 -8v145q-2 25 23 78l40 86q-8 29 0 63q25 35 115 76q-23 8 -34 34t-21 50q-51 2 -283 17q-176 12 -280 12v256q-37 0 440 6q260 4 418 -8q0 -14 -19 -49q0 -14 25.5 -34t54.5 -20zM182 1499 l-10 -29l-68 25v29zM664 938l-11 -29l-67 23v31zM1024 131l-119 6q0 27 19 45q-35 35 -35 49q47 -24 135 -100zM1020 23l-92 24v33l92 -23v-34zM868 154l-71 -50l-19 29l72 47zM883 39q-94 6 -162 -25q-78 -35 -121 -39q0 -14 22.5 -30.5t39.5 -16.5q-29 -86 -44 -213h-235 q10 16 18 80q10 72 25 105q25 53 78 67v131q-20 20 -41 65.5t-39 63.5q20 -6 37 -6q61 0 88 88q20 61 39 123q143 -6 233 21v-134q-20 -33 -49 -108q-33 -90 -49 -125q60 -12 160 -47zM438 305l-114 21v34l114 -20v-35zM1202 -397l-336 20v35l336 -20v-35zM438 23l-94 24v33 l94 -23v-34zM301 154q-12 -4 -57 -25q-35 -16 -64 -16q-47 0 -67 30q-14 25 -27 52q-23 0 -25 -25q-4 -31 -10 -37q-16 14 -32.5 48t-16.5 48h236q0 -18 16 -41q20 -28 47 -34zM238 23l-95 24v33l95 -23v-34zM840 -397l-836 20v35l836 -20v-35zM643 1436l-10 28l-68 -22v-31 zM940 969v35h-74v-35h74zM418 1409v35h-53v-35h53zM891 799v73h-35v-73h35zM563 10l-10 29l-47 -25v-28z" />
<glyph unicode="8" horiz-adv-x="1163" d="M1077 164q0 -57 -30 -88q12 31 -41 88h71zM1024 78h-78q-2 -53 21 -92q-29 2 -78 -26t-51 -54q18 -12 18 -31q-20 -23 -98 -22q-4 -6 -4 -13q0 -10 12 -31.5t12 -29.5q-6 0 -29.5 9t-43.5 9q0 -14 -35 -49q10 -8 37.5 -18.5t37.5 -20.5q-135 -45 -186 -45 q-18 0 -84.5 10.5t-95.5 10.5q-25 25 12 100q-10 8 -24.5 32.5t-22.5 32.5q-23 -14 -119 -14q0 8 23 41q25 41 33 55q-37 6 -111 37q-25 39 -50.5 75t-66.5 36q-14 0 -30 -4q0 10 -10.5 45t-10.5 45q82 -6 111 12q-29 27 0 55q-14 12 -56 13q33 55 93 207q57 145 96 209 q74 -6 221 6q0 31 -3 35t-36 4q-23 0 -32 -9.5t-34 -9.5q-90 0 -147 117q-47 96 -47 190q0 43 59 189q0 4 -11 6t-11 29t139 225q20 2 105 35q78 29 100 28q23 0 102 -59q92 -70 125 -86q49 -20 109 -21l-51 -16q-10 -35 -9 -96q6 -119 6 -111q-29 29 -49 6l13 -63 q29 8 94 37q0 -16 14.5 -38t26.5 -22q-4 -6 -49 -94q-29 -55 -62 -78q55 -27 92 -61q-20 6 -63 -19q-33 -18 -68 -36v-68q37 -45 111 -109v-88h-78q-23 0 -63 21q-51 25 -88 35q-8 0 -11 10q-2 8 0 29q4 27 4 36h-47q-18 -18 -16 -75q-33 2 -150 -15q-74 -16 -102 -100 q-20 -70 -43 -139v-54q18 -35 74.5 -83t74.5 -78q-29 4 -92 -9q94 -137 195 -137q23 0 69 49.5t72 59.5q4 16 -24 37q-35 25 -43 41q-12 -12 -13 -56q-53 14 -125 49q43 0 123 23q115 31 140 37q0 12 16 231q-27 12 -74 64q6 0 26.5 11t47.5 11q18 0 18 -10v-8q-2 -4 -2 -8 q0 -10 21 -11l106 19q20 -33 41 -66q29 -41 74 -49q0 -8 -23 -24q-35 -25 -51 -41v-103q23 -12 45 -51q27 -49 31 -53zM113 821l-11 -26l-61 22v27zM541 262l-11 -26l-61 22v27zM1077 -397h-385v30h385v-30zM612 -397h-69v30h69v-30zM332 -313h-70l41 51q29 0 29 -51z M500 -397h-217v30h217v-30zM240 -397h-236v30h236v-30zM786 1298l-28 29l-19 -20l27 -27zM723 1276v33l-86 20v-31zM862 989v51h-31v-51h31zM688 1034q0 61 -22 113q-35 82 -117 82q-176 0 -176 -205q0 -121 59 -162q6 -4 64 -24q43 -16 51 -37q37 31 74 59q47 41 61 76 q6 20 6 98zM336 1098l-10 26l-43 -22v-29zM610 662v32l-86 21v-31zM909 356v52l-90 -27zM332 483q-86 -86 -182 -125h104q23 8 45 54q17 34 33 71zM649 -268v32h-51v-32h51zM109 104v33h-50v-33h50z" />
<glyph unicode="9" horiz-adv-x="1298" d="M1300 -399l-88 22v31l88 -23v-30zM1169 252l-104 20v33l104 -20v-33zM1305 20l-11 -26l-61 22v27zM1190 1057q-45 -61 -45 -133q0 -49 20 -95q-25 -39 -55 -114q-8 -55 -16 -113q-31 -84 -125 -110q16 -14 34.5 -31t18.5 -29q-2 -23 -45 -22q-29 0 -44 19.5t-30 35.5 l-84 -55l-45 18l-29 -29l31 -26q33 10 94 4q94 -8 95 -8v-107q-49 8 -91 -84l29 -28q35 35 80 34q0 -10 -22 -37q-35 -41 -39 -49q-68 4 -119 -71q-41 -76 -82 -150q-53 -84 -125 -94q2 -2 37 -23q27 -14 35 -34q16 0 -61 -10.5t-214 -10.5v43q6 29 35 29q27 0 31 -10.5 t10 -10.5q27 92 59 271q14 2 50 24q4 18 -25 37q-49 33 -57 43q-14 -18 -15 -37h-145q-18 0 -19 8q0 2 4.5 9.5t4.5 11.5q0 8 -19 8q-18 0 -18 -8q0 -4 4 -11.5t4 -11.5q0 -8 -18 -8q-25 0 -25 10q0 2 2 7.5t2 7.5q0 8 -6 14l-53 -55h-68l23 108q10 0 20 -20q14 -27 21 -33 q8 12 14 24.5t33 12.5q25 0 24 -10v-6q-2 -6 -2 -9q0 -8 6 -12q6 18 33 55h51q16 0 17 -8q0 -4 -3 -11t-3 -9q0 -8 16 -8q39 0 57 -19q14 12 31.5 26.5t17.5 26.5q10 0 64 -53q31 14 100 84q-37 47 -139 51q-10 14 -51 55t-51 56q29 4 74.5 -9.5t64.5 -13.5q25 0 34 18.5 t31 18.5q25 0 33 -11t27 -11q0 12 13 17t20 13q-37 27 -43 39q-2 4 -7 47q-74 -76 -155 -75h-66q-43 2 -59 2q-20 33 -21 51q49 0 148 33l-51 45q-88 0 -209 41q4 45 4 49q8 35 31 67q-92 92 -93 140q0 29 11 34q18 10 20 13q-12 25 -12 55q0 55 45 143q49 102 53 119 q16 76 57 152q18 37 103 86q78 47 123 55q16 -6 28 -2q14 10 28.5 21.5t45.5 11.5q18 0 96 -28t123 -28q102 -129 191 -319q-10 -6 -31 -2q-27 6 -31 6l-30 -29q37 -37 118 -36q2 -2 -1 -14.5t-3 -16.5q0 -16 25 -17q27 0 33 7.5t12 7.5zM1188 94h-51q-18 0 -19 6 q0 4 4 11.5t4 11.5q0 8 -18 8q-27 0 -33 -17.5t-10 -17.5q0 8 -10.5 34t-10.5 34q4 0 52.5 10t91.5 10v-90zM1169 -399l-86 22v31l86 -23v-30zM449 281l-11 -27l-63 22v27zM1059 -399l-162 20v33l162 -21v-32zM299 281l-10 -27l-62 22v27zM854 -399l-217 20v33l217 -21v-32z M332 -8l-105 20v33l105 -20v-33zM111 162l-23 -27q-16 -18 -29 -29q-18 -12 -34 -12q-14 14 -15 82q0 -35 -4 -20q2 -6 31 -6q27 0 47.5 6t26.5 6zM610 -399l-104 20v33l104 -21v-32zM164 -8l-86 20v33l86 -22v-31zM463 -399l-88 22v31l88 -23v-30zM233 -270v0v0v0z M182 -399l-180 20v33l180 -21v-32zM983 1296v33h-49v-33h49zM1055 672q0 16 -19 53q-82 -41 -82 -53q68 33 101 0zM950 866q0 94 -28 129q-47 29 -48 54q35 35 35 159q-41 0 -139 19.5t-119 19.5q-23 0 -101.5 -55t-103.5 -55q-23 0 -27.5 9t-27.5 9q-31 0 -35 -20 q2 4 2 -35q68 35 88 6v-70q0 -29 -20 -80q-14 -37 -31 -73q31 -41 27 -52q-6 -16 0 -63q4 -43 -6 -61q-66 33 -99 -5q0 -10 22.5 -30.5t22.5 -28.5q0 6 41 47h48q8 -37 66 -104.5t65 -100.5q68 35 135 70q82 41 112 41q41 0 95 102q26 51 26 168zM766 483l-12 27l-43 -23 v-28zM741 291v33h-49v-33h49zM649 291v33h-51v-33h51zM598 -221l-74 22v-26l64 -23z" />
<glyph unicode=":" horiz-adv-x="737" d="M539 1229l-99 18v31l99 -18v-31zM106 1464l-10 -24l-57 20v27zM436 872q-27 -10 -69 -10q-78 0 -121 31l20 31q12 10 41 10q31 0 51 -12l27 24q-25 12 -137 12q0 53 -19 54q6 84 68 84q61 0 139 -39v-185zM700 408q0 -39 -36 -64q-31 59 -31 84q47 0 67 -20zM662 248 l-99 18v31l99 -18v-31zM225 668l-82 20v31l82 -21v-30zM557 344h-49q-16 0 -16 6q0 4 3 11.5t3 9.5q0 8 -17 8q-16 0 -16 -8q0 -2 3 -9.5t3 -11.5q0 -6 -16 -6q-23 0 -26 8t-26 8v52q16 0 89 -6q39 -4 65 6v-68zM457 274l-11 -24l-57 20v27zM276 346q-8 0 -32.5 20.5 t-40.5 28.5q-49 -49 -62 -49q16 41 55.5 55.5t79.5 26.5v-82zM367 260q-31 2 -95 0q-78 -2 -94 -2q0 12 24.5 30.5t51.5 18.5q66 0 113 -47zM473 127q0 -10 -20 -29q-27 -25 -29 -28q8 -37 2 -113q-8 -104 -8 -119q-6 0 -28.5 -10t-47.5 -10q-23 0 -50.5 12t-37.5 12 q-37 96 -16 230q0 2 -21.5 28.5t-21.5 46.5q-10 0 60.5 10.5t176.5 10.5z" />
<glyph unicode=";" horiz-adv-x="913" d="M883 1245l-11 -26l-61 22v27zM649 1460l-10 -26l-61 22v27zM195 1632h-48v31h48v-31zM338 1217l-119 20v31l119 -19v-32zM504 1010q0 -43 -29 -62q-23 -10 -45 -22q8 -12 33 -37q20 -16 20 -37q-18 -6 -86 -12q-55 -6 -88 -27q0 37 -37 37q0 20 27 63q4 20 -2 64 q-8 53 -8 65q27 8 86 19.5t86 19.5q14 -12 28.5 -27t14.5 -44zM608 643l-102 19v30l102 -18v-31zM872 362q0 6 -4 7q-14 0 -45 -58q-25 -4 -67 84q4 0 24.5 -3t34.5 -3q20 2 37 10q20 0 20 -37zM393 725h-86q0 51 43 51t43 -51zM877 211l-119 20v31l119 -18v-33zM680 311 h-68q0 41 -10 51l-41 -34q0 8 8.5 33.5t8.5 33.5q16 0 84 2zM877 41q-72 23 -72 47q0 10 8 21h64v-68zM539 371q-43 4 -76 -60q-6 0 -41 33q-33 -33 -41 -33v86zM754 90q-6 -20 -23 -49q-16 0 -39.5 21.5t-23.5 46.5q20 0 49 -9.5t37 -9.5zM643 49l-84 21v30l84 -20v-31z M319 328q-6 4 -12 4q-8 0 -28.5 -10.5t-32.5 -10.5q-6 14 24 43q-16 25 -16 41h65v-67zM211 397q0 -70 -23.5 -78t-42.5 -8q3 25 66 86zM123 330q-6 0 -15.5 -10.5t-35.5 -10.5q-16 0 -17 8q0 2 3 9.5t3 11.5q0 6 -16 6q-27 0 -32 -16.5t-11 -16.5v84q8 0 43 2h57 q21 -20 21 -67zM270 66q2 0 -46 -12.5t-113 -12.5v68q26 0 159 -43zM537 109q0 -18 -29 -60q-37 -51 -47 -74q2 -4 11 -15t5 -21q-41 -80 -125 -215q4 -18 -4 -56q-10 -43 -10 -57h-211q20 76 84 246q74 188 98 270z" />
<glyph unicode="&#x3c;" d="M1980 485l-57 -315h-76q-6 0 -21.5 3t-19.5 3q-219 16 -458 105q-20 -43 -29 -78q-29 -131 -29 -226v-194q0 -31 10 -125q-45 -2 -163 -33q-111 -31 -170 -31q-74 0 -103 37q-14 25 -26 50q-16 33 -37 34q0 20 2 66.5t2 48.5q0 45 -12 117q-12 82 -31 98 q-80 -74 -184 -133q-84 -43 -170 -86l-68 260q0 4 2 12q74 43 207 125q96 63 291 183q-4 2 -23 2q-78 0 -151 -31q-2 -2 -13 -47q-37 27 -49 26q-10 0 -14 -8q-2 -16 -8 -53q-10 8 -35 29q-6 -31 0 -70l-88 45q-6 -23 0 -102q-43 35 -88 61q-6 -39 0 -88l-80 61v-96 q-39 41 -72 66q-2 -27 -6 -56q-4 -37 6 -51l-84 80q-4 -4 -14 -4q0 182 -121 432q285 76 350 96q193 59 322 129q-41 70 -140 187q-104 123 -208 243q-35 43 -103 140q188 86 373 245q63 -68 184 -249q104 -156 219 -318q115 86 238 266q102 150 205 301q98 -41 254 -186 q180 -166 180 -266q0 -82 -139 -227q-98 -94 -197 -191q6 -8 31 -18q59 -23 411 -148v-121zM885 748q0 20 -17.5 41.5t-44.5 21.5q-25 0 -44 -20.5t-19 -42.5q0 -23 20.5 -42.5t40.5 -19.5t42 17.5t22 44.5zM858 748q0 -12 -17.5 -23.5t-25.5 -11.5q-37 0 -37 35q0 37 39 36 q14 0 27.5 -13t13.5 -23z" />
<glyph unicode="=" horiz-adv-x="1034" d="M1057 -399l-82 20v31l82 -23v-28zM715 1647v0v0v0zM901 1270l-8 -27l-59 23v24zM567 1270l-10 -27l-59 23v24zM442 1270l-10 -27l-57 23v24zM932 555h-47v31h47v-31zM969 512q-8 0 -404 -8q-246 -4 -403 6l-21 131q10 41 23.5 84t34.5 66q8 0 43 -35q27 0 26 35h49 q23 0 23 -9v-6q-2 -6 -2 -8q0 -8 4 -12q14 16 14 35h56q23 0 46 -27t46 -27q20 0 20 9.5t23 9.5q27 0 33 -21q10 -31 14 -33q27 12 65 89q2 -2 60 -41q41 -29 67 -29q66 0 101 70q51 -8 65 -111q9 -84 17 -168zM1057 152q0 -57 -33 -103q-20 41 0 62q-33 33 -33 41h66z M1057 -29l-101 19v30l101 -18v-31zM897 -29l-154 19v30l154 -18v-31zM969 104q-35 0 -35 -34q-12 0 -45 32q-27 0 -27 -34h-57q-18 0 -32.5 17t-39.5 17q-33 0 -55.5 -26.5t-42.5 -26.5q-16 0 -98 9.5t-119 9.5q-8 0 -15.5 17t-31.5 17q-18 0 -19 -10v-8q2 -4 2 -6 q0 -10 -18 -10q-16 0 -17 6q0 4 3.5 11t3.5 9q0 8 -17 8q-23 0 -102.5 -26.5t-100.5 -26.5q-31 0 -49 17.5t-18 33.5h86q29 104 0 246q6 0 16.5 -7t34.5 -7q23 0 27 17.5t26 17.5q41 0 82 -31q27 -2 86.5 6t79 8t62.5 8.5t61 8.5q23 0 33 -17.5t31 -17.5q14 0 129 -2h176 v-226zM827 -399l-84 20v31l84 -23v-28zM721 -399l-119 18v31l119 -19v-30zM545 -399l-402 18v31l402 -19v-30zM1061 774l-70 23v-27l60 -20zM846 664q-96 -25 -152 4l-22 -52h135zM647 633v61q-6 -35 -82 -35zM721 555v31l-100 -19v-30zM492 616q0 23 -43 43q-57 -6 -166 3 q33 -20 98 -29q97 -13 111 -17z" />
<glyph unicode="&#x3e;" d="M1980 485l-57 -315h-76q-6 0 -21.5 3t-19.5 3q-219 16 -458 105q-20 -43 -29 -78q-29 -131 -29 -226v-194q0 -31 10 -125q-45 -2 -163 -33q-111 -31 -170 -31q-74 0 -103 37q-14 25 -26 50q-16 33 -37 34q0 20 2 66.5t2 48.5q0 45 -12 117q-12 82 -31 98 q-80 -74 -184 -133q-84 -43 -170 -86l-68 260q0 4 2 12q74 43 207 125q96 63 291 183q-4 2 -23 2q-78 0 -151 -31q-2 -2 -13 -47q-37 27 -49 26q-10 0 -14 -8q-2 -16 -8 -53q-10 8 -35 29q-6 -31 0 -70l-88 45q-6 -23 0 -102q-43 35 -88 61q-6 -39 0 -88l-80 61v-96 q-39 41 -72 66q-2 -27 -6 -56q-4 -37 6 -51l-84 80q-4 -4 -14 -4q0 182 -121 432q285 76 350 96q193 59 322 129q-41 70 -140 187q-104 123 -208 243q-35 43 -103 140q188 86 373 245q63 -68 184 -249q104 -156 219 -318q115 86 238 266q102 150 205 301q98 -41 254 -186 q180 -166 180 -266q0 -82 -139 -227q-98 -94 -197 -191q6 -8 31 -18q59 -23 411 -148v-121zM885 748q0 20 -17.5 41.5t-44.5 21.5q-25 0 -44 -20.5t-19 -42.5q0 -23 20.5 -42.5t40.5 -19.5t42 17.5t22 44.5zM858 748q0 -12 -17.5 -23.5t-25.5 -11.5q-37 0 -37 35q0 37 39 36 q14 0 27.5 -13t13.5 -23z" />
<glyph unicode="?" horiz-adv-x="1175" d="M1208 -74q-25 -12 -67 -8q-74 6 -66 6q0 18 21.5 37t54.5 19q57 -1 57 -54zM719 -367q-29 -10 -103.5 -11t-105.5 -11v268q6 0 35.5 -17.5t58.5 -17.5t69 -11t46 -11v-189zM311 -43q-8 -23 -24 -53h-70v53h94zM874 1630h-71v35h71v-35zM1192 1210l-12 -26l-64 22v29z M965 1042v0v0v0zM328 1630h-52v35h52v-35zM115 1630h-54v35h54v-35zM1092 965q0 -57 -13 -121q-16 -84 -45 -84q-23 0 -35 7t-14 7q-4 0 -10 -8q0 -29 76 -29v-88q-35 -25 -68 -84q-25 -47 -51 -96q-27 0 -66 39q-35 -25 -92 -35q-96 -20 -98 -20q25 47 135 235 q86 143 86 170q0 86 -78 258q31 4 62.5 9t54.5 24q-242 59 -332 59q-51 0 -151 -73q-2 -27 -13 -76q-6 -10 -32 -19q-41 -10 -58 -18q12 -12 58 -12q-39 -119 -39 -228q-16 0 -78 11.5t-94 11.5q6 10 6 22q0 16 -13.5 52t-13.5 57q0 86 64 281q2 6 30 49q25 37 25 57 q98 -6 135 12q-18 14 -37 15q0 8 10.5 47t12.5 55q111 70 219 70q20 0 99 -32t122 -32q-2 -6 -8 -59q-6 -39 -29 -64q6 -6 17 -6q6 0 32.5 6t42.5 2q111 -96 154 -231q4 -10 -3 -40t-5 -38q12 -10 23.5 -21t11.5 -42zM1225 291q0 -37 -41 -74h-72q12 27 49 45q31 15 64 29z M1130 129q-23 -20 -73 -49v74q10 0 36.5 -12.5t36.5 -12.5zM1004 106v0v0v0zM1069 197q-6 0 -43 36q-14 -18 -14 -36h-103q-31 -2 -49 18.5t-33 38.5q-18 -8 -34 -37q-23 -37 -52 -61q49 -16 117 -52q-43 0 -147.5 -52t-124.5 -52q-76 0 -76 121q0 49 16 63q-12 14 -75 15 q0 8 11 35.5t11 37.5q12 0 47 -18q39 8 47 50t25 56q39 29 158 29q39 0 86 -2q0 -10 -9.5 -40t-9.5 -40q31 -16 64.5 -34.5t64.5 -18.5q29 0 42 18.5t20 18.5q23 -20 61 -21v-73zM80 586l-10 -27l-66 23v28zM410 223l-113 -26q0 10 -26.5 41.5t-34.5 50.5h94 q0 -6 -7.5 -20.5t-7.5 -20.5q0 -14 27 -15q63 0 41 3q9 -1 27 -13zM498 -49v0v0v0zM332 106q-86 0 -170 -28q-23 39 -23 55zM154 217q-33 0 -70 37q-16 0 -80 -57v92h129q0 -20 10.5 -42t10.5 -30zM397 -23l-24 -75l-29 10l25 65h28zM123 -29l-25 -51l-26 12l24 50z M565 1352l-110 32l-25 -32h135zM406 1122v33l-91 23v-33zM328 1008v32h-72v-32h72z" />
<glyph unicode="@" horiz-adv-x="1429" d="M1399 1630l-23 -43l-22 10l20 43zM1323 1456h-80l21 47q12 0 35.5 -17.5t23.5 -29.5zM1223 1456h-80l18 45h62v-45zM1124 1458h-98l18 45q37 0 80 -45zM973 1460l-285 19q25 0 78 12t74 12q45 0 133 -43zM1343 1612q-102 -41 -176 -41q-23 0 -35 17.5t-32 17.5 q-18 0 -80 -17.5t-80 -17.5t-18 10q0 2 2 6v8q0 10 -17 11q-18 0 -18 -7v-4q2 0 2 -2q-2 -6 -19 -6q-16 0 -16 8q0 2 4 9.5t4 9.5q0 8 -16 8q-20 0 -24.5 -17.5t-26.5 -17.5q-20 0 -134 17.5t-135 17.5q-16 0 -46.5 -25.5t-53.5 -25.5q-20 0 -80 18q-74 23 -88 27 q-10 6 -49 -25q-27 14 -68 15q-33 0 -67 2q-53 2 -74 45h1274q27 2 41 -12.5t26 -28.5zM668 1446l-95 18v29l95 -18v-29zM535 1446l-97 18v29l97 -18v-29zM418 1456l-418 23q207 0 399 24q19 -31 19 -47zM1362 281l-10 -25l-56 20v25zM719 690l-78 21v28l78 -20v-29z M1380 31l-59 -60l-16 19l57 57zM1393 1112q-53 -27 -172 -27q-14 -16 -9 -55q53 -94 72 -272q-12 0 -41 -19q14 -14 66 -12q-8 -96 -17 -192q-14 -125 -67 -189q-14 27 18 60q-23 25 -76 24q-43 0 -80 -65h-77q0 12 4 22l4 10q0 6 -19 17q-18 -10 -18 -29q0 -6 3 -19.5 t3 -17.5q-4 0 -31 -2h-49q-70 0 -112 41q-8 6 -56 72q10 -2 19 -2q49 0 84 59q31 53 30 107q0 57 -26 94q-37 45 -72 88v57h64q-14 -25 -15 -41q0 -12 13 -30q25 -35 28 -41q16 27 10 114q55 0 66 17q-59 23 -217 22q16 59 4 86q47 23 47 31q-74 25 -172 0q4 -29 25 -29 q6 0 20.5 3t22.5 3q0 -6 3 -22.5t3 -28.5q0 -37 -39 -69q43 -12 100 -39q-33 6 -121 -11q-72 -59 -71 -145q0 -8 2 -20v-21q0 -66 -62 -90q0 -27 11 -37l32 33q39 -45 109 -123v-59q-27 0 -57 30q-31 -29 -41 -28q0 23 14 39q-2 2 -6 18q-2 6 -27 6q-23 0 -48.5 -8t-39.5 -8 q-8 -8 -12 -28.5t-12 -20.5q-25 59 -50 161q-23 96 -22 129q0 88 22 133q39 63 117 191q14 25 84 63q55 33 47 72q14 0 62.5 10.5t70.5 10.5q23 0 54 -39q35 -45 47 -52q-18 -35 -29 -51q-16 -25 -39 -37q18 -18 51 -18q43 0 56 -4l28 24q-6 6 -27.5 18.5t-21.5 20.5h96 q25 -141 13 -307q18 -70 -17 -119q20 -53 6 -82q27 -27 76 -26q20 0 45 7t49 7q0 82 17 395l-29 27q-20 -14 -37 -14q-61 217 -221 217q-25 0 -49 -6q8 14 35 18q35 8 47 14q-33 35 -62 52q-135 23 -163 22q-31 0 -88.5 -26.5t-79.5 -49.5q-4 -4 -2 -18q2 -12 0 -18 q-43 -6 -86 -45t-60 -74h-61q0 8 16 37q-10 2 -18 2q-31 0 -41 -47q-12 -53 -21 -58q-23 -2 -43 -4q-27 -4 -45 -24q14 -8 20.5 -43t28.5 -35l45 16l39 -20l2 -129q0 -80 -34 -111q53 -80 81 -197q-31 -4 -59 -8q-37 -6 -57 -20q23 -16 53 -17q29 0 76 17q10 -31 43 -88 q49 -68 127 -129q4 -2 53 -23q31 -12 47 -47q41 10 85 20.5t65 30.5q0 -12 -29 -41l-2 -2q-2 -4 4 -6t25 -2q25 0 102 37q119 57 135 63q16 -76 72 -104v-76q-39 -27 -39 -45q0 -8 6 -20q-47 -16 -96 -35q-59 -27 -60 -66q0 -8 2 -20q-45 10 -98 6q-80 -8 -76 -8 q-35 0 -67 67q-8 -8 -16.5 -25.5t-16.5 -25.5q-8 8 -25.5 17.5t-25.5 17.5q-10 -12 -10 -49l-99 24q18 0 84 33q-8 4 -129 94q-70 51 -137 52q0 8 31 38q-16 25 -66 66q8 8 32.5 17.5t33.5 17.5q-41 23 -129 69q2 6 2 13q0 12 -11.5 39.5t-11.5 46.5q0 20 30 43.5t38 38.5 q-12 6 -27 6q-16 0 -72 -29q-37 229 -36 309q0 25 8 50q12 37 12 36q29 125 39 160q29 98 76 172q-78 12 -203 37q29 0 205 10q59 80 86 140q31 18 162 110q94 68 118 68q115 0 97 -2q18 -4 18 -37l43 -13q10 10 4 25q-8 20 -8 25h53q90 0 232 -127q94 -82 178 -189 q103 -8 205 -8zM723 449l-8 -25l-58 20v25zM1276 289q-80 -27 -193 -27q-14 0 -14 -6q0 -2 6 -10t6 -13q0 -6 -16 -6t-58 17.5t-67 17.5q-27 0 -49.5 -26.5t-26.5 -51.5q-18 -2 -68.5 -12t-74.5 -10q-86 0 -146 20q-16 6 -63 47t-76 45q12 18 26.5 37t41.5 19q23 0 38 -18.5 t31 -18.5v51q100 -49 123 -49q20 0 33.5 8t34.5 8q-10 0 61 6q39 2 54 -8v-14q20 0 20 10q0 2 -2 8v6q0 10 18 11q16 0 33 -17.5t43 -17.5q20 0 96 17.5t97 17.5q18 0 47 -20.5t45 -20.5zM1339 -223l-198 24q102 0 176 25q22 0 22 -49zM1106 -197h-62v29h62v-29zM1006 -221 h-99q23 45 80 45q19 -31 19 -45zM68 281l-9 -25l-57 20v25zM223 37l-28 -62l-25 11l29 59zM115 -221h-80l20 45q12 0 36 -17.5t24 -27.5zM1171 1030v29l-77 -21v-28zM903 1212v29h-78v-29h78zM1159 948l-8 25l-41 -21v-24zM1247 877l-22 8l-23 -43l25 -11zM752 1282v29 l-78 -21v-28zM539 1286l-66 23v-25l55 -20zM621 895h-66l45 -45q1 16 21 45zM502 860v29h-64v-29h64zM903 37v29h-45v-29h45zM436 51q-18 20 -18 55h-66q33 -33 19 -49q-16 0 -29 21q-20 -23 -20 -66q75 0 114 39z" />
<glyph unicode="A" horiz-adv-x="1683" d="M1704 1612l-145 20v33l145 -20v-33zM1683 1489l-90 27q8 0 33 14t33 14q24 0 24 -55zM1513 1612l-106 20v33l106 -20v-33zM1251 1518q-31 -31 -86 -31q-4 0 -4 4q0 6 9.5 24.5t9.5 26.5zM1106 1536l-25 -51l-26 12l24 47zM1020 1612l-125 20v33l125 -20v-33zM868 1612 l-106 20v33l106 -20v-33zM680 1612l-242 18v35l242 -20v-33zM1636 485h-32v70h32v-70zM631 1526l-70 -45l-16 26l67 43zM395 1610l-88 22v33l88 -23v-32zM473 1538q-53 -53 -125 -47h-82q113 41 207 47zM266 1640l-10 -28l-63 24v27zM147 1612l-143 20v33l143 -20v-33z M1495 -256q-59 20 -203 20q4 57 -39 144q31 0 64 -33l29 29q-16 25 -62 43q-33 14 -63 26q0 25 -39 110t-39 130q0 57 47 94q6 18 6 45q-23 10 -53 10q-47 0 -119 -24q27 -29 10 -45q-4 2 -16 43q-10 33 -33 33q-43 0 -82 -39q-53 20 -131 20l-33 -35q0 -10 21 -28 q31 -25 37 -31h-58q-25 0 -24 8v6q2 6 2 9q0 8 -6 14q-35 -37 -35 -76q-2 8 -23 37q-68 -39 -92 -127q-16 -66 -35 -133q-27 -61 -108 -62q-10 0 -35 2q-18 0 -30.5 -2t-30.5 -12q8 -10 13 -18t33.5 -8t39 -18.5t16.5 -18.5q23 8 39 34q20 37 24 39q0 -61 -36 -166h-222 l549 1711q-16 23 -53 22q-20 0 -37 -8q0 55 51 51h285l-37 -37q-20 -25 -20 -55q0 -20 32 -121q41 -121 48 -151q23 -92 108 -150q0 -10 -10 -22q-20 -18 -23 -21q18 -72 64 -166q4 -8 -2 -37q-8 -39 -8 -61q0 -25 38 -57q43 -39 50 -54q27 -78 26 -157q0 -57 -14 -109 q23 -25 61 -74q53 -94 97 -354q0 8 -23 37q-47 -37 -47 -80q51 -27 111 2zM1462 -371l-10 -26l-63 22v29zM215 530l-25 -51l-26 13l24 49zM215 455l-25 -52l-26 13l24 49zM793 -399l-88 22v33l88 -23v-32zM381 -274l-10 -29l-64 24v27zM1059 1042v33l-109 21v-33zM1143 836 l-29 30l-18 -20l26 -27zM1124 713v51h-32v-51h32zM1157 629h-92v-70q39 13 92 70zM1024 575q0 29 -55 181q-72 199 -84 237q-51 -53 -99 -219q-49 -180 -84 -229q47 -10 160 -13q104 -2 135 -12q10 8 18.5 17t8.5 38zM575 561v107h-32v-107h32zM698 313q0 18 -22 54 q-23 -10 -58 -7q-57 6 -45 7q-29 -43 2 -74q45 0 83 10t40 10zM500 340l-27 10l-24 -49l26 -10zM489 209v33h-51v-33h51zM459 66l-17 24l-67 -43l16 -27z" />
<glyph unicode="B" horiz-adv-x="1191" d="M297 154h-35v51h35v-51zM391 -164l-20 -18l-29 28l20 19zM1079 1612l-323 18v35l323 -20v-33zM985 1511q-10 0 -47 -12t-47 -12l22 53zM692 1610l-108 22v33l108 -20v-35zM557 1612l-168 20v33l168 -20v-33zM287 1612l-129 20v33l129 -20v-33zM113 1610l-109 22v33 l109 -20v-35zM1098 205q0 -10 -21 -35q-14 -16 -30 -35q-16 -43 -35 -89t-66 -44q10 -10 58 -10q-47 -92 -115 -92q-137 0 -203 6q-10 10 -19.5 21.5t-37.5 11.5q-41 0 -109 -35v-86q-14 -14 31 -15q25 0 92.5 39t89.5 39q25 0 25 -19.5t24 -19.5q25 0 25 18.5t24 16.5h76 q-51 -119 -110 -143q-20 -8 -121 -8q-102 0 -162 20q-10 -10 -25.5 -14t-25.5 -15q49 -12 135 -45h-115q-20 -2 -20 9v6q2 6 2 8q0 12 -22.5 12t-27.5 9.5t-28 9.5h-162q-8 -8 -13 -32t-15 -24v150q27 0 62.5 28.5t49.5 59.5q-4 4 -8 22q-2 8 -31 9q-31 0 -30 -13 q0 -4 3 -12t3 -14q-25 25 -70 24q0 12 4 27q10 31 37 51h14q-59 33 -59 109q0 27 10.5 88t10.5 90q0 82 -58 123q45 37 45 110q0 16 -2 45t-2 43q0 72 57 95q12 10 13 16q0 10 -25 10q-27 0 -33 -8t-12 -8q0 -47 8 411q2 248 -10 412q375 -14 477 -14q98 2 156 16 q0 -41 -53 -67q4 -4 14 -50q10 -37 33 -37t22 7q-2 2 -4 8q0 6 21 6q31 0 78 -90q37 -76 59 -150q8 -25 8 -108q0 -92 -31.5 -200.5t-85.5 -178.5q0 -10 30 -26.5t40 -30.5q106 -145 104 -209v-125q-10 -2 -18 -2q-33 0 -63 39q-20 29 -43 57q-14 -14 -15 -57 q-63 31 -205 80q0 10 21 24q29 16 35 23q-6 20 -47 47.5t-50 38.5q10 6 39 4q43 -6 58 -6q70 0 69 32v12.5v12.5q0 31 27 51l-10 10h-9q-12 -2 -31.5 -2t-49 -28.5t-54.5 -28.5q-20 0 -93 30.5t-111 32.5q-2 16 -23 54q-8 0 -10 -13q-2 -6 0 -22q2 -20 2 -23q-20 2 -52 -16 t-61 -35q18 -20 66.5 -40.5t66.5 -41.5h-61q-18 -29 -19 -53q0 16 17 -78q-41 -74 -21 -190q4 -20 -13 -67.5t-17 -70.5q0 -106 163 -106q98 0 171 37t96 92q55 133 55 199h63q25 0 62 -11q29 -8 55 -16q31 -53 66 -53zM1092 1513v0v0v0zM868 1163q-14 6 -49 62 q-29 47 -55 47q-8 0 -375 -62v-381l221 -22q29 10 84.5 43t75.5 39q0 47 -12.5 138t-12.5 130q0 33 5 57q20 0 61 -25.5t57 -25.5zM840 739v0v0v0zM606 676v51h-35v-51h35zM383 705v32h-109v-32h109zM367 319q-82 0 -131 23q0 -35 40 -74q40 0 91 51z" />
<glyph unicode="C" horiz-adv-x="1568" d="M1681 1612l-147 20v33l147 -20v-33zM1337 1612l-186 20v33l186 -20v-33zM1288 1534l-24 -51l-27 12l25 49zM1030 1612h-223v35h223v-35zM711 1640l-13 -28l-63 24v27zM608 1612l-108 20v33l108 -20v-33zM1513 625l-10 -27l-63 23v28zM475 1612l-166 20v33l166 -20v-33z M283 1610l-88 22v33l88 -23v-32zM362 1511q-8 0 -45.5 -11t-46.5 -11l23 53zM117 1640l-11 -28l-65 24v27zM248 1538q-16 -16 -58.5 -33.5t-70.5 -17.5q-20 35 -21 53q-18 0 54 -8q49 -6 96 6zM1530 952h-244q-23 57 -88 144q-90 115 -102 135q-20 2 -105 24q-74 18 -100 19 q-25 0 -107 -28.5t-104 -28.5q-29 0 -48.5 19t-25.5 19l-33 -28q16 -16 58 -17q-27 -18 -70 -81.5t-82 -94.5q14 -14 56 -14q-27 -20 -56 -41q-43 -33 -53 -61q-14 -66 -47 -216q-6 0 -22.5 23t-37.5 35l-14 -86q18 -16 76 -15q0 -66 2 -129q10 -94 76 -116q-29 -6 -76 -31 q61 -98 123 -197q80 -123 141 -172l62 -28q59 -31 94 -66q-72 12 -152 6q-80 -4 -82 -4q-4 10 -8 21.5t-35 11.5q-18 0 -30.5 -19.5t-44.5 -19.5q-29 0 -66 23q-29 20 -57 38q0 12 18.5 29t36.5 33q-154 63 -154 174q0 35 35 68.5t80 48.5q-27 27 -35 26l-53 -39 q-16 25 -68.5 59t-91.5 46q47 10 133 41q-10 10 -55 10q0 6 -10 31.5t-10 52.5q0 51 26 223q35 207 74 316q8 20 86 100q20 20 52 80.5t57 83.5q94 96 151 121q-4 23 -4 41q31 0 113 20.5t104 20.5q16 0 151.5 -11.5t200.5 -11.5q0 -37 -55 -63q127 -41 244 -215 q88 -156 176 -310zM1511 213q0 -59 -133 -211q-74 -82 -147 -164q16 27 16 101q-47 8 -147 2q-106 -6 -180 4q4 0 131 41q84 29 123 24q8 8 8 13q0 10 -27 18q8 23 41 74q20 35 21 61q0 18 -9 41q6 0 36 12.5t59 12.5q25 0 24 -19q0 -2 -2 -10v-12q0 -10 6 -17q35 35 35 39 q0 6 -6 13q70 -4 127 24q24 -4 24 -47zM1186 -211q-25 -20 -92 -35q-59 -10 -119 -22q8 -8 35 -23q20 -10 20 -20q10 0 -52.5 -10.5t-168.5 -10.5q-8 8 -8 21q0 20 22 43q-20 6 -45 6q-23 0 -61.5 -7t-57.5 -7q-35 0 -114 63q-43 35 -86 72q20 10 51 -21q41 0 70 58 q29 0 65 -39q27 0 27 37q18 0 48 -37t56 -37q23 0 119 28.5t119 28.5q25 0 39 -28.5t39 -28.5h57q25 -6 37 -31zM840 -397h-90v32h90v-32zM379 -397h-51v32h51v-32zM1055 1427l-11 27l-45 -24v-27zM1395 1057v33h-52v-33h52zM1206 1235q-27 37 -73 37v-72q5 0 73 35z M553 1153v33h-53v-33h53zM1266 49l-13 27l-45 -23v-28zM240 758l-50 -49q18 -16 41 -47q16 35 17 69q0 19 -8 27zM342 569v54h-70l-22 -54h92zM934 -283v33h-70v-33h70zM483 43l-28 31l-19 -21l27 -26z" />
<glyph unicode="D" horiz-adv-x="1519" d="M1495 1612l-354 18v35l354 -20v-33zM1409 1536l-25 -51l-26 12l24 47zM1251 1513q-10 0 -47 -11t-45 -11l23 51zM1040 1610l-90 22v33l90 -23v-32zM926 1610l-88 22v33l88 -23v-32zM735 1612l-125 20v33l125 -20v-33zM528 1612l-221 18v35l221 -20v-33zM262 1612l-106 20 v33l106 -20v-33zM1403 575q0 -125 -55 -276q-59 -160 -142 -246q6 -29 -20.5 -65.5t-57.5 -36.5q-25 0 -24.5 9t-22.5 9q-20 0 -45.5 -28.5t-50.5 -28.5q-23 0 -22 20v0q0 18 -25 19q-14 0 -52 -11.5t-61 -11.5q-51 0 -86 54q31 18 100.5 43.5t96.5 43t83 96.5t91 99 q27 20 53 39q41 27 70 27q27 0 41 -10.5t20 -10.5q14 8 15 25q-37 23 -129 16q-4 33 -4 68q0 72 19 164t19 98q0 33 -27.5 116t-53.5 126q-45 72 -222 247q0 8 23.5 33t34.5 43q-14 6 -31 6q-25 0 -69 -15t-64 -15t-47 19.5t-47 19.5q-16 0 -130 -9.5t-167 -9.5 q-25 -100 -4 -254q2 -8 -14.5 -19.5t-16.5 -37.5v-926q-6 0 301 0q0 -29 -53 -82q16 -14 51 -67h49q12 12 6 28q-8 27 -8 29q53 -27 68 -27q4 0 17 4.5t34 4.5q45 0 180 -46q-25 -27 -78 -57.5t-86 -30.5q16 0 -207 2h-440q-33 57 4 132q4 -4 109 -39q0 4 8 26.5t8 57.5 l-31 30q-37 -37 -47 -37l-92 25q37 59 37 104q0 27 -19.5 74t-19.5 82q0 31 115 105q4 2 19 -7.5t26 -9.5q14 0 30 17q-25 31 -55 30q-20 0 -51 -14q-43 -23 -43 -25q0 29 16 45q-18 27 -73 72v1110l680 4q31 0 135 -88q84 -74 168 -145q0 -12 -19.5 -28.5t-36.5 -33.5 l29 -28q0 2 12 26q6 12 35 13q35 0 113 -130.5t69 -183.5q12 -33 37 -74q2 -41 17 -161q10 -111 10 -136zM760 444l-10 -26l-64 22v29zM1505 -342l-24 -51l-27 12l23 49zM612 424l-18 -25l-68 45l17 25zM741 -371l-10 -26l-63 22v29zM680 -303l-145 18v35l145 -20v-33z M1069 1251l-29 9l-43 -86l27 -11zM1362 612q-18 0 -63.5 8.5t-63.5 8.5q6 -16 47 -49q35 -29 35 -52q0 10 22.5 42t22.5 42zM385 1460l-27 8l-24 -47l26 -12zM301 1063v33h-70v-33h70zM358 580q0 20 -38.5 47.5t-47.5 44.5q0 -18 -24 -51q85 -43 110 -41zM606 -55 q-6 0 -41 12t-63 12q-20 0 -21 -10q0 -2 2 -8t2 -8q0 -10 -20 -11q-31 0 -35 4.5t-4 24.5q0 -18 -47 -20q31 -12 62.5 -26.5t43.5 -39.5q0 39 31 39q31 -59 70 -55q0 66 20 86z" />
<glyph unicode="E" horiz-adv-x="1142" d="M449 -334l-11 -26l-63 22v27zM1225 1612l-86 20v33l86 -23v-30zM1116 1628q-51 0 -164.5 -13t-132.5 -13q-98 0 -241 47zM555 1612l-346 20v31l346 -18v-33zM182 1612l-123 20v33l123 -20v-33zM932 604q-4 -27 -47 -26q-25 0 -52.5 27.5t-50.5 27.5q-29 0 -42 -19.5 t-23 -35.5q-10 8 -32.5 24t-31.5 25q-8 0 121 43q18 -8 78 -32t80 -34zM1004 -182q-45 -23 -148 -23q-23 0 -22.5 18.5t-24.5 18.5q-18 0 -46 -16.5t-46 -16.5q-242 0 -295 8q-23 -2 -47 -28q-18 -18 -35 -39q4 18 4 31q0 12 -27.5 30.5t-33.5 83.5q20 -2 43 -2q94 0 211 58 q2 -27 -15 -43q4 -6 8 -11q2 -2 11.5 -1t25.5 1q27 0 52.5 29t50.5 55q-25 25 -47 29h-56q-12 0 -229 -53q0 10 -19.5 27.5t-37.5 31.5q0 -14 22 76q-43 92 -43 160q0 29 21 45l24 20q25 2 68 23q0 25 -41 53q-63 45 -70 51q0 10 10.5 31.5t12.5 28.5q-16 113 18 221 q-10 14 -12 57q-6 86 -6 92q-20 176 0 338q10 86 10 146q0 109 -33 194h742q0 -25 -31 -63q16 -102 16 -136q0 -96 -123 -96q-25 0 -145.5 9.5t-142.5 9.5q-68 0 -86 -68q-8 -29 -9 -127q0 -20 9.5 -108.5t9.5 -128.5q43 -29 123 -29q27 0 77 3t74 3q96 0 127 -47 q12 16 25.5 34.5t36.5 18.5q0 -76 -33 -119q16 -12 35 -24q20 -18 20 -49q0 -23 -11 -52.5t-11 -48.5h-447q-14 -45 -29 -90q-18 -53 -43 -88q51 -31 52 -104q0 -25 -11 -95q-8 -61 -6 -94q78 -16 310 -16q29 0 28 -12q2 -20 8 -25q12 16 13 35h51q49 -2 94 -2l-20 -86 q-10 0 -47 35h-50l-30 -31q18 -68 114 -68q16 0 31 4q0 -10 10.5 -34.5t10.5 -34.5zM598 -240l-10 -26l-64 22v27zM1053 1518v0v0v0zM471 1462l-27 11l-22 -48l27 -12zM408 1055v30h-52v-30h52zM727 743l-10 27l-43 -22v-27zM602 692v68h-33v-68h33zM633 614q-39 18 -66 66 q-33 2 -102 22q0 10 7 31t7 29q-23 -20 -30 -76q-12 -76 -17 -88q37 35 57 35q4 -4 11 -35q4 -20 30 -20q29 -1 103 36zM428 588q-10 6 -106 100q0 -16 -23 -49q66 -33 59 -98q10 10 35 24.5t35 22.5z" />
<glyph unicode="F" horiz-adv-x="1134" d="M1153 1610l-88 22v33l88 -23v-32zM1159 1526l-12 -27l-64 23v28zM907 1612l-108 20v33l108 -20v-33zM584 1612l-125 20v33l125 -20v-33zM432 1612l-239 18v35l239 -20v-33zM168 1610l-88 22v33l88 -23v-32zM209 1518l-70 -31q-4 4 -37 26q-25 16 -24 27q45 0 87 -11 t44 -11zM965 1262q-121 -18 -299 4q-135 16 -174 -15q-55 -45 -56 -239q0 -14 -3 -55.5t-3 -63.5q0 -127 111 -127h188q25 0 25 19.5t24 19.5q29 0 45 -12q10 -14 23 -27q25 18 78 18l28 -24q0 -72 2 -146q0 -94 -30 -133q-10 2 -107 0q-53 0 -88 39l-35 -37h-84v72 q6 0 38 10t54 10q27 0 35 -20q12 -33 15 -37q29 0 28 55q12 0 49 -34q20 0 39 16q31 27 41 33q-35 29 -118 45q-76 16 -138 76q-20 -27 -61 -74v80q-10 14 -29 14q-6 -6 -20 -29q4 -12 4 -82h-113q18 -33 76 -69q51 -33 78 -35q-12 -12 -52 -23.5t-67 -7.5q-20 -37 -16 -112 q-45 0 -111 -33q2 -2 70 -51q43 -31 41 -60v-295l-66 21h-139q12 61 8 164q-4 135 -4 164q16 0 51 20q-12 12 -53 12q-20 131 -21 217q0 106 29 170q-29 133 -29 312q0 76 11 264q8 170 4 264h721v-278zM1102 -371l-10 -26l-64 22v29zM455 -203q-74 -27 -205 -92v127 q31 10 80 62q80 -42 125 -97zM532 -371l-10 -26l-63 22v29zM381 -371l-10 -26l-64 22v29zM395 1233v33h-88v-33h88zM395 1063v33h-108v-33h108zM492 723q-16 0 -43 25q-8 0 -11 -17q-2 -10 0 -31q4 -25 4 -28zM377 580v143q-16 18 -47 25q-20 -66 -60 -189q21 21 107 21z " />
<glyph unicode="G" horiz-adv-x="1630" d="M1407 143h-51v33h51v-33zM1735 1610l-109 22v33l109 -20v-35zM1599 1612l-225 18v35l225 -20v-33zM1329 1612l-301 18v35l301 -20v-33zM963 1612l-226 18v35l226 -20v-33zM1464 1032l-129 21v32l129 -20v-33zM518 1612l-168 20v33l168 -20v-33zM580 1513l-113 -28v55z M80 1640l-12 -28l-64 24v27zM1141 567q-14 -6 -49 -30q-45 45 -45 57zM190 1538l-20 -51h-92q12 25 45.5 34t66.5 17zM1604 412q-59 -63 -138 -103q0 -27 58 -26q0 -49 -76 -207t-96 -158q-23 0 -23 10v0q0 10 -24 11q-25 0 -30 -19.5t-30 -19.5q-16 0 -16 6q0 4 7 13t7 13 q0 6 -16 7q-4 0 -22.5 -17.5t-49.5 -17.5t-78 16l-14 -65q49 -29 111 6l22 -113q-16 0 -57 -20.5t-66 -20.5q-31 0 -52.5 12.5t-43.5 26.5q-6 -8 -6 -20q0 -10 6 -29t6 -25q-57 -16 -123 -16t-125 16q0 10 24.5 23.5t33.5 19.5q-35 35 -86 11q-57 0 -91 11l-34 11 q10 51 53 53q66 6 98 31q-31 31 -53 31q0 10 35 47q-25 29 -78 29q-23 0 -38 -19.5t-38 -19.5q-29 0 -44 10t-21 10q-10 -12 -9 -39q6 -47 7 -39q-6 18 -60 56q-59 41 -78.5 64.5t-54.5 113.5q-29 78 -68 98v109q35 0 66 -8.5t35 -8.5q10 10 26.5 24.5t26.5 24.5 q-27 29 -88 29q-41 0 -80 -39q-18 53 -39 107q-25 70 -24 98v119q37 20 55 20q-4 -16 -4 -31q0 -78 72 -120q23 23 22 55q0 20 -10 37q12 0 24 -19q20 -29 25 -34q10 -6 27 12q-80 162 -136 162q-27 0 -48 -7.5t-27 -7.5q14 88 61 238q-2 6 -4 6t-6 -2h-6q-8 0 -8 25t98 165 q80 115 160 228q25 35 98 80q57 35 57 71q0 14 -6 31h518q0 -25 -37 -61q162 -51 256 -181q94 -141 187 -282v-70q10 0 -66 2h-180q0 41 -41 107q-45 74 -115 127q0 29 76 61q-18 2 -33 2q-31 0 -60.5 -15.5t-41.5 -15.5q-31 0 -55 23q-16 14 -31 29q-33 -8 -86 -2 q-70 10 -80 10q-111 0 -223 -135q-90 -106 -160 -271q-61 -141 -61 -202q0 -172 77 -248q0 -4 -19 -27.5t-19 -54.5q0 -33 79.5 -143.5t149.5 -172.5q18 -18 87 -41.5t89 -44.5q0 -10 -23 -22q-29 -16 -36 -25v-49q33 -10 104 -35q6 14 6 31q0 10 -31 90q16 8 48 -22l36 37 h68q0 -31 -37 -103q31 -33 64 -33l32 31q-16 12 -34 12q-4 20 -4 39q0 57 59 94q55 27 108 52q-4 53 66 131q104 121 117 139v49q14 14 -31 14q-25 0 -25 -8v0q0 -10 -22 -10q-20 0 -50 39t-57 39q-25 0 -34 -30t-33 -30h-96q-49 0 -127 78q-14 -14 -15 -57q2 18 -43 18 q-16 0 -16 -6q0 -4 7 -13t7 -11q0 -8 -18 -9q-23 0 -23 19.5t-24 19.5q-29 0 -38 -18t-16 -18q-25 39 -24 124q0 100 43 138q35 31 108 30q18 0 58.5 -2t60.5 -2q408 0 656 -22q0 -10 -10.5 -36t-10.5 -38h-55q-20 0 -21 10q0 2 2 8.5t2 8.5q0 12 -22 12h-291l14 -78 q39 39 74 39q29 0 44 -13l15 -14q137 0 173 -32q37 37 55 37q6 -49 33 -123zM1284 1087v0v0v0zM930 1444l-12 26l-46 -22v-29zM702 1456l-28 10l-25 -49l29 -12zM1122 1001l-75 25v-29l65 -22zM479 1073v33l-90 -23v-32zM928 567l-133 25q0 -33 43 -74q35 0 90 49zM383 954 v33h-51v-33h51zM156 422l-76 24v-28l65 -23zM336 201l-29 10l-24 -51l26 -10z" />
<glyph unicode="H" horiz-adv-x="1290" d="M1362 1612l-258 18v35l258 -20v-33zM950 1640l-10 -28l-63 24v27zM850 1612l-203 20v33l203 -20v-33zM889 1479l-109 20v33l109 -21v-32zM756 1499h-88v33h88v-33zM489 1612l-106 20v33l106 -20v-33zM565 1479l-88 20v33l88 -23v-30zM248 1640l-10 -28l-64 24v27z M78 1640l-10 -28l-64 24v27zM129 1491h-72l43 51q29 0 29 -51zM25 1489h-33v51h33v-51zM1290 1505q-33 -6 -65 -12q-41 -10 -64 -39q-2 -72 -12 -272q-8 -178 -8 -283q0 -117 8 -217q2 -25 14 -115q10 -68 11 -106q0 -113 -74 -160q18 -18 49 -53q2 -37 14 -133 q12 -86 13 -107q0 -25 -11.5 -40t-11.5 -34q-16 0 -52 -11t-59 -11q-55 0 -79 92q-14 51 -15 98q0 102 6 129q14 70 70 74q-29 29 -57.5 58.5t-28.5 52.5q0 27 29 55q-47 49 -123 49q-295 0 -430 -18q-25 -57 -31 -144q0 -23 16.5 -150.5t10.5 -191.5q-2 -23 -13 -96 q-10 -59 -10 -96q0 -66 27 -117h-88q0 8 34 45q-20 18 -79.5 17.5t-90.5 42.5q47 18 152 77q12 43 -57 43q-27 0 -47.5 -9t-26.5 -9q0 6 -6 149q-2 96 -35 144q27 27 47 76q90 18 125 57l-33 29q-23 2 -52.5 -18.5t-53.5 -39.5v1229h231q0 -6 -18.5 -29.5t-18.5 -50.5v-659 h158q119 -2 203 -2q0 -10 -19 -39q20 0 25 4q8 18 18 37h88q-20 -59 -4 -92q49 25 66 53q14 20 20 72q10 66 11 172q0 80 -7.5 232.5t-7.5 201.5q0 104 19 104q194 0 323 -39zM760 444l-10 -26l-64 22v29zM1155 -236h-45q-37 -2 -37 -28q0 -12 6 -29h-90q0 8 35 45 q-12 12 -53 12v146q4 0 29.5 -17.5t52.5 -17.5q31 0 32 10q-2 -8 -2 25q33 0 72 -41v-105zM45 -342l-25 -51l-26 12l22 49zM1083 1071l-75 23v-27l63 -23zM1124 684l-28 31l-21 -21l27 -26zM1116 580q0 10 -19.5 44.5t-19.5 43.5q-4 0 -15 -27t-38 -27q-25 0 -69 9.5 t-64 9.5q-23 0 -66 -18.5t-67 -18.5q-29 0 -29 27q0 10 4 25.5t4 19.5q-10 0 -30.5 -17.5t-30.5 -17.5q-35 35 -66 35q0 -8 9.5 -43t9.5 -45q113 -14 243 -15q131 1 244 15zM356 1063v33h-69v-33h69zM481 692v51h-32v-51h32zM586 561q-23 115 -47 166q0 -74 -39 -113 q-92 0 -103 -10q66 -43 189 -43zM360 608q-8 4 -55 37q-33 23 -55 23q0 -8 -10.5 -44t-10.5 -44q23 0 64 -9.5t45 -9.5q-1 16 22 47z" />
<glyph unicode="I" horiz-adv-x="634" d="M680 1612l-297 18v35l297 -20v-33zM612 1536l-24 -51l-27 12l25 47zM129 1612l-125 20v33l125 -20v-33zM492 514q-29 -31 -29 -76q0 -12 4 -22q-2 0 -23.5 -34t-46.5 -34q-16 0 -25.5 9.5t-15.5 9.5q-16 0 -73 -33q0 -25 2 -27q6 -14 35.5 -14t58.5 -2t35 -2 q0 -20 41 -60q0 -152 -10.5 -232.5t-10.5 -62.5q-6 0 -17 8.5t-38 8.5q-20 0 -21 -10q0 -4 2 -9.5t2 -7.5q0 -12 -20 -12q-29 0 -61 25q-45 35 -52 36q0 244 4 686q16 2 52 21q-18 27 -52 57q6 193 -2 682q0 39 -41 121h224q45 -27 45 -90q0 -20 -5 -56t-5 -51 q-6 -82 -33 -659q41 -37 41 -59q0 -12 -17 -76q27 -35 52 -35zM432 -238q-27 0 -43 19q-37 -37 -37 -47t6 -27q-4 0 -20 26.5t-43 26.5q-31 0 -31 -2q-4 -8 -10 -16q-14 25 -12 74q0 49 14 78q-8 -12 -8 -21q0 -16 26 -16q106 0 158 16v-111zM377 1233v33h-70v-33h70z M338 18v33h-51v-33h51z" />
<glyph unicode="J" horiz-adv-x="1021" d="M1096 1614h-181v33h181v-33zM723 1612l-107 20v33l107 -20v-33zM518 1612l-106 20v33l106 -20v-33zM489 1538l-22 -51l-27 12l23 47zM387 1612l-383 20v31l383 -18v-33zM324 1538l-25 -51l-27 12l25 47zM258 1493q-154 0 -240 25q72 29 215 28q25 0 25 -53zM874 465 q0 -35 -129 -121l29 -27q16 16 60 17q23 -68 22 -184q0 -14 -8 -64q-6 -39 0 -57q-10 -4 -31.5 -29t-21.5 -37q-25 20 -160 21q4 74 8 147q4 90 -6 141q12 8 22.5 17.5t10.5 38.5v925q0 -20 -25 205q-47 76 -47 84h256v-831q-10 0 -34.5 -9.5t-35.5 -9.5q0 8 8.5 28.5 t8.5 29.5q-4 8 -8 14q2 0 -29 0q-35 0 -55 -14q-10 -8 -39 -43q14 -20 90 -21q0 -12 -35 -47v-49q10 -4 14 -4q6 0 13.5 14t33 14t31.5 17.5t8 32.5h29q0 -27 10 -101.5t10 -97.5zM281 616l-11 -26l-61 22v27zM43 475l-25 -49l-24 12l22 47zM481 -16q-16 0 -65 -10.5 t-72 -10.5q-27 0 -53 23q-39 33 -47 39q4 16 4 36q0 23 -11.5 69t-11.5 69q0 33 21 59h180q0 -6 -8 -21.5t-8 -41.5q0 -70 71 -146v-65zM780 -127q-14 -6 -51 -51t-59 -45q-27 0 -41.5 18.5t-20.5 18.5q-23 -14 -22 -54q0 -18 8 -34h-127q10 20 37.5 38.5t36.5 30.5 q-14 12 -41 12q-14 0 -49 -6t-52 -6q-29 0 -51 25q-14 18 -29 37v67l48 -37q39 0 65 56q29 0 66 -37q27 0 26 35q10 0 23 -19q14 -29 20 -35q16 14 32.5 28.5t16.5 25.5q8 0 17 -21q8 -31 29 -51q49 49 49 72h69v-68zM690 -334l-10 -26l-62 22v27zM537 -397h-50v30h50v-30z M332 -350h-107q0 8 19.5 24.5t19.5 24.5q14 0 41 -18.5t27 -30.5zM127 -362l-125 20v33l125 -21v-32zM743 1239l-12 31l-33 -15l17 -30zM408 49v31h-52v-31h52z" />
<glyph unicode="K" horiz-adv-x="1206" d="M1120 -371l-10 -26l-63 22v29zM1210 1612l-106 20v33l106 -20v-33zM1020 1612l-182 20v33l182 -20v-33zM811 1610l-88 22v33l88 -23v-32zM698 1612l-221 18v35l221 -20v-33zM381 1640l-10 -28l-64 24v27zM283 1653q-25 -33 -78 -33q-14 0 -44 3t-42 3v27h164zM78 1640 l-10 -28l-64 24v27zM1079 1538q-57 -96 -297 -436q-264 -373 -288 -373h-37q-14 2 -23 0q-8 -2 -16 -10q47 -66 94 -131q63 -86 123 -144q8 8 37 9q84 0 84 -25q-111 14 -111 -41q0 -59 303 -438q-8 -4 -57 0q-45 2 -57 -8q18 -18 49 -29q25 -8 24 -23q0 -8 -6 -20 q127 -37 160 -96q0 -8 -10.5 -32t-10.5 -34h-71q0 10 20 21q29 14 35 20q-84 8 -264 35q0 29 74 102q-41 84 -105 84q-27 0 -50.5 -8t-29.5 -8q-31 57 -82 129q-74 104 -88 125q-6 25 45 127q-2 14 -18 -4q-45 23 -129 22v-198q2 -131 2 -197q-4 -6 -10 -6t-26.5 9t-39.5 9 q-20 0 -20 -10q0 -2 2 -8t2 -8q0 -10 -21 -11q-20 0 -66 20.5t-65 20.5q0 10 21 33q27 31 28 35q8 23 -2 49q-6 43 -6 78q0 45 16.5 88t16.5 63t-26.5 57.5t-26.5 57.5q0 123 13 379t13 379q0 25 -3 96.5t-3 112.5q0 55 -41 139h242q2 -31 2 -70q0 -47 -7 -147t-7 -149 q0 -109 26 -181q127 164 387 482q-78 23 -143 12l-84 29q145 22 528 22zM473 573q-61 6 -262 7q0 20 27.5 48.5t33.5 43.5q25 -16 101 -47q69 -27 100 -52zM723 43l-76 -23v29l66 23zM1006 -371l-11 -26l-63 22v29zM565 -399l-88 22v33l88 -23v-32zM375 -236q-16 0 -50 -20 t-59 -20q-29 0 -58.5 20t-35.5 20l25 111l43 -39q47 18 135 76v-148zM111 -399l-109 20v33l109 -21v-32zM735 1212v33l-88 23v-33zM717 1063v33h-51v-33h51zM1196 444l-74 25v-29l64 -22zM256 1079v0v0v0z" />
<glyph unicode="L" horiz-adv-x="833" d="M774 1612l-448 18v35l448 -20v-33zM606 1516l-88 -29q-41 41 -41 55zM281 1612l-277 18v35l277 -20v-33zM100 1024l-24 -51l-27 12l25 47zM778 -190q-25 -41 -84 -41q-18 0 -55 4t-55 4q-76 0 -95 -70q-10 -2 -32 19q-29 23 -51 28q-49 14 -146 19q-115 4 -164 12 q12 23 25 45q18 35 18 61q0 49 -61 82q-4 37 55 66q-6 20 -12 96q-6 66 -21 92q31 29 31 72q0 66 -55 131q0 31 41 31q2 59 2 219q0 6 -9.5 39t-9.5 57q0 78 10.5 265.5t10.5 283.5q0 51 -2 94q-4 74 -62 84q78 39 240 39q27 -25 27 -94q0 -27 -5 -66q-4 -51 -4 -57 q-12 -217 -12 -332q0 -2 12.5 -186t10.5 -275q27 -12 71 -47h-45q-37 -43 -37 -108q0 -279 -8 -338q16 -16 31 -33q20 -23 20 -33q-14 -4 -30 -4q-12 0 -38 3t-38 3q-59 0 -100 -53q16 -16 16 -69q14 0 66.5 -8.5t78.5 -8.5q29 0 33 21q0 -6 0 34q57 -29 133 -36 q27 39 27 57q0 16 -35 28.5t-45 28.5q-55 -53 -64 -53q0 8 10.5 44t10.5 44h391v-70q-6 0 -25.5 17.5t-46.5 17.5q-86 0 -192 -69q0 -6 -3 -16.5t-3 -14.5q0 -12 26 -12q25 0 63 13t58 13q55 1 127 -73zM281 1042v33l-107 21v-33zM287 748l-76 24v-27l63 -24zM264 608 q-14 0 -38.5 24.5t-24.5 39.5q-45 -90 -45 -113q45 14 108 49z" />
<glyph unicode="M" horiz-adv-x="1853" d="M1868 961l-25 -50l-24 11l22 47zM1231 1249l-10 -26l-64 22v27zM1860 365l-125 20v31l125 -19v-32zM1206 997l-159 21v31l159 -19v-33zM784 1249l-12 -26l-61 22v27zM1341 575l-53 -22v27l43 22zM946 915h-88l21 70h67v-70zM891 997l-162 21v31l162 -19v-33zM1749 1010 h-57q0 -4 -11.5 -19.5t-11.5 -23.5q0 -18 43 -23q-29 -31 -35 -37q-20 -29 -20 -57v-129q29 -12 74 -43q-29 -18 -95 -39q-78 -23 -110 -39q0 -35 -19 -51q31 -37 68 -37q12 0 36.5 4t37.5 4q12 0 24 -2q0 -18 19.5 -56t19.5 -63q0 -14 -21.5 -53t-21.5 -57q0 -203 -10 -307 q-4 23 -8 48t-31 25t-50.5 -8t-29.5 -8q-10 -10 -16 -24.5t-17 -24.5q31 -37 68 -37q12 0 36.5 5t37.5 5q12 0 24 -4v-199h-198q-8 133 -11 316v456q0 184 -8 326q-72 -29 -72 -100q0 -41 31 -60q-20 -25 -43 -47q-35 -37 -59 -37q-23 0 -28 9.5t-28 9.5q-31 0 -68.5 -34 t-53.5 -64q20 -10 61 -11h64q25 0 40 -6q0 -6 -8 -40t-8 -54q43 -25 113 -21q-41 -23 -117 -36q-72 -59 -72 -121q-82 0 -110 -15q12 -12 92 -12q-57 -164 -152 -461h-139q-10 10 -37 27q-2 33 -78 213q-72 172 -71 231q-27 53 -54 105q-35 39 -155 53q20 31 39 31 q10 0 24 -8q14 6 41 32q4 10 -2 37q-8 35 -8 39q59 0 94 76q41 0 64 -53q10 12 19 23t22 11q51 -102 96 -327q-18 4 -37 -15q45 -20 119 -28q14 18 26 88q14 80 29 110q43 111 88 222q55 135 111 225v49q-39 23 -84 23q-25 0 -41 -9q0 10 8 36t8 36q82 0 99 -16q16 6 34 30 q37 59 101 187q-6 29 -8 67q47 98 129 291h178q12 -90 53 -248q-49 -49 -49 -129q0 -114 92 -157zM819 958q-6 0 -32.5 -7t-45.5 -7q-16 0 -30 6l-21 33zM1044 690l-10 -26l-63 22v27zM1432 203q0 -39 -50 -90q-4 29 15 45q-35 35 -35 45h70zM127 1221l-104 20v33l104 -21 v-32zM131 1026l-10 -27l-62 23v27zM778 616q-27 12 -82 9q-96 -8 -102 -9q0 -57 -12 -57q-49 98 -127 334q-2 0 -17 -35q-10 -20 -39 -20q-127 0 -139 -11q29 -27 84 -26q63 0 98 16q0 -12 -4 -32.5t-4 -28.5q0 -29 49 -54q0 -4 -19.5 -33.5t-19.5 -52.5q-10 0 -45 35 q-20 -23 -51 -33q-49 -16 -51 -18v-47q66 -33 100 -33q6 6 15.5 35t29.5 39q-6 -47 2 -102q10 -66 39 -89q0 -10 -20.5 -30.5t-22.5 -26.5q2 -6 2 -12q0 -12 -10 -43t-12 -41q-25 2 -66 -17q41 -12 119 -36q14 -29 49 -66q-31 -16 -65 19q-33 -55 -33 -189q0 -100 2 -201 h-182q12 55 12 144q-2 127 -2 143q-16 18 -27 59q-16 66 -18 68q-2 10 19.5 21.5t25.5 19.5q-16 27 -10 143q-23 10 -64 7q-61 -10 -63 -11q-20 35 -21 54h113q16 29 33 57q18 37 18 65q0 14 -18.5 63.5t-14.5 86.5q18 133 0 221q-2 25 -57 53v86h66v502q45 0 104 2h84 q88 -143 102 -266q10 -14 68 -14q0 -10 -53 -64q47 -53 86 -158q12 -29 59 -182q-39 2 -145 -35q25 -25 73 -24q27 0 55.5 8t35.5 8q26 -64 73 -201zM90 983q0 -8 -9 -33.5t-9 -34.5h-68v70l43 -35q35 33 43 33zM76 188l-10 -26l-62 22v27zM119 123l-25 -51l-26 12l24 47z M1528 1303l-10 26l-43 -22v-29zM1634 784v72q-49 -47 -80 -47q10 0 41 -12.5t39 -12.5zM1393 979v33h-68v-33h68zM1393 854q-59 -29 -109 -23q10 -4 53 -30q27 -16 37 -17q0 8 9.5 29t9.5 41zM1636 217v31h-51v-31h51zM408 1389v32h-52v-32h52zM1188 291v33h-123v-33h123z M444 979v33h-106v-33h106zM854 291v33h-51v-33h51zM1040 -35v70h-67l-12 -39q9 -31 79 -31zM930 49h-72q45 -45 45 -59q0 32 27 59zM369 291v33h-86v-33h86z" />
<glyph unicode="N" horiz-adv-x="1554" d="M1153 1640l-12 -28l-66 24v29zM1489 920h-33v53h33v-53zM1479 987l-150 21v32l150 -20v-33zM1425 666l-10 -29l-65 22v29zM1030 985l-90 23v34l90 -24v-33zM991 899q-6 0 -30.5 20.5t-47.5 20.5q0 -41 -32 -41q0 10 19.5 37t19.5 37q18 0 44.5 -23.5t26.5 -50.5z M1489 381l-25 -51l-28 12l24 49zM1430 381l-25 -51l-27 12l25 49zM815 987l-149 21v32l149 -20v-33zM977 666l-10 -29l-66 22v29zM1450 70l-25 -52l-28 11l24 51zM1362 934q0 -10 -23 -27q-33 -25 -47 -43q-4 -20 4 -51q10 -37 11 -59v-125q-35 -10 -70 -19q-47 -16 -86 -55 q12 -25 44 -40t60 -28q10 10 14.5 33t14.5 23q0 -57 31 -124t31 -69q0 -18 -31 -87.5t-35 -96.5q4 -84 4 -475h-188q-4 16 -74 137q-61 104 -61 147q0 23 14 33q-33 12 -115 96v70h103q8 8 10 33q0 18 -2 35q2 18 8 34q-66 -29 -66 -77h-92q0 10 21 22q29 14 37 23 q-133 88 -177 88q-29 0 -49 -8.5t-26 -8.5v74q68 -16 96 -4q-33 84 -107 213q-82 139 -106 199q55 -27 139 -37q35 35 35 45q-35 12 -96 16l-94 4q-23 27 -46.5 53.5t-48.5 39.5q-45 -20 -45 -170q0 -27 2 -78.5t2 -75.5q0 -55 -6 -86q-23 45 -2 67q-8 10 -18 23q-8 6 -39 6 t-48.5 -17.5t-31.5 -33.5q0 -31 -2 -21q2 -6 33 -6q20 0 62 -21.5t63 -21.5q-2 -10 14 -141q2 -10 -17.5 -56t-19.5 -71q0 -49 64 -65q-35 -47 -41 -146v-158q-2 -96 -23 -155h-110q0 12 18 43q-43 0 -54.5 -19.5t-41.5 -23.5v1192q-35 35 -70 35q-27 0 -37 -9.5t-28 -9.5 q0 10 -10.5 37t-10.5 37q35 0 76 -9.5t45 -9.5l33 31q-39 10 -97 45h82q27 68 27 170q0 86 -45 119q29 59 29 125q0 41 -15 69q47 47 127 48q57 0 84 -11q84 -131 90 -141q51 -84 80 -156q33 -82 96.5 -189.5t77.5 -107.5q57 0 107 -28q-6 -6 -42 -14.5t-55 -26.5 q47 -74 113 -203q23 -4 59 -4q0 -10 -9 -46t-9 -46q-6 0 -26.5 18.5t-49.5 18.5q-25 0 -31 -19.5t-30 -19.5q-4 0 -25 6q-12 4 -12 -6q0 -31 20 -51q16 -12 33 -23q59 -10 119 -20q106 -25 133 -76q10 -16 21 -33q14 -23 14 -41q0 -10 -2 -18q10 -27 39 -72q0 41 14 170 q14 119 12 190q-25 37 -51 37q16 14 30.5 28.5t14.5 39.5q0 16 -4 41q49 0 154 35q-2 2 -15 30q-6 16 -34 17q-20 0 -42 -19.5t-42 -19.5q-43 129 -43 164q0 129 43 594h166q47 -39 47 -72q0 -12 -7.5 -37t-9.5 -37q6 -47 6 -153q4 -8 -13 -31t-17 -49q0 -6 20.5 -41 t20.5 -80q0 -33 -11 -74q21 -51 64 -51zM705 76l-58 -25v29l45 24zM641 109l-111 20v35l111 -21v-34zM115 336h-95l23 53q47 0 72 -53zM821 -369l-12 -28l-64 24v29zM1167 969v32h-53v-32h53zM543 967v34h-72v-34h72zM1245 150v32h-53v-32h53zM328 764v53h-90v-53h90z M1245 -94l-20 74q-6 0 -25.5 -19.5t-48.5 -19.5q-20 0 -46 9t-69 9q0 -18 -20 -51q88 0 102 -45q25 23 74 35q41 10 53 8zM338 -29l-29 11l-24 -50l28 -12zM274 -20l-10 26l-47 -22v-29z" />
<glyph unicode="O" horiz-adv-x="1644" d="M1546 1630h-88v35h88v-35zM1202 1630h-51v35h51v-35zM1647 1057q-20 -10 -80 -21q-68 -14 -94 -22q49 -47 55 -47q0 -121 -6 -262q-2 -66 6 -76q-41 0 -71 7t-50 7q-31 0 -49.5 -25.5t-18.5 -56.5q29 -14 115 -14q29 0 40 17.5t17 17.5q-10 -18 -10 -72q0 -59 -8 -84 q4 -6 35 -25q18 -12 18 -24q-61 6 -88.5 -33t-23.5 -100q-92 6 -113 -11q18 -10 65.5 -17t67.5 -17q0 -10 -24.5 -25.5t-28.5 -23.5q-129 -207 -205 -283q-63 -66 -233 -119q-78 -25 -197 -24q-104 0 -150 26q-29 16 -79 86q-43 61 -68 62q-20 0 -20 -7q2 -4 2 -8 q0 -6 -21 -6q-25 0 -59 41q-47 55 -56 62q-16 12 -59 100q-35 70 -78 70q-10 0 -20 -3q0 23 22.5 42.5t48.5 41.5q-33 18 -79 91q-37 55 -76 55q-18 0 -43 -8q-8 2 -8 12q0 18 14 18q6 0 10 -4q16 16 70 17q-6 70 0 256q-49 14 -117 47q43 0 82 8q33 33 43 135 q10 123 31 170q-47 -20 -64 -94h-69v72q47 0 47 -19l26 31q-2 2 -35 24q-20 14 -20 39q6 0 30.5 -8t53.5 -8q70 0 108 96q20 61 41 121q96 133 222 219q139 98 260 98q367 0 504 -227q10 -4 96 -4q0 -12 -37 -49q0 -12 20 -23q14 -6 29 -12q-6 -27 -6 -72q39 -27 90 -145 q60 -10 195 -10zM231 1276l-10 -27l-65 23v28zM1032 1434l-47 51q-16 -16 -27 -51h74zM1339 537q-20 20 -36 69q-20 61 -35 84q31 51 30 135q0 66 -26 95q-49 57 -49 104q-78 -6 -113 14q10 20 33.5 33.5t23.5 22.5q-8 68 -45 100q-16 14 -73 39q-49 23 -72 51q27 27 27 29 l-10 3q-11 3 -11 19q0 12 6 35q-27 -47 -80 -59q-31 -8 -100.5 -4t-99.5 -2q25 -10 24 -25q0 -14 -27.5 -28.5t-35.5 -14.5q-25 0 -29 9t-29 9q-27 0 -91 -74.5t-79 -111.5q57 0 58 -29q-39 -27 -117 -20q23 -16 23 -39q0 -49 -81 -103.5t-132 -50.5q37 -12 72.5 -25.5 t53.5 -37.5q8 -168 -20 -234q74 -137 123 -276q-35 -16 -19 -27q49 -2 105 -69q74 -90 90 -101q10 -8 80 -39q51 -25 55 -45q37 29 152.5 52.5t154.5 50.5q27 16 70 74q41 51 70 65q10 -2 20 -2q16 0 42 10t40 8q-55 0 -76 21q23 78 47 154q33 102 86 131zM1241 47h-72 q0 -37 -26 -37q-37 37 -49 37v-90q6 0 30.5 17.5t53.5 17.5q63 0 63 55zM991 -53v35h-69v-35h69zM285 618q-20 0 -52 20.5t-38 20.5q0 -41 -41 -41q10 -10 23 -44.5t22 -45.5q55 27 86 90zM571 -43q-45 90 -90 90v-70zM360 195v32l-108 21v-33zM1204 934h-71v70q36 0 71 -70 zM1049 1018l-109 20v33l109 -20v-33zM1071 934h-110v70q42 0 110 -70zM819 932q-31 14 -63.5 30.5t-44.5 41.5l90 -19q18 -35 18 -53zM705 1018l-127 20v33l127 -20v-33zM920 702l-11 -28l-63 24v27zM1204 381q-6 0 -47 -11.5t-61 -11.5v74q45 -16 108 -51zM504 934h-33v70 h33v-70zM958 395l-10 -26l-63 22v29zM1059 129h-33v51h33v-51zM782 379h-104q-74 2 -103 2q35 37 91 33q82 -4 92 0q24 -19 24 -35zM729 184l-10 -26l-66 22v29zM475 379h-72l48 53q24 -37 24 -53z" />
<glyph unicode="P" horiz-adv-x="1093" d="M113 -399l-109 22v33l109 -21v-34zM606 1640l-10 -28l-66 24v29zM1171 1016l-10 -29l-65 25v28zM1151 924q-29 -29 -64 -21q-16 -10 -45 -51q-23 -33 -47 -33q-131 0 -178 -16q0 -43 51 -43q20 0 41 19.5t47 19.5l48 -19q10 12 22 6q-12 -74 -162 -239q0 39 -55 39 q-25 0 -39 -19.5t-39 -19.5q-20 0 -46 19.5t-50 19.5q-59 0 -90 -21l-49 39q-90 -29 -211 0l-31 -29q4 -6 10 -40q6 -27 29 -27q31 0 31 12q0 2 -3.5 11.5t-3.5 13.5q29 -29 86.5 -52.5t94.5 -23.5q25 0 39 9t38 9q55 0 144 19v-74h-293q0 -76 -2 -248t-2 -262 q-16 23 -98 60q-10 -10 -15.5 -34t-15.5 -34q35 -20 133 -14l-20 -209h-189l-2 626q-49 12 -137 48q23 -4 41 -5q63 0 88 50q39 78 47 86q-18 14 -37 14q6 94 -37 149q53 53 53 150q0 20 -28.5 70.5t-28.5 70.5l39 35q-39 10 -96 45h88v529h502q33 2 102.5 -45.5 t114.5 -100.5q41 -45 78 -135q43 -111 61 -141q2 -47 4 -94.5t72 -77.5q10 -25 10 -41zM360 791v0v0v0zM1020 133l-25 -76l-26 11l22 65h29zM80 1016l-10 -29l-66 25v28zM729 70l-27 -52l-26 11l24 51zM1030 969v32h-51v-32h51zM840 985q0 39 -37 178q-8 16 -49 45t-52 49 q39 39 9 70q-25 -37 -69 -64.5t-87 -54.5q-25 20 -51.5 40t-48.5 20q-20 -20 -25 -47q0 -113 31 -220q4 -10 4 -22q0 -33 -27.5 -89t-27.5 -71q0 -55 47 -98q29 8 65 8q78 0 154 -27q41 51 94 97q41 35 53 59q17 37 17 127zM776 987l-188 21v32l188 -20v-33zM780 946 q-47 -47 -94 -47v74q67 0 94 -27zM641 973q0 -33 -43 -76q-12 0 -22.5 13.5t-20.5 25.5l-47 -14q76 51 133 51z" />
<glyph unicode="Q" horiz-adv-x="1533" d="M858 6q-6 6 -127 74q-84 45 -90 94q-10 8 -59 19q-63 10 -84 18q0 8 6 27.5t6 27.5q-20 -39 -82 -100q33 0 53 -10q0 -63 66 -99q16 -43 -12 -69q49 8 165.5 9t157.5 9zM408 242v30h-119v-30h119zM1493 918l-119 20v31l119 -19v-32zM406 1487l-82 22v31l82 -22v-31z M1466 324h-30v65h30v-65zM1460 903q-74 -68 -78 -127q25 -37 25 -133q0 -152 -35 -170q14 -12 31 -12q8 -47 -19 -139q-20 -59 -41 -119q-12 2 -32 -15q4 -8 4 -26q0 -80 -51 -121q0 -23 69 -27q0 -27 -69 -61q-6 -8 10 -25q27 12 151 13q-27 18 -71 55h86v-262h-164 q-23 0 -95.5 44t-95.5 44q-20 0 -84.5 -44t-85 -44t-100.5 -9.5t-102 -9.5q-20 0 -70.5 17.5t-73.5 17.5q-45 0 -98 107q-16 -14 -59 -15q0 31 37 31q0 6 4 40t4 54q0 49 -23 68q-41 -16 -41 -27q0 -6 12.5 -21.5t14.5 -29.5q-16 -33 -17 -63q-6 12 -49 57t-59 82 q-12 14 -68 47q-43 25 -43 45q0 27 66 63q-10 10 -51 11q0 6 6 23.5t6 27.5t-8 16q8 -16 -33 -16q-25 0 -41 24.5t-35 51.5q-2 10 6 20q16 18 19 21q-18 47 0 104q-31 -4 -31 37q0 12 20.5 164.5t20.5 222.5q8 8 18 23q-2 25 47.5 98.5t49.5 113.5q0 20 -13 39q12 2 39 9 q147 182 254 235q94 47 277 47q86 0 174 -43q59 -29 155 -114q76 -66 152 -134q0 -4 -9 -17t-9 -40q0 -18 59 -119.5t84 -101.5t36 6t17 6zM113 901l-23 -47l-24 10l22 45zM768 -319l-10 -25l-60 20v27zM41 367l-23 -48l-24 11l22 45zM1315 901v31h-101v-31h101zM793 1327v0 v0v0zM1069 625l-70 22v-26l62 -21zM727 905h-100v-65h40.5h43.5q0 8 8 32.5t8 32.5zM594 840v65h-31v-65h31zM1137 313v29l-84 23v-31zM1229 596q0 145 -43 219q-25 35 -56 100q-12 2 -40 23q6 29 6 68q-23 12 -34 34.5t-7 32.5q-55 29 -148 94q18 16 17 39q-37 4 -41 -19.5 t-6 -47.5l-76 14q14 27 53 35h-246q6 -35 -42 -60.5t-97 -52.5q-35 -102 -94 -157q37 -37 37 -50q-25 -6 -66 -37.5t-59 -31.5v-156q53 0 53 -22q-23 -8 -62.5 -38t-64.5 -30q-18 0 -18 8q0 4 2 8v9q0 10 -19 10q-20 0 -20 -21q0 -8 4 -28.5t4 -32.5t-4 -23h143 q0 -8 9.5 -35.5t9.5 -35.5q102 33 174 32q82 0 207 -38q135 -41 161 -84q2 37 47 36q20 0 33 -8l17 -12q-31 -23 -91 -23q12 -10 76 -86q41 -51 74 -67h61q4 12 70 160q45 96 45 145q0 35 -18 59q16 6 34 19q0 6 7.5 16t7.5 35zM1210 -47q-16 20 -34 39q-27 27 -54 26 q-27 0 -32 -12q-12 -25 -13 -24l-41 34l-6 -17t-33 -17t-32 12q-12 25 -13 24q-41 -43 -41 -88q37 0 56 -18q6 0 18 26.5t39 26.5q6 0 41 -15.5t68 -15.5q36 1 77 19zM655 225v31h-47v-31h47zM674 -78v31h-47v-31h47zM711 1305h-70l45 49q25 -35 25 -49zM731 1159l-10 -26 l-59 22v27zM1370 496q-23 -12 -121 -13q0 31 9.5 65t9.5 38q84 -41 102 -90zM958 920l-206 18v31l206 -19v-30zM905 840q-10 0 -45 32q-20 0 -90 -34q0 35 37 69h98v-67zM1434 133v0v0v0zM1315 242h-66v30h66v-30zM567 918l-84 20v31l84 -21v-30zM584 598l-119 18v31 l119 -18v-31z" />
<glyph unicode="R" horiz-adv-x="1372" d="M377 -37h-70v33h70v-33zM1329 1032l-10 -26l-64 22v29zM1362 920h-70q0 16 28 43.5t42 27.5v-71zM666 1640l-11 -28l-63 24v27zM1268 969h-70v32h70v-32zM1366 375q-27 -8 -61 -10q-25 0 -68 3t-59 3q0 14 26.5 33.5t57.5 19.5q53 0 104 -49zM604 1004l-108 20v35 l108 -23v-32zM1155 401q0 -10 -43 -51q-12 0 -30.5 17.5t-18.5 38.5q0 8 4 18zM1176 1004q0 -41 -21 -134q-27 -115 -63 -194q-31 -43 -86 -137q-6 12 -5 41q4 45 5 41l-29 32q-14 -20 -14 -37q-18 10 -68 7q-92 -4 -135 -5q10 20 47 60q29 33 29 49t-21 33q16 0 47 -31 q10 6 53 92q10 0 20.5 -12t20.5 -25q14 18 15 37h63q14 0 15 2q0 4 -97 25q-16 35 -53 94q-23 -6 -65 23q10 10 40 18q39 10 56 18q-72 18 -248 19q100 49 190 49q4 0 19 -2h14q4 4 4 12q0 123 -168 166q14 41 15 55q0 18 -8 35q-29 -31 -58 -61q-35 -33 -63 -33 q-23 0 -49.5 18.5t-55.5 18.5q-68 0 -90 -10q-35 -16 -35 -66q0 -227 39 -227q20 0 21 4q0 4 -2 6v4t18 4t19 -8q0 -2 -3.5 -10t-3.5 -10q0 -8 17 -9q25 0 30 18.5t27 18.5q25 0 39 -19.5t33 -19.5q16 25 20 27v-2q0 -16 -30 -59q-6 0 -43 36q-59 -37 -148 -36 q-27 -33 -27 -107q0 -57 29 -197h-135l-31 -30q10 -16 21.5 -31.5t44.5 -15.5q29 0 63 20q27 18 56 35q0 -41 -54 -68q4 -10 19 -61q10 -37 30 -59q23 10 27 36.5t8 53.5q33 25 66 47q49 33 80 32q23 0 65.5 -27.5t65.5 -27.5q25 0 24.5 18.5t22.5 18.5q20 0 83.5 -20.5 t94.5 -20.5q0 -12 -55 -65q0 -10 18.5 -40t18.5 -40q-33 0 -64 8t-35 8q-10 -8 -25.5 -14t-25.5 -15q27 -55 53 -110q45 -88 70 -88q29 0 34 8t11 8q0 -10 -35 -45q41 -41 31 -94q4 -8 28.5 -22.5t34.5 -28.5q-29 -2 -75 -25l47 -49q16 20 16 39q96 -98 125 -197 q-37 4 -68 4q-51 0 -88.5 -8t-50.5 -8q-33 0 -168 198.5t-135 237.5q0 29 21 33q33 10 36 12q-18 14 -36 15q0 57 34 47q12 -10 39 16q-4 6 -10 12h-8q-12 -2 -29 -2q-45 0 -74 -57q-31 39 -100 115h-86q-4 -41 -11 -86t-42 -60q33 -31 76 -30q-43 -49 -43 -185q0 -31 3 -93 t3 -91q0 -35 -2 -60q-27 -10 -88 -10q-68 -2 -97 -10q0 23 -16 71t-16 68q0 51 67 78q-59 20 -59 80v27q2 18 2 26q0 49 -37 70q0 6 27.5 17.5t27.5 35.5q0 25 -20 70q-16 39 -33 75q-61 8 -174 25q78 18 123 19q104 0 104 124v109q-33 35 -73 35q0 10 20 24q31 18 35 25 v276q-29 12 -76 48h60v509q207 6 317 7q213 0 143 2q125 -4 187 -29q23 -10 61.5 -55t81.5 -60q68 -104 130.5 -242t62.5 -175zM575 643l-24 -49l-27 10l25 49zM115 1032l-11 -26l-63 22v29zM63 985l-24 -51l-27 12l25 49zM158 188l-25 -49l-27 11l25 49zM760 1427l-10 29 l-45 -24v-27zM836 1296l-11 27l-45 -23v-28zM662 1423v33h-52v-33h52zM324 821l-11 27l-45 -23v-26zM319 285v32h-51v-32h51zM104 113v0v0v0z" />
<glyph unicode="S" horiz-adv-x="1329" d="M1255 1044l-26 -51l-27 13l25 49zM1053 944q-14 0 -27.5 -14.5t-13.5 -30.5q-12 0 -37 29q-18 20 -37 43zM1249 666l-10 -29l-65 22v29zM1053 1262q-37 -31 -37 -82q0 -33 17.5 -95.5t17.5 -87.5h-287q0 6 27.5 18.5t27.5 37.5q0 27 -10 63q-14 53 -16 60q-35 55 -68 55 q0 6 18.5 30.5t12.5 47.5q-29 -14 -70 -19q-33 -4 -63 -6q0 -27 -23 -45q-53 -41 -74 -63v-129q16 -16 95 -17q0 -10 -21 -20q-29 -16 -35 -23q29 -14 115 -14q0 -53 -8 -68q-14 0 -47 -18q6 -6 36.5 -28.5t40.5 -33.5q-78 0 -155 -2q-90 0 -150 -43q-68 104 -143 121v121 q0 23 6 25l12 -5q8 -4 15 5q14 190 94 342q92 176 233 190h66q0 -70 14 -96q8 8 10.5 17t2.5 26q-2 25 -2 33h83q57 2 139.5 -155t76.5 -157q29 0 36 7.5t13 7.5zM256 1249l-12 -26l-66 22v29zM1032 676q-80 -90 -114 -90q-25 0 -93.5 19.5t-93.5 19.5t-34 -30t-33 -30 q-74 0 -148 70q-96 92 -106 96q12 6 51 41q31 27 55 27q25 0 25 -19.5t24 -19.5h160v57h63q14 2 97.5 -67.5t146.5 -73.5zM231 987l-188 21v32l188 -20v-33zM211 899h-72v74h72v-74zM797 324l-111 20v35l111 -23v-32zM1239 356h-113q-63 -88 -63 -139q0 -45 47 -67 q-43 -111 -70 -170q-49 -104 -94 -166q-23 -33 -83 -79t-83.5 -46t-62.5 -10.5t-64 -10.5t-56.5 14.5t-43.5 14.5q-4 18 12 37q-14 2 -19 -3t-26 -42q-199 94 -305 461q18 10 67.5 19t67.5 17q-10 12 -74 13q0 25 37 61q-2 0 -14 3t-23 3q-31 0 -51 -33q-20 23 -20 43 q0 14 10 25q-37 25 -97.5 37t-117.5 22q78 10 240.5 14.5t240.5 14.5q45 -45 45 -51q-10 -10 -22 -10q-23 0 -45 22q-49 -47 -49 -106q0 -35 75 -154v-88q-25 2 -67 -18q-35 -18 -68 -37q0 -27 2 -31q6 -14 37 -14q102 0 197 14q-29 20 -76 82q72 -37 143 -37q84 0 187 145 q-8 6 -37 23q-20 12 -21 25q63 0 154 32q-10 12 -76 13q0 6 9.5 30.5t9.5 53.5q0 43 -54 59q6 12 6 33q0 55 -30 106q51 6 102 15q82 14 105 49q0 -37 28 -101q33 -74 66 -73q10 -1 137 -15zM485 1397v33h-53v-33h53zM1055 252l-11 29l-47 -25v-29zM956 -29q-18 18 -47 29 q-29 0 -28 -76q28 0 75 47z" />
<glyph unicode="T" horiz-adv-x="1380" d="M1229 1001h-252q16 45 31 46q6 0 20 -9q121 -6 201 -37zM1401 635l-209 20v35l209 -20v-35zM1167 635l-92 22v33l92 -22v-33zM1169 922q-82 -31 -198 -19q6 8 6 17q0 16 -31 16q-25 0 -35 -19.5t-32 -19.5q-25 0 -30 10.5t-30 10.5t-63.5 -49.5t-63.5 -49.5 q-16 0 -34.5 6t-26.5 6q-12 0 -27 -8v-49q-16 -14 31 -14q43 0 121 39q12 -51 -15 -105q10 -10 39 -23.5t37 -21.5q-20 4 -49 -20q-39 -37 -41 -39q-33 2 -109 -12q-14 -25 -57 -70q-6 45 -12 72q-12 49 -37 79q10 12 29 66q20 63 20 109q0 70 -51 65q0 49 37 84 q-49 12 -117 47h84q43 35 43 92q0 33 -16 80q-12 33 -25 66q-12 -18 -12 -37q-4 0 -25.5 18.5t-48.5 18.5q-33 0 -38 -7.5t-5 -29.5q-6 0 -16.5 18.5t-38.5 18.5q-68 0 -76 2q-41 8 -41 47q0 14 5 73.5t5 94.5q0 43 -6 71q131 -10 305 -8q362 8 584 8q-12 -35 -16 -98 q-4 -49 -7 -100q27 6 25 -39v-88q-8 0 -45 37q-14 -18 -14 -37q-8 0 -45 37q-14 -18 -15 -37q-6 0 -16 18.5t-39 18.5h-160q-35 -66 -35 -99q0 -25 9.5 -63.5t9.5 -56.5q49 -14 137 -48q-84 6 -137 -16q100 -37 182 -18q-6 -8 -6 -15q0 -16 29 -16q23 0 22 10q0 4 -2 10.5 t-2 8.5q0 10 21 10q25 0 29.5 -19.5t29.5 -19.5q29 0 53.5 18.5t30.5 18.5q22 -35 22 -51zM1323 313q-80 25 -80 52q0 10 10 22h70v-74zM446 973q0 -10 -19 -37t-19 -37q-10 0 -48 37q-35 -37 -45 -37q0 10 19.5 37t19.5 37h92zM211 985l-90 23v34l90 -24v-33zM156 971 l-27 -35q-16 0 -42 11t-26 24h95zM975 352q-27 -14 -76 -14h-21.5h-19.5q-102 0 -102 -102q0 -16 2 -37q-63 0 -76 -13q49 -10 117 -39q-20 -41 -21 -122q-39 -23 -139 -23q-25 -51 -25 -72q0 -29 29 -28q80 0 98 78q18 -145 19 -267q-10 -10 -64 -10q-90 0 -166 -10 q27 39 27 139q0 74 -15.5 187.5t-15.5 117.5q0 45 99 119q-10 12 -25 12q-10 0 -27.5 -6t-23.5 -6q0 -18 -6 109q-4 74 8 120q78 -4 156 25q8 6 26 33q14 20 25 20q0 -29 -37 -63q16 -8 37 -49q27 -49 55 -76q56 -7 162 -23zM406 324l-91 22v33l91 -23v-32zM293 360 l-113 -26v53zM80 352l-10 -26l-66 22v29zM182 88l-24 -51l-29 12l25 49zM236 -369l-11 -28l-65 24v29zM543 1417v33h-51v-33h51z" />
<glyph unicode="U" horiz-adv-x="1202" d="M1040 598q-29 0 -61 35q-25 -18 -68 -70h-84l19 29v639q-33 20 -82 37q-76 23 -82 24h133q14 16 21 70q6 43 26 43q27 0 40 -10.5t18 -10.5q14 8 14 27l-27 29q-16 -14 -59 -15q0 8 -9.5 42t-9.5 42l27 5q27 4 62 4q49 0 122 -9v-911zM1200 346h-63q-6 18 -31 53 q-10 -20 -23 -43q-8 -12 -26 -12q-8 0 -21 2q-8 -12 -8 -27q0 -8 5 -25.5t5 -27.5q0 -31 -51 -61q0 -53 72 -72q-27 -41 -58 -35q-82 -100 -251 -274q-31 -2 -60 53q-37 -37 -37 -53q0 -12 11 -33h-123q2 16 2 88q-8 -4 -47 -33q-29 -23 -56 -22q-37 0 -188 151 q8 16 35.5 36t36.5 36q-8 10 -17.5 19.5t-36.5 9.5q-20 0 -25 -5t-3 -14q4 -14 4 -16q-55 70 -84 70q-27 0 -36 -7.5t-15 -7.5q0 29 69 66v47q-14 47 -82 59q-49 10 -98 19h113q33 37 32 45q-61 33 -141 33v69l43 -35q23 8 48.5 17.5t41.5 29.5q4 39 2 207q0 127 17 207 q8 23 -25 33q2 10 18.5 43t16.5 49q0 29 -39 47q6 53 53 76q-16 12 -35 12q0 100 -12 142q-18 -18 -61 10q70 23 75 51q-6 16 -2 94q4 63 -34 109q197 2 266 -21q-55 -47 -60 -92q35 -168 17 -377q-2 -27 -64 -90q10 -10 52 -10q0 12 6 -154q4 -100 -6 -166h-84 q-49 -2 -76 -47q20 -55 86 -55q16 0 47 4t43 4q0 -45 -14 -61q63 -61 125 -62q27 0 37 7.5t14 7.5q0 -8 -9.5 -33t-9.5 -33q18 -4 -86 -4q-25 0 -24 16q0 4 2 13v10q0 10 -4 16q-10 -10 -14.5 -32.5t-12.5 -32.5q25 -55 88 -55q16 0 49 4t49 4t29 -4q-45 -25 -182 -25 q0 -4 -8.5 -25.5t-8.5 -54.5q29 -14 107 -74q59 -47 86 -47h65q10 10 7 35q-8 35 -9 35q47 0 142 18q80 14 159 31q-25 14 -104 10q-6 84 14 131q-31 63 -98 64q-18 0 -71.5 -17.5t-73.5 -15.5h-60q63 57 185 58q37 0 71 -9q16 18 31 37q27 31 27 58q0 14 -9 30h193 q4 -10 10 -76q4 -47 31 -47q20 0 24.5 4.5t1.5 14.5q-4 12 -4 16q8 -8 117 -57v-31zM772 264q-16 0 -63 -13t-72 -13q-59 0 -59 51zM88 88q-25 -12 -88 55h70q0 -8 9 -23.5t9 -31.5zM1004 1092v32h-103v-32h103zM971 864l-8 27l-43 -23v-26zM285 1112v31l-84 -21v-30z M737 29q-12 20 -43 39q-39 20 -43 24q43 -88 62 -84zM338 158v30h-66v-30h66z" />
<glyph unicode="V" horiz-adv-x="1470" d="M891 1479l-8 -25l-60 21v26zM1333 1511q-6 -57 -12 -112q-14 -68 -57 -90q29 -29 51 -29q0 -10 -19 -25q-25 -16 -28 -22q-27 -57 -37 -74q-25 -33 -74 -63q16 -12 35 -13v-61q0 -18 -11.5 -53t-11.5 -51q0 -12 7 -21q-43 -18 -125 -53l28 -25q25 14 41 15 q-18 -66 -18 -78q0 -10 10 -19q16 -14 27 -35q-74 -66 -74 -94q-129 29 -188 -2q0 6 -11.5 36t-11.5 52q0 51 80 105q59 39 100 49q-23 27 -88 26q0 72 45 99q-10 25 -10 51q0 43 29 104q33 72 34 76q4 45 31 146q33 16 101 49q-16 16 -70 12q0 8 -8 41t-8 41q-12 0 61 9 t182 9zM1452 348q0 27 -18 43q-8 -8 -25.5 -34.5t-26.5 -34.5q-14 4 -47 26q78 76 105 76q0 -8 6 -38t6 -38zM1296 340q-4 0 -9 17.5t-32 17.5q-14 0 -29.5 -5t-19.5 -5q-12 0 -30 18q10 10 45 20q43 16 57 23q0 -8 9 -42t9 -44zM1372 268l-10 -24l-59 20v27zM1157 362 l-67 -22v84q34 -1 67 -62zM623 694q0 -41 -23 -88q2 16 -39 17q-23 0 -22 -17v0q0 -18 -23 -18q-14 0 -46 12t-48 12q-14 0 -25 -6q-20 117 -32 172q-23 102 -50 172q-16 37 -61 88q-2 10 6 27q10 25 12 27q-35 29 -4 90q-66 39 -106 184q31 10 88 16q78 8 88 11 q-4 6 -29 24q-29 -6 -71.5 0t-81.5 13q-12 16 -25 32q-16 27 -12 49q272 -25 344 -20q-10 -10 -49 -21q-70 -20 -76 -22q35 -53 64.5 -152.5t33.5 -183.5q-12 0 -45 -16q31 -31 88 -31q-8 -57 6 -92q16 -53 54 -160q6 -18 49 -59q35 -35 35 -60zM1354 100q-51 -27 -176 -26 l18 67h98q44 -41 60 -41zM1124 268l-10 -24l-59 20v27zM1159 109l-10 -27l-59 22v27zM1075 135l-24 -47l-25 10l23 45zM1004 135l-23 -47l-27 10l23 45zM1067 342q-14 0 -47 33q-14 -2 -27 -29q-16 -37 -30 -53q12 -12 51 -12q-2 -4 -53 -70q-43 -51 -43 -86q0 -14 8 -29 q-8 -6 -44 -14t-44 -19q16 -14 32 -14q-18 -76 -55 -225h-153q-20 70 -41 139q-29 84 -64 119q6 100 -35 137q-35 31 -129 37q33 8 105 55q-94 63 -133 64q-16 0 -17 -8q0 -4 4 -11.5t4 -9.5q0 -8 -18 -8q-25 0 -23 14.5t-4 22.5q-35 -35 -49 -35q-4 8 14 35q27 43 31 51 q10 0 19.5 -11.5t19.5 -23.5q12 16 12 33q4 0 32 -8t61 -8q10 18 4 51q-6 51 -6 55q4 0 75 -2h152q-16 2 -17 -41q0 -23 15.5 -48.5t32.5 -49.5q113 68 137 196q27 -45 78 -53q12 -2 90 -2q0 -33 20 -86q19 -43 35 -86zM532 74q-16 0 -44.5 19.5t-41.5 45.5h68q0 -8 9 -32.5 t9 -32.5zM193 340h-191v84q16 0 40 -16.5t46 -16.5q39 0 39 33h66v-84zM213 281q-25 -43 -96 -43q-25 0 -84 6l-13 37h193zM166 74h-31v65h31v-65zM84 72q-37 0 -84 47q10 0 42 11t42 11q12 -12 12 -35q0 -20 -12 -34zM1243 1372v66h-67zM1118 1079v31h-47v-31h47zM1106 946 l-70 21v-25l60 -22zM340 1212l-70 23v-27l60 -20zM371 1079v31h-66v-31h66zM500 856l-70 23v-27l59 -21zM389 938v29h-47v-29h47zM717 172l-27 29l-18 -19l26 -26zM639 154v30h-49v-30h49zM788 -129l-26 27l-19 -19l25 -26z" />
<glyph unicode="W" horiz-adv-x="1955" d="M2005 899l-172 45q20 10 72 14q63 6 100 15v-74zM1855 1556q-14 -31 -19 -95t-9 -124q12 -14 28 -47h-63q0 -35 -14.5 -123t-14.5 -133q0 -27 4 -47q0 -2 11.5 -33.5t11.5 -54.5q-27 0 -45 19q-35 -47 -109 -113q0 -16 12.5 -31.5t26.5 -15.5v-111q-39 -23 -78 -47 q-55 -35 -86 -35q-45 0 -86 25q0 72 31 123q20 37 55 65q29 23 29 21q0 31 -18 30q-4 0 -17.5 -4t-17.5 -4q-4 10 6 36t10 36q0 23 -33 31q-2 8 52 61q-10 10 -39 21.5t-39 21.5q57 -4 88 47q25 43 24 109q0 39 -10 67q37 92 53 142q29 88 43 163h213zM1446 1229l-12 -27 l-91 43l11 29zM2025 326l-75 24l10 27l65 -23v-28zM1325 999h-94l22 54q45 -1 72 -54zM1829 324l-90 22v33l90 -23v-32zM1796 57l-57 -24v28l47 23zM1657 362q-70 -49 -109 -186q-14 -51 -47 -262q-27 -160 -63 -223h-166q-6 35 -39 170q-23 104 -23 131v170q-61 66 -84 157 l-28 156q-31 102 -82 309q49 14 123 -24q10 10 25.5 24.5t25.5 22.5q-4 2 -100 29q-57 14 -86 61q-63 -49 -64 -147q0 -10 2 -31v-29q0 -53 -20 -76q-27 -29 -103 -28q-8 0 -55 8q-29 4 -57 -6q2 18 -16.5 47t-47.5 43h66q8 10 8 18q0 6 -5 19.5t-3 21.5q35 31 34 84 q0 16 -4 51t-4 50q0 41 25 61q-57 12 -156 47h137q20 2 25 -4l-2 -12q-4 -12 4 -19q31 90 66 275q39 197 67 289h168q25 -53 45 -150q16 -84 16 -129v-96q27 -20 68 -144q33 -104 80 -104q37 0 123 37q0 -18 -24.5 -47t-59.5 -29q-29 0 -48.5 10.5t-25.5 10.5q-8 -6 -14 -15 q0 2 0 -35t24.5 -104.5t53.5 -110.5q-23 -23 -23 -65h-86q-47 0 -86 -13q20 -10 26.5 -49t30.5 -39q25 0 35 19.5t35 19.5q23 0 23 -6q0 -2 -4.5 -9t-4.5 -13t4 -11q8 8 20.5 38t22.5 40q0 -14 7.5 -51t7.5 -55q0 -23 -8 -37l47 -51q20 76 80 108q16 10 106 33q59 16 80 53 q4 -14 -8 -57q-10 -51 -10 -74q0 -60 55 -72zM688 936l-20 -27l-68 45l16 29zM1100 362l-27 -53l-26 13l24 51zM586 1016q-31 -6 -99 -33q12 -12 58 -12q-10 -37 -28.5 -57.5t-18.5 -41.5q0 -18 8 -49q-61 0 -78 -18q0 -31 14 -45q10 0 31 18.5t31 18.5q0 -18 39 -209 q0 16 -45 16q-25 0 -49 -10q-33 -12 -44.5 -17.5t-11.5 -23.5q-2 -27 -12 -45q-12 12 -45 70q-29 49 -62 71q0 10 10.5 22.5t12.5 20.5q-18 51 35 117q-57 37 -80 135q-12 78 -25 156q-29 115 -59 229q-31 127 -29 230h189q63 -115 75 -295q10 -154 80 -228q31 -6 103 -20z M94 987l-90 23v32l90 -22v-33zM190 899q-66 23 -188 23q14 29 37 28q16 0 31 -14q78 39 114 39q10 0 11 -14q2 -10 0 -33q-5 -25 -5 -29zM1014 340q-20 -10 -45 -10q-35 0 -78 22q-152 -471 -158 -598q-6 -10 -53 -65h-131q-10 12 -37 45q6 70 -39 200q-47 139 -47 195 q0 29 8 55q-16 43 -31 88q-29 72 -71 66q41 35 41 145q51 12 102 27q66 14 84 35q0 -35 23 -86q16 -45 34 -88q20 20 39 61t35 53q27 20 82 21h82q37 -63 23 -103q49 -18 137 -63zM252 336q-31 -8 -72 -8q-31 0 -92 6t-88 6q76 14 229 49q23 -35 23 -53zM352 119l-10 -29 l-90 45l10 27zM274 -369l-10 -28l-65 24v29zM1663 1282l-29 29l-20 -19l26 -28zM1350 -57l-19 26l-57 -47l16 -26zM680 168v35h-92v-35h92zM678 -2q-41 -20 -84 -21q-27 0 -47 11q10 0 8 -25q-6 -45 -6 -39h127q12 10 8 37q-6 43 -6 37z" />
<glyph unicode="X" horiz-adv-x="1503" d="M1567 901h-33v72h33v-72zM1362 985l-90 23v34l90 -24v-33zM1227 901h-74q0 8 -19.5 35t-19.5 37q10 0 47 -37q35 37 45 37q0 -10 10.5 -37t10.5 -35zM1249 666l-10 -29l-65 22v29zM1556 334l-288 26q156 0 268 29q20 -37 20 -55zM1270 137l-13 -26l-63 22v29zM1305 1489 q2 -35 -115 -211q8 -8 37.5 -21.5t40.5 -21.5q-20 2 -39 2q-53 0 -82 -35q-16 -18 -35.5 -71.5t-40.5 -71.5q0 -10 23 -29q33 -27 36 -31h-81q-16 -45 -73.5 -142t-78.5 -161q49 -14 117 -49h-123l-33 -33q37 -37 37 -84q-10 0 -27 23q-25 31 -43 45q-139 27 -151 27 q-31 0 -44.5 -17.5t-25.5 -34.5q43 -86 88 -86q25 0 39 10.5t39 10.5q23 0 74 -12q63 -14 88 -17q35 -49 95 -166.5t94 -166t34 -80.5q0 -29 -29.5 -60t-29.5 -51q0 -14 10 -35q14 0 32.5 22.5t18.5 37.5q20 -31 148 -289h-162q-72 -2 -131 116q-41 88 -82 179 q-25 37 -51 73q-33 51 -33 80q0 31 33 47q-8 8 -37 23q-20 10 -21 20q16 6 45 25q14 -6 50 -48t67 -50q12 -8 31 10q-20 20 -70 37q-2 27 -20 71q-55 0 -85 -10t-48 -10q-23 0 -29 22q-10 35 -31 56q-27 -31 -51 -45q-37 -23 -76 -43q20 -14 39 -15q-31 -66 -31 -149 q0 -35 9 -57q-29 -2 -46 16q-51 -39 -51 -94q-27 0 -43 41q-8 8 -47 6t-53 8l-12 -12v-56q41 -37 118 -36q-6 -6 -59 -123q-39 -84 -106 -84q-41 0 -80 78q-10 -12 -11 -76h-73q41 137 135 321q154 299 158 305q-109 12 -334 56q57 -8 157 -6q147 2 179 2q8 23 45 54.5 t43 39.5q63 104 63 151q0 39 -29 68q-37 -35 -45 -35q0 10 35 47q-12 20 -24.5 67.5t-20.5 61.5q-47 86 -162 181q-12 37 -2 79q-33 127 -120 150q0 8 36 45q-31 31 -51 37q0 23 -31.5 91.5t-31.5 88.5v64h248q70 -154 137 -308q70 -143 170 -295q12 12 51 21q45 90 145 205 q-18 51 -6 139q43 35 92 113q76 115 82 125h228v-70zM311 901h-73q0 10 -10.5 36t-10.5 36q26 0 94 -72zM193 930q-82 23 -150 -12q0 16 26.5 36.5t57.5 20.5q33 0 43 -10q3 0 23 -35zM367 635l-111 20v35l111 -20v-35zM133 635l-129 20v35l129 -20v-35zM94 324l-90 22v33 l90 -23v-32zM528 -369l-10 -28l-65 24v29zM524 969v32h-53v-32h53zM817 797q8 0 -57.5 10t-171.5 10q0 -12 24 -29q35 -23 39 -28l51 39q12 -6 37 -32t35 -26q43 44 43 56zM1079 -94l-24 76l-29 -11l25 -65h28zM543 246v35h-72v-35h72zM358 -29l-28 11l-35 -70l29 -12z" />
<glyph unicode="Y" horiz-adv-x="1173" d="M608 293l-10 -27l-63 23v28zM938 1440v0v0v0zM698 1612l-106 20v33l106 -20v-33zM1153 920q-98 0 -147 49q80 0 127 22q0 -8 10 -34.5t10 -36.5zM793 987h-70v33h70v-33zM608 1032l-10 -26l-63 22v29zM815 838q-49 -53 -86 -54q-63 0 -63 54h149zM1194 373q20 0 -135 -6 q-90 -4 -148 8q37 43 258 35zM1077 1561q8 -23 8 -48q0 -61 -62 -194t-62 -191q0 -59 45 -98q-31 -14 -66 21q-31 -61 -16 -101v-30q-35 0 -54 -17q-55 -150 -170 -467q10 -10 39 -21.5t39 -19.5q-88 -39 -88 -164q0 -31 6 -94t6 -94q0 -29 -4 -51q-8 0 -32 18 q-29 27 -48 35q-10 -8 -34.5 -14t-34.5 -15q35 -74 94 -73q-8 0 55 6l-18 -205h-164q-20 92 -20 244v98q2 66 2 98q0 254 -60 408h72v-60q33 -33 68 -32q20 0 39.5 19.5t46.5 19.5q39 0 41 14q4 29 34 53q-27 27 -65 27q-25 0 -119 -9.5t-119 -9.5q-31 0 -67 37 q-23 27 -45 51q57 0 75 19q-2 10 -31.5 64.5t-29.5 82.5q0 27 22 39q-70 10 -90 107q-14 78 -30 155q-39 80 -80 158q-66 131 -66 189q0 29 7.5 33.5t17.5 13.5h178q12 -12 35 -31q35 -119 108 -322q86 -240 127 -364q-92 6 -131 -25q12 -18 19 -18q-16 2 39 2q104 0 124 51 q57 135 127 350q55 178 113 355h219zM225 1004l-127 20v33l127 -19v-34zM209 963q-10 0 -47 -11.5t-47 -11.5l24 53zM78 1032l-10 -26l-64 22v29zM397 373h-207l25 51q71 -14 182 -51zM1196 1032l-74 25v-29l64 -22zM1200 922v49h-33v-49h33zM129 358v33l-88 23v-33z" />
<glyph unicode="Z" horiz-adv-x="1269" d="M1161 1233q-109 -31 -190 -191q-47 -113 -92 -225q-35 -80 -222 -360q0 43 -36 80q-8 -10 -46 -17q-68 -12 -100 -20q63 139 332 678q0 33 -10 41q-135 10 -697 10q23 53 23 129q0 92 -43 137q123 8 326 10q143 0 325 -2q201 -2 174 -2q78 0 193 37q4 -10 8 -149 q2 -109 55 -156zM987 616l-12 -28l-66 24v29zM1182 270q-49 -49 -92 -49q-43 43 -43 76q12 0 49 -37q8 0 31.5 8t35.5 8q13 0 19 -6zM1282 123l-12 -27l-90 43l10 29zM1020 317l-21 -96l-192 29q119 10 213 67zM1118 115l-209 20v33l209 -21v-32zM1202 -35l-10 -26l-66 22 v29zM1110 -4l-27 -53l-26 12l24 51zM1042 0q-16 -35 -100 -35l-14 35h114zM297 616l-10 -28l-68 24v29zM729 131q-10 0 -47 -4t-45 -4l-25 35zM1120 -328l-24 -28q-233 -10 -434 -11q-449 0 -564 43q18 25 39 109q20 92 41 129q-8 14 -98 59q12 12 26 13q-47 -2 52 -2 q35 0 67.5 45t32.5 77q-90 14 -238 50h279q6 29 12 57q4 27 -8 47q-39 -39 -156 -39l-147 27q82 51 305 51q10 0 47 35q43 43 45 80h250q-49 -188 -63 -228q-41 -92 -131 -153q53 -49 108 -49q29 0 33 10t10 10q10 -10 10 -40t9 -40l145 13q-39 10 -98 36q8 12 17 21.5 t42 9.5q39 0 72 -27.5t39 -52.5q6 8 27.5 38t31.5 42q0 -25 26.5 -62.5t53.5 -76.5q6 0 31 6q8 6 8 14q0 4 -5 17.5t-5 19.5h112v-250zM985 1393q-20 10 -63 24.5t-64 24.5q-27 0 -27 -78q20 10 77 14.5t77 14.5zM608 1384q0 18 -26 58l-50 -49q8 -10 23 -13q10 0 29.5 2 t23.5 2zM489 1376v33h-151v-33h151zM311 1386q0 16 -24 56l-49 -56h73zM203 1413l-27 10l-26 -51l28 -12zM711 793l-54 24l-8 -26l49 -27z" />
<glyph unicode="[" d="M1980 485l-57 -315h-76q-6 0 -21.5 3t-19.5 3q-219 16 -458 105q-20 -43 -29 -78q-29 -131 -29 -226v-194q0 -31 10 -125q-45 -2 -163 -33q-111 -31 -170 -31q-74 0 -103 37q-14 25 -26 50q-16 33 -37 34q0 20 2 66.5t2 48.5q0 45 -12 117q-12 82 -31 98 q-80 -74 -184 -133q-84 -43 -170 -86l-68 260q0 4 2 12q74 43 207 125q96 63 291 183q-4 2 -23 2q-78 0 -151 -31q-2 -2 -13 -47q-37 27 -49 26q-10 0 -14 -8q-2 -16 -8 -53q-10 8 -35 29q-6 -31 0 -70l-88 45q-6 -23 0 -102q-43 35 -88 61q-6 -39 0 -88l-80 61v-96 q-39 41 -72 66q-2 -27 -6 -56q-4 -37 6 -51l-84 80q-4 -4 -14 -4q0 182 -121 432q285 76 350 96q193 59 322 129q-41 70 -140 187q-104 123 -208 243q-35 43 -103 140q188 86 373 245q63 -68 184 -249q104 -156 219 -318q115 86 238 266q102 150 205 301q98 -41 254 -186 q180 -166 180 -266q0 -82 -139 -227q-98 -94 -197 -191q6 -8 31 -18q59 -23 411 -148v-121zM885 748q0 20 -17.5 41.5t-44.5 21.5q-25 0 -44 -20.5t-19 -42.5q0 -23 20.5 -42.5t40.5 -19.5t42 17.5t22 44.5zM858 748q0 -12 -17.5 -23.5t-25.5 -11.5q-37 0 -37 35q0 37 39 36 q14 0 27.5 -13t13.5 -23z" />
<glyph unicode="\" horiz-adv-x="1226" d="M1126 -399h-43v26h43v-26zM1192 1651q-51 -78 -88 -78q-55 0 -80 49q-10 -18 -35 -37q-35 -25 -35 -26q-2 23 13 36q-27 10 -78 4q-78 -6 -96 -6l16 60q55 0 186 -2h197zM1143 1454l-76 19v26l76 -18v-27zM1044 1454l-90 16v29l90 -16v-29zM901 1454l-108 16v29l108 -16 v-29zM739 1636q0 -20 -41 -61q0 10 -25.5 20.5t-51.5 10.5q-4 0 -5 4q0 4 7.5 19.5t7.5 23.5q49 0 71 -47q31 30 37 30zM1049 1268l-9 -23l-53 21v22zM1194 1124l-8 -24l-56 20v23zM1110 1100l-156 16v29l156 -17v-28zM657 1454l-90 16v29l90 -16v-29zM932 1100l-90 16v29 l90 -19v-26zM532 1479l-8 -23l-53 19v24zM819 1098l-76 20v27l76 -19v-28zM561 1577l-39 22q-68 6 -280 7q-20 0 -28.5 -16.5t-27.5 -16.5q-16 0 -16 8q0 2 3 8t3 10q0 6 -14 7q-20 0 -28.5 -16.5t-29.5 -16.5q-20 0 -31.5 17.5t-27.5 17.5q0 -8 8 -23.5t8 -23.5 q-8 0 -29.5 16t-29.5 16l18 60q262 -25 539 2q8 -6 6 -31q-4 -55 -4 -47zM451 1464h-111l20 45q38 -14 91 -45zM631 1268l-10 -23l-54 21v22zM289 1464h-62l41 45q21 -31 21 -45zM899 727l-74 21v26l74 -18v-29zM176 1464h-127l19 43q25 0 60.5 -14.5t47.5 -28.5zM1190 309 l-90 17v28l90 -16v-29zM756 399q-23 6 -45 11q-31 12 -58 51q-18 -41 -67 -64q-84 111 -129 279q-25 84 -17 164q-6 25 -30 32q0 6 -11 54q-8 37 -2 53q-20 31 -39 63q-33 51 -67 68q0 6 33 39q-66 160 -66 223q0 55 37 64q10 6 24.5 -9.5t26.5 -29.5q10 14 10 28h78 q0 -8 4 -26.5t4 -30.5q0 -27 -22 -59q23 -6 57 -29q8 -47 51 -139q57 -6 181 -31h-150q-27 -33 -27 -76q0 -23 7 -22q2 0 8 4q6 2 10 0q35 -94 82 -287q35 -109 117 -330zM272 1100h-270v28h270v-28zM1044 309l-251 17v28l251 -16v-29zM274 639l-8 -23l-53 21v22zM944 -127 v0v0v0zM903 -47q0 -25 -9 -40t-17 -28q-8 0 -41 -18.5t-54 -18.5q-20 0 -20 17v0q0 16 -21 16q-16 0 -16 -10v-6q2 -4 2 -6q0 -8 -18 -9h-127q25 45 39 41q29 14 79 -10q4 2 11 6q-2 -4 -2 25q0 16 -44 103t-49 118q-4 41 -6 51q-6 37 -24 60q-6 14 26 47q-25 18 -77 31 q-78 18 -84 20q37 0 122.5 19.5t104.5 19.5q18 0 19 -16.5t20 -16.5q25 0 37 7t18 7q-4 -57 41 -137q49 -88 51 -127q6 -63 -6 -96q2 0 27 -14q18 -8 18 -35zM291 494l-8 -23l-54 21v22zM432 309l-172 17v28l172 -16v-29zM565 92l-8 -24l-55 20v23zM244 334l-11 -23l-53 19 v24zM78 469l-76 20v27l76 -18v-29zM199 100l-29 -59l-23 10l29 55zM578 -399h-76v26h76v-26zM82 92l-8 -24l-56 20v23zM178 -135l-8 -23l-55 21v22zM516 907q-53 27 -53 70q-8 -8 -21.5 -28.5t-21.5 -28.5q16 -8 47 -33q25 -20 31 -21q0 14 18 41zM553 778l-25 25l-16 -17 l23 -22zM618 528v76h-28v-76h28z" />
<glyph unicode="]" d="M1980 485l-57 -315h-76q-6 0 -21.5 3t-19.5 3q-219 16 -458 105q-20 -43 -29 -78q-29 -131 -29 -226v-194q0 -31 10 -125q-45 -2 -163 -33q-111 -31 -170 -31q-74 0 -103 37q-14 25 -26 50q-16 33 -37 34q0 20 2 66.5t2 48.5q0 45 -12 117q-12 82 -31 98 q-80 -74 -184 -133q-84 -43 -170 -86l-68 260q0 4 2 12q74 43 207 125q96 63 291 183q-4 2 -23 2q-78 0 -151 -31q-2 -2 -13 -47q-37 27 -49 26q-10 0 -14 -8q-2 -16 -8 -53q-10 8 -35 29q-6 -31 0 -70l-88 45q-6 -23 0 -102q-43 35 -88 61q-6 -39 0 -88l-80 61v-96 q-39 41 -72 66q-2 -27 -6 -56q-4 -37 6 -51l-84 80q-4 -4 -14 -4q0 182 -121 432q285 76 350 96q193 59 322 129q-41 70 -140 187q-104 123 -208 243q-35 43 -103 140q188 86 373 245q63 -68 184 -249q104 -156 219 -318q115 86 238 266q102 150 205 301q98 -41 254 -186 q180 -166 180 -266q0 -82 -139 -227q-98 -94 -197 -191q6 -8 31 -18q59 -23 411 -148v-121zM885 748q0 20 -17.5 41.5t-44.5 21.5q-25 0 -44 -20.5t-19 -42.5q0 -23 20.5 -42.5t40.5 -19.5t42 17.5t22 44.5zM858 748q0 -12 -17.5 -23.5t-25.5 -11.5q-37 0 -37 35q0 37 39 36 q14 0 27.5 -13t13.5 -23z" />
<glyph unicode="^" horiz-adv-x="1144" d="M1174 -399h-44v26h44v-26zM1190 1608q-16 8 -55 3t-54 1q39 41 93 41q16 -31 16 -45zM1210 1479l-8 -23l-55 19v24zM1063 1636q0 -20 -57 -77q0 14 -5 77h62zM981 1591q-98 0 -157.5 10.5t-49.5 10.5q53 12 172 43q35 -37 35 -64zM1126 1454l-254 16v29l254 -16v-29z M758 1610q-16 -8 -54 -10.5t-57 -8.5v62q-14 0 35 -6q31 -2 55 6q21 -29 21 -43zM836 1454l-76 19v26l76 -18v-27zM1206 1100l-106 16v29l106 -19v-26zM1077 1100l-106 16v29l106 -19v-26zM596 1630q-152 -37 -279 -37q-90 0 -313 15v26q522 0 592 -4zM950 1114 q-31 -49 -100 -49q-37 0 -92 14q-72 20 -74 21q-82 14 -174 0q-6 0 -36 -21.5t-46 -21.5q-72 0 -315 69q29 -16 59 -16q74 0 184 127q156 178 209 217q-8 6 -32.5 15.5t-32.5 17.5q143 23 241 -21q-80 0 -129 -16q47 -45 164 -161t174 -175zM158 1454l-123 16v29l123 -16 v-29zM952 334l-8 -23l-55 19v24zM78 1098l-76 20v27l76 -19v-28zM840 334l-9 -23l-55 19v24zM631 494l-10 -23l-54 21v22zM836 227l-76 21v26l76 -18v-29zM743 334l-10 -23l-53 19v24zM1176 -106l-19 -44h-76q10 20 38 29t57 15zM299 647v0v0v0zM1014 -160l-76 21v26l76 -18 v-29zM369 309l-93 17v28l93 -16v-29zM190 469l-75 20v27l75 -18v-29zM795 -111l-21 -43l-22 11l20 41zM707 -150h-76l18 46h58v-46zM473 -111l-20 -43l-23 11l21 41zM690 -399h-43v26h43v-26zM397 -147h-73q23 43 73 20v-20zM481 -399h-43v26h43v-26zM129 -147h-127l21 43 q45 -12 106 -43zM627 1143v57q-41 0 -95 -57h95z" />
<glyph unicode="_" horiz-adv-x="1085" d="M449 -377l-9 -22l-53 20v23zM1135 1593q-41 0 -70 29q-12 -10 -12 -45h-74q0 8 -18.5 32.5t-22.5 41.5l180 2q0 -8 8.5 -30t8.5 -30zM1133 1456l-203 17v28l203 -18v-27zM909 1575q-66 31 -100 31q-37 0 -84 -47q0 8 -17.5 38.5t-17.5 38.5q-10 0 111 6q70 2 108 -8v-59z M1137 1128l-9 -24l-53 20v23zM909 1456l-346 17v28l346 -16v-29zM1006 1104l-76 18v27l76 -19v-26zM651 1638q2 -2 2 -6q0 -12 -25.5 -26.5t-52.5 -14.5q-20 0 -127.5 7.5t-128.5 7.5q-35 0 -34 -29q-10 0 -27.5 20.5t-17.5 38.5q0 8 4 17h106q0 -37 10 -47q10 10 11 47 q4 0 32.5 -15.5t53.5 -15.5q16 0 87.5 8t106.5 8zM522 1466h-73q23 43 73 21v-21zM862 1104l-123 16v29l123 -19v-26zM238 1454l-76 21v26l76 -18v-29zM719 1120q-8 -10 -86 -10l-553 25q66 0 204 12t148 12q101 0 287 -39zM94 1456l-92 17v28l92 -18v-27zM961 504l-9 -23 l-53 19v24zM1106 344l-10 -22l-54 18v25zM977 344l-8 -22l-54 18v25zM862 319l-92 17v29l92 -17v-29zM1137 -121l-9 -22l-53 20v23zM653 319l-123 17v29l123 -17v-29zM205 688h-43v29h43v-29zM969 -113v0v0v0zM365 319l-138 17v29l138 -17v-29zM911 -102q-10 -4 -39 -23 q-20 -12 -41 -12q-20 0 -71 15.5t-72 15.5q-35 0 -35 -29h-172q0 49 -16 61q-16 -10 -10 -30q6 -37 6 -31h-139q0 35 -25 61q-12 -12 -12 -63q-20 12 -28.5 21.5t-12.5 27.5q-20 0 -23 -12q0 6 0 -35l-108 24h94q-31 82 -31 158q0 80 37 119q37 0 68 -64q10 8 10 45 q4 0 32.5 -14t53.5 -14q14 0 14 6q0 2 -3 9t-3 9q0 6 14 7q20 0 32.5 -15.5t33.5 -15.5q25 0 34 8t19 16q25 4 86 -2q72 -6 84 -6q20 0 24.5 15.5t22.5 15.5q53 0 174 -35q10 -33 6 -106q-4 -131 -4 -127zM193 344l-9 -22l-53 18v25zM66 104l-9 -24l-55 20v23zM670 80v29 h-43v-29h43zM270 0v29h-59v-29h59z" />
<glyph unicode="a" horiz-adv-x="1595" d="M1524 1612l-199 20v31l199 -18v-33zM1305 1640l-11 -26l-61 22v27zM1077 1612l-125 20v33l125 -20v-33zM1487 1071l-107 21v32l107 -20v-33zM895 1640l-10 -26l-62 22v27zM518 1612l-86 20v33l86 -23v-30zM369 1612l-105 20v33l105 -20v-33zM145 1612l-143 20v33l143 -20 v-33zM1448 -121l-86 23v32l86 -22v-33zM1563 154l-191 14q-10 -8 -25.5 -15.5t-25.5 -17.5q0 -47 -2 -26q2 -16 28.5 -16.5t76 -3.5t65.5 -3q-41 -27 -152 -27l2 -391q-37 -10 -125 -6q-156 6 -149 6q0 6 13.5 29.5t13.5 40.5q0 10 -5 20q-29 -31 -55 -61q-35 -33 -63 -33 q-25 0 -25 10v0q0 8 -22 9q-27 0 -50 -29q-27 -37 -41 -45q-18 -2 -41.5 16.5t-23.5 42.5q-16 0 -53 -20.5t-62 -20.5q-16 0 -16 8q0 4 3 11.5t3 11.5q0 6 -16 6q-29 0 -34 -16.5t-11 -16.5v37h-113q0 12 16 41q-43 37 -141 96q4 33 -16.5 52.5t-40.5 38.5q8 57 -33 117.5 t-105 60.5q-25 0 -53 -15q37 14 111 47q-16 51 -72 52q-14 0 -48 -4t-52 -4q-16 0 -31 2q-2 20 13.5 45.5t50.5 25.5q27 0 46 -9t23 -9q12 8 22.5 17t10.5 38q0 76 -53 76q-8 0 -27.5 -3t-30.5 -3q-23 0 -37 10q0 8 48 27q57 23 75 39q27 111 93 333q12 47 49 150 q4 8 38.5 27.5t43.5 29.5q68 80 67 139q0 14 -4 27q295 43 399 43q78 0 209 -65q18 -8 33 -43q18 -43 35 -60q10 18 8 70.5t6 75.5h205v-711q4 -16 29 -45q45 -4 190 -21q-57 -31 -129 -30q-35 0 -63 10q-6 -23 -31 -84l49 -47q43 16 84 16q78 1 109 -67zM1470 -330h-110 l22 49q41 0 88 -49zM72 49h-70v33h70v-33zM371 -293q-39 -39 -70 -39v70q70 0 70 -31zM203 -332h-88q0 14 17.5 42t29.5 28q41 -39 41 -70zM98 -317l-18 -25l-66 43l17 27zM928 979v33h-86v-33h86zM1210 627q-12 4 -30 4q-14 0 -43 -4t-43 -4q-53 0 -70 55q23 20 23 39 q0 8 -11 8q-72 57 -155.5 103t-116.5 46q-59 0 -148 -40q-102 -49 -145 -111q-8 -37 -37 -86q-53 -12 -72 -12q27 0 66 -39q-16 -45 -49 -125q-6 -12 -6 -25q0 -14 10 -42.5t10 -47.5q0 -18 -8 -39q6 -33 31 -84l661 2q0 61 21 82q-8 8 -50 20.5t-61 26.5q37 29 72 29 q18 0 31 -10q10 10 12 43v43q-31 33 -31 78q0 43 25.5 73.5t64.5 30.5q24 0 49 -14zM1096 -156v33h-88v-33h88zM1051 141q-274 0 -426 27q-47 -4 -95 -8q-76 -12 -81 -37q0 -2 -3 -4q55 -8 150 -45q-16 -10 -113 -35q182 -113 234 -113q115 0 209 43q16 10 36.5 41t20.5 43 q-197 0 -276 17q16 29 25 36t40 7q20 0 65.5 -10.5t65.5 -10.5q74 0 148 49zM573 -156v31h-49v-31h49zM463 -156v31h-70v-31h70zM965 326l-86 22v33l86 -23v-32zM854 338l-61 -8q-41 -4 -64 6q-2 4 -2 8q0 10 104 47q23 -37 23 -53zM639 365l-25 -50l-24 11l22 47zM690 76 l-10 -27l-62 23v26z" />
<glyph unicode="b" horiz-adv-x="1437" d="M70 -324l-11 -24l-57 22v25zM1311 1444l-97 18v29l97 -18v-29zM991 1468l-10 -24l-57 20v27zM885 1444l-97 18v29l97 -18v-29zM1247 975l-10 -25l-57 21v24zM1065 907h-31v80h31v-80zM526 1462h-63v29h63v-29zM121 1468l-10 -24l-58 20v27zM1382 43q-72 -23 -135 -23 l21 48q29 0 69.5 -12.5t44.5 -12.5zM1380 104q-8 0 -39 33q-12 -16 -12 -33h-121q-10 -49 -45 -120q-49 -96 -59 -119q-57 20 -131 -29q10 -10 49 -10v-59q-49 -49 -98 -97q-14 -12 -62 -12q-51 0 -69 18q-27 -29 -27 -67h-96l-35 35q-109 8 -119 10q-68 16 -117 74 q-37 -12 -52 -41t-48 -29q-39 0 -47 6t-23 45q-12 -23 -24 -45t-35 -22q-25 0 -51.5 10t-32.5 10q8 20 49 92q35 59 35 84q-33 6 -33 45q0 31 17 74q0 14 -8.5 31.5t-38 32t-56.5 26.5h74q29 35 29 43q-10 12 -80 12h-54q-20 31 -20 45q20 20 139 21q-6 37 15 76 q-59 20 -154 59h139q10 33 11 86q0 119 -31 180q0 10 12 22.5t16 16.5q10 92 -6 303q-4 37 15 109q23 94 26 117q2 16 -21.5 57t-23.5 63v226h303q0 -31 -67 -31q-6 -25 -23 -283q-8 8 -14 9q-12 0 -12 -27q0 -12 12 -49t12 -60q0 -14 -2 -24q29 -14 74 -62q25 25 80 46.5 t88 21.5q23 0 35 -8t34 -8q18 0 27.5 16t32.5 16q76 0 289 -106q0 -10 -21.5 -29.5t-46.5 -42.5q25 -10 133 -10q8 -33 66 -166q51 -117 51 -162q31 -31 35 -118t41 -107q-49 -49 -54 -117q23 -6 80 -28q27 14 90 14v-64zM117 948l-115 19v28l115 -16v-31zM629 -313h-45v28 h45v-28zM39 61l-21 -45l-24 11l22 43zM66 -133h-66l45 47q21 -33 21 -47zM893 821l-21 68l-24 -8l20 -60h25zM838 872l-68 21v-25l57 -20zM543 864v31l-97 -18v-29zM387 954q-8 -8 -32.5 -38.5t-30.5 -36.5q16 -16 47 -25q0 20 8 57t8 43zM270 999v29l-80 21v-29zM1221 -111 v0v0v0zM236 846v31h-46v-31h46zM1024 244v143q-27 39 -43 150q-43 27 -43 49l35 39q-25 6 -87.5 58t-88.5 60q-78 25 -148 25q-35 0 -125 -63.5t-94 -79.5q-6 -31 -41 -125q-31 -80 -29 -101v-90q68 0 68 -24q-27 -8 -70 -31v-61l23 -21q57 0 125 -35q16 33 74 33q41 0 38 0 q27 -8 48 -55q-131 -27 -273 -19q47 -16 154 -28q90 -10 135 -33q-78 -23 -254 -23q137 -115 262 -114q109 0 232 112q-14 4 -45 0q-41 -4 -54 -4q-51 0 -71 37q14 23 73 23q8 0 25 -3h27q76 0 94 35q-66 -4 -103 17q0 27 15 39l51 6q31 4 51 -6q12 39 39 90zM254 522v29 h-47v-29h47zM459 -176v29h-131v-29h131zM530 -289l-67 21v-25l57 -20zM944 299l-22 -45l-23 10l21 45zM784 303q-14 -25 -65 -31l-82 -4l-21 35h168zM852 168q0 -8 -9 -30.5t-9 -31.5h-152q20 33 35 33q4 0 8 -2q6 6 4 23q-2 10 23 10q20 0 20 -8v-6q-2 -4 -2 -9q0 -6 4 -10 q14 14 14 31h64zM594 256h-47q-49 0 -49 49h96v-49z" />
<glyph unicode="c" horiz-adv-x="1271" d="M995 1458l-98 19v30l98 -18v-31zM858 1458l-166 19v30l166 -18v-31zM547 1458l-80 21v28l80 -20v-29zM186 1458l-80 21v28l80 -20v-29zM1151 532l-21 -45h-131q27 55 60 43q29 2 92 2zM1188 287h-223q-178 -2 -224 -2q12 12 53.5 28.5t65.5 16.5q109 0 328 -43zM1253 12 l-79 21v28l79 -18v-31zM1223 -117l-9 -24l-59 22v25zM152 920h-66l39 47q27 0 27 -47zM1237 109q-55 4 -119 -29q18 -12 35 -12q-29 -37 -55 -72q-31 -41 -31 -74q0 -25 16 -53q-43 6 -86 -23q-10 -37 -47 -90q-49 -72 -59 -92q-72 0 -156 -10q-10 -14 -35 -41q10 -6 -28 -6 q-23 0 -31 17.5t-31 17.5q-20 0 -20 -9v0q0 -8 -23 -8q-16 0 -16 6q0 4 4 11.5t4 9.5q0 8 -16 8t-17 -6q0 -4 7.5 -12.5t7.5 -10.5q0 -6 -17 -6q-25 0 -19.5 12.5t-0.5 16.5q-43 2 -119 10q-10 6 -33 19q-18 31 -92 102q0 20 33 53q-35 8 -103 33v41q-2 25 17 63 q-29 18 -96 45q-84 33 -111 46q78 -4 121 16q-27 27 -119 27v65q43 0 76 -33q25 27 24 60q0 10 -38.5 48t-63.5 46q27 6 80 47q23 172 39 236q27 111 92 229q8 14 37 33q25 12 49 26q14 10 33 56q25 53 41 71q319 78 325 78q66 0 232 -125q0 -10 -9.5 -31.5t-9.5 -31.5 q-82 6 -100 -9q63 -23 149 7q133 -201 195 -322q-59 -2 -119 -2q-88 -6 -116 -53q-4 25 12 41q-53 61 -107 125q-96 109 -135 108q-47 0 -162 -24q-41 -8 -82 -49q-70 -68 -63 -125q-23 -2 -88 -37q23 -33 22 -58q0 -23 -20.5 -50t-20.5 -44q0 -74 70 -84l102 -12 q-61 -16 -124 -16l-29 -27q6 -23 45 -74q10 0 57 -10q37 -10 62 -10q6 0 103 7t157 7q41 0 67 -2q2 -2 22.5 -15.5t45.5 -13.5q16 0 16 6q0 4 -3 11.5t-3 9.5q0 8 17 8q16 0 16 -8q0 -2 -4 -9t-4 -12q0 -6 16 -6q18 0 44 17.5t42 17.5l228 -2q20 -18 20 -65zM174 -117 l-10 -24l-58 22v25zM258 -317l-133 -21v66q57 -14 133 -45zM807 874v31h-82v-31h82zM702 856v31l-131 18v-31zM518 879l-10 26l-57 -20v-27zM961 -20v30h-64v-30h64zM238 530v29h-64v-29h64zM911 80q-131 45 -215 45h-67q-98 0 -207 -8q-57 -2 -74 6q0 -8 16.5 -41t16.5 -43 q100 20 266 27q215 10 264 14zM858 18h-442q0 -14 12 -41.5t25 -35.5q94 -41 157 -41q23 0 96.5 19.5t96.5 19.5q14 12 34.5 39.5t20.5 39.5zM668 -176v31h-45v-31h45zM242 246l-66 20v-24l57 -21zM428 -176v31l-115 18v-31z" />
<glyph unicode="d" horiz-adv-x="1460" d="M1298 1468l-10 -24l-57 20v27zM868 1444l-319 16v31l319 -18v-29zM514 1468l-10 -24l-58 20v27zM424 1444l-166 18v29l166 -18v-29zM203 1444l-131 18v29l131 -18v-29zM1364 125q-49 -29 -139 -21l-15 -178l27 -28q14 12 53 6q41 -4 41 -19q-14 -12 -39 -14 q-27 -2 -39 10q-51 -37 -51 -98q0 -76 58 -121h-95q-6 14 -47 66q-8 -27 -49 -68h-78q0 57 -8 68q-35 -68 -117 -68q-14 0 -28 2q0 8 32 41q8 8 -8 25q-14 -14 -61 -15q0 -6 18 -28q-61 -78 -102 -78q-20 0 -20.5 17.5t-22.5 17.5q-20 0 -20.5 -17.5t-22.5 -17.5 q-16 0 -17 12q0 4 4.5 14.5t4.5 14.5q0 10 -17 10q-18 0 -18 -4q0 -2 2 -8q-2 -4 -19 -4q-23 0 -36 22q-29 41 -35 47q-8 0 -8 -51l-134 25q53 0 68 14q-25 8 -67 41t-68 41q0 10 17.5 36.5t17.5 35.5q-14 18 -84 12l-9 61q-4 41 7 64q-41 18 -109 33q-84 18 -96 22 q18 -2 64 2t61 4l28 27q-29 41 -120 41q-25 0 -42.5 -7.5t-21.5 -7.5v66q14 -8 51 -8t54 -8l45 47q0 14 -26 40.5t-26 49.5q0 33 29 78q2 106 51 241q63 180 176 273q0 10 -32 45q0 8 9 29.5t9 31.5h49q18 0 21 -4q2 -2 0 -12t6 -17q37 25 107.5 54.5t103.5 29.5 q23 0 39 -16t39 -16q20 0 24 8t27 8q49 0 117.5 -26.5t87.5 -63.5q4 -4 4 -82q45 16 45 63q0 35 -37 52q45 76 57 237q14 -12 41 17q-16 16 -65 12q0 -4 14 188q-18 20 -48 36t-36 24h268q10 -49 6 -152q-6 -172 -6 -166q-53 0 -65 -12q27 -27 65 -27q20 -37 -10 -106 q29 -12 29 -76q0 -45 -31 -51q-2 -10 8 -23q18 -23 19 -22q-29 -131 -29 -156q0 -10 45 -194q-25 -45 -35 -144q14 -31 13 -76q-2 -70 -3 -75q20 -14 86 -37q56 -21 64 -39zM205 965q-14 -4 -43 -27q-23 35 -23 51zM1366 -324l-8 -24l-58 22v25zM82 258q-43 0 -64 43 q29 23 45 16q19 -12 19 -59zM205 -131h-203l21 45q65 -12 182 -45zM256 -317l-98 -23v66q32 -12 98 -43zM117 -340l-117 25q6 0 43 12t55 12q19 -33 19 -49zM631 883q-31 0 -59.5 -10.5t-34.5 -10.5q27 0 51 -26zM408 932v29h-48v-29h48zM424 846v31h-64v-31h64zM1024 541 q-80 0 -98 80q-127 147 -226 147q-92 0 -163 -41q-18 -12 -58.5 -53t-62.5 -51q-23 -82 -64 -217q-4 -8 -16 -3t-12 -20q0 -35 41 -76q104 0 131 -12q0 -27 -11 -39q-84 27 -143 -8q8 -8 19.5 -38t19.5 -38q301 0 410 -31q14 -4 14 -24q-152 -18 -412 -19l39 -47 q115 23 146 23q61 0 106 -45q-80 -16 -240 -17q33 -47 113 -84q72 -31 117 -30q39 0 114 28q84 33 117 68q-18 8 -61 18.5t-60 18.5q0 8 29 37h64q66 0 96 30q-86 -8 -156 19q0 25 31 55q2 0 6 -22q2 -12 25 -13q16 0 50 18.5t44 18.5q8 0 12 -2q18 141 -8 330q12 16 47 39z M1180 -156l-11 25l-41 -21v-24zM584 -158l-25 25l-16 -17l22 -24zM424 -176v29h-64v-29h64zM975 291l-10 -25l-58 21v26zM854 281q-170 -31 -324 -5q0 47 50 48q102 0 274 -43z" />
<glyph unicode="e" horiz-adv-x="1376" d="M70 -324l-11 -24l-57 22v25zM1243 1442l-80 20v31l80 -20v-31zM1004 1444l-113 18v29l113 -18v-29zM799 1444l-113 18v29l113 -18v-29zM510 1444l-98 18v29l98 -18v-29zM1337 549h-30v45h30v-45zM389 1444l-147 18v29l147 -18v-29zM219 1444l-147 18v29l147 -18v-29z M1073 -6h-47v29h47v-29zM1331 281q-80 -23 -229 -43q-127 -16 -172 -17q-16 0 -56 17.5t-63 17.5q-27 0 -31 -18q2 12 2 -31q-2 0 -21.5 24.5t-43.5 24.5q-23 0 -35 -7t-23 -5q-25 -6 -47 -11q-29 -6 -55 -28q-8 0 -26.5 18.5t-26.5 20.5q-53 -20 -119 12l-27 -29v-45 q10 -10 31 -14q29 -2 31 -4q61 2 182 0q0 -2 2 -19q0 -8 27 -8q23 0 53.5 16.5t50.5 16.5h212h345q37 -37 37 -66h-137q0 -8 -12.5 -13t-18.5 -13q33 -12 101 -58q-25 10 -50 11q-45 0 -74.5 -35t-29.5 -80q0 -25 10 -43q-63 -10 -86 -47q-25 -47 -49 -92q20 -53 21 -74 q-29 10 -78 6q-78 -8 -72 -8q-53 0 -59 6q-16 23 -35 45q-35 -47 -35 -69q0 -12 8 -29h-117q2 16 -16 40.5t-45 24.5q-23 0 -39 -9t-39 -9q-43 0 -59 6q-43 53 -37 103q14 6 14 8q-2 4 -20 4q-25 0 -32 -8.5t-13 -8.5q-14 12 -17 37q-2 27 11 39q-25 6 -80 33 q-10 106 -84 135q-12 6 -160 27q76 25 104 24q20 0 39 -6l27 25q-23 16 -82 36.5t-88 43.5q43 6 82 2q53 -4 43 -4q29 23 29 73q-8 16 -86 54q20 10 43 45q31 45 43 59q-16 16 -56.5 28.5t-46.5 18.5q0 -6 48 2t48 49q0 18 -8 43q92 -8 152 11q-55 12 -109 22q-66 12 -96 35 q2 -14 41 -14q27 0 35 9t12 11q45 117 137 268q4 0 36 -16t54 -16q37 0 95 28q6 8 -11 23q-29 -20 -125 -15v64q63 29 213 98q37 6 144 6q16 0 16 -6q0 -4 -3 -10t-3 -10q0 -6 14 -6q18 0 19 4q0 2 -2 8q2 4 18 4q33 0 80 -21.5t72 -46.5q14 16 14 31l98 -24q-33 8 -86 -19 q10 -16 95 -100q35 -33 58 -93.5t23 -107.5q14 -16 41 -51q41 -156 39 -273q43 -9 121 -38zM696 -178h-45v31h45v-31zM205 -131h-101q14 29 74 29zM373 -338h-64q2 14 23 47q41 -39 41 -47zM82 -143l-80 18v31l80 -21v-28zM244 -281l-21 -45l-24 11l22 43zM952 846v31h-45 v-31h45zM854 860l-115 27l-20 -27h135zM639 905q-39 -14 -111 -49h70q47 -4 47 39q0 10 -6 10zM1024 539q-66 0 -86 18q0 72 -8 82q-37 55 -129 94q-84 35 -162 35q-51 0 -137 -71.5t-90 -112.5l32 8q23 6 33 -4q-10 -20 -43 -43l-41 -27l205 -4q135 -2 221 2q121 7 205 23z M1305 43v0v0v0zM1229 -109h-86l61 -28zM952 72q0 27 -39 65q-55 -33 -121.5 -35t-127.5 -4h-271q39 -20 111 -37q86 -18 110 -28q-43 -20 -170 -21q78 -115 127 -114h111q111 0 168 39q16 12 33.5 39.5t17.5 37.5q-25 0 -24 23q0 8 6 14q8 0 34.5 10.5t34.5 10.5zM594 -178 v31h-45v-31h45z" />
<glyph unicode="f" horiz-adv-x="1150" d="M995 1438l-116 18v31l116 -19v-30zM580 1464l-11 -24l-59 20v27zM1012 971q0 -8 -8.5 -33t-8.5 -33h-63q-10 20 -39 40t-35 26h51q20 0 21 -8q0 -2 -2 -7.5t-2 -7.5q0 -10 20 -10q25 0 43.5 16.5t22.5 16.5zM487 1438l-170 18v31l170 -19v-30zM276 1438l-81 20v31l81 -21 v-30zM172 1438l-82 20v31l82 -21v-30zM1069 256l-10 -25l-58 23v25zM981 246q-119 0 -260 -23q0 12 37 49zM1073 -23h-29v48h29v-48zM1065 66h-293q0 8 -8 31.5t-8 33.5q27 0 57 -33q35 35 74 33h162q0 -8 8 -32.5t8 -32.5zM856 1477q-39 -47 -37 -156q2 -117 -18 -154 q-10 0 -19 11q-18 23 -18 22q-16 -53 -76 -53q-10 0 -37.5 2t-44.5 2q-47 0 -82 -14l13 -60l28 35h62q6 -51 -15 -94q8 -10 16.5 -18.5t37.5 -8.5q20 0 73.5 -2t79.5 -2v-274q-57 4 -194 -8q-6 -2 -27 -23q-2 -16 2 -88q2 -53 -12 -84q27 -61 26 -127q0 -27 -5 -78t-5 -76 q-12 0 -45 -16q35 -29 70 -57.5t69 -28.5q16 0 33 4v-65l-74 14q-29 0 -40 -14.5t-21 -26.5q41 -20 102 -59q-57 20 -139 -31q18 -25 51 -66v-272l-268 14q35 0 53 64q-2 -14 -2 41q0 43 45 77q-18 10 -63 19q-57 10 -78 16q10 10 76 11l20 12t10 33q0 25 -8 42t-8 23 q-45 10 -106 39q10 10 47 18q57 12 75 19l-61 59q-35 -35 -109 -35q-20 20 -20 68h160l14 14v66q-33 27 -63 27q-203 0 -301 -17q-20 33 -21 49q53 10 387 0q0 8 -2 35q0 27 2 47q0 4 -11 26.5t-11 29.5q0 6 4 8q35 45 26 90q-6 10 -24 39q12 23 16 51q2 18 0 49 q-2 41 -2 51q-53 8 -158 35v119q111 -29 174 -6q-33 20 -87 27.5t-103 15.5q0 2 8 42t8 60h179q6 6 6 12q0 2 -5.5 17.5t-5.5 34.5q0 18 48 114q53 106 63 146q2 2 51 14q8 6 8 29.5t9 27.5q20 14 63 21q84 14 90 16q-43 18 -104 54zM1069 -164l-10 -24l-58 20v27zM840 -18 h-121l20 45q17 0 101 -45zM811 -137l-23 -47l-24 12l22 43zM719 -373l-10 -24l-58 20v25zM190 63h-102q-16 0 -16 9q0 2 3 9t3 9q0 8 -17 8q-51 0 -51 -35q-10 70 60 70q23 0 22.5 -17.5t22.5 -17.5q25 0 37 17.5t18 17.5q20 -21 20 -70zM758 860l-25 10l-22 -45l24 -12z M680 827v31h-117v-31h117zM504 825v29l-80 23v-31z" />
<glyph unicode="g" horiz-adv-x="1155" d="M1096 1483l-117 14v25l117 -15v-24zM897 1503l-8 -18l-45 16v19zM825 1483l-63 16v23l63 -17v-22zM748 1503l-9 -18l-45 16v19zM1096 1090l-64 16v22l64 -16v-22zM662 1483l-64 16v23l64 -17v-22zM567 1483l-254 14v25l254 -15v-24zM1049 684l-17 -37l-20 8l18 35z M150 1436l-7 -19l-45 17v18zM1073 80l-8 -21l-45 17v20zM1098 422q-23 0 -47 22q-18 -25 -50 -24q2 -29 -7 -69t-9 -52q0 -35 33 -66q-35 -6 -109 -26q20 -12 78 -8v-131q-43 0 -51 -11q27 -27 27 -59q0 -14 -33 -51t-53 -43q-10 4 -23 -8q10 -10 41 -11q-23 -31 -47 -86 q-12 -2 -37 -10q-59 -59 -96 -49q-8 -8 -4 -27q6 -27 6 -26q-27 0 -94.5 -7.5t-79.5 -7.5q-18 0 -61.5 18.5t-61.5 20.5q20 4 67 21q-45 6 -143 26q-6 18 -37 45q-37 31 -49 50q0 20 53 43q-33 6 -92 38v48q45 0 51 8q-23 14 -92 10q0 45 12 57q-33 16 -53 60h66q16 2 18 -2 q0 -2 -2 -11q-2 -6 4 -12q10 12 10 25h91q12 -49 43 -121q106 -106 143 -109h156q-4 47 36 66q53 25 60 37q-4 10 24 67q-10 6 -51 11.5t-63 23.5q-4 -4 -6 -22.5t-20.5 -18.5t-21.5 -13t-20 -13q-2 0 -39 6q-25 4 -61 -4q4 61 -8 79q-23 -23 -23 -38q-20 0 -47 51 q-8 -6 -8 -51h-49q-10 49 -68 84l-16 12q-2 23 41 43q-35 23 -93 22q0 121 -36 121q-18 0 -22.5 -6t-10.5 -6q0 2 -2 12t0 19q4 12 14 28l-35 35l-10 -14h-129q-2 14 8 33.5t31 19.5q12 0 35.5 -7t62.5 -7q6 25 6 41q0 18 -11 34.5t-11 26.5q0 12 14.5 82t16.5 98 q18 4 49 25q-6 6 -19.5 12t-19.5 12q31 76 61 150q31 61 101 111q-12 8 -25 8q0 8 16.5 18t22.5 15q-20 8 -55 30h41q14 2 16 -2q2 -2 0 -10q-2 -6 4 -12q27 23 115 47q82 20 123 20q16 0 16 -13t16 -13q14 0 15 4q0 2 -2 6q2 4 16 4q57 0 133 -55q35 41 58 39h165v-76 q-33 -6 -92 -25q23 -23 92 -22q6 -100 -8 -178q4 -14 19 -41q-23 -141 -23 -172q0 -90 4 -125q16 -14 45 -52q8 12 9 25q4 0 51 -47zM883 -231l-9 -21l-45 16v21zM63 557h-63q18 37 63 16v-16zM989 -377q-6 0 -31.5 -9t-31.5 -9q-14 27 -15 39zM121 231h-53l34 37 q19 -27 19 -37zM731 -373h-51v23h51v-23zM246 -231l-8 -21l-45 16v21zM123 -369l-8 -18l-45 16v21zM895 1030q-25 4 -57 29q-43 33 -50 37v-80q4 0 11.5 6t27.5 6q16 0 16.5 -13.5t18.5 -13.5q31 0 33 29zM961 752v22h-76v-22h76zM862 762q-39 2 -102 16q0 2 53 56 q-4 0 -12 -4.5t-29 -4.5q-20 0 -63 43q-31 33 -62 64l-72 14q-47 0 -96 -18q-23 -8 -63 -45q-49 -43 -64 -52q25 -10 53.5 -22t30.5 -27q-25 0 -61.5 -7t-46.5 -7v-78q27 0 26 -18q-29 -23 -35 -37q-12 -33 -20 -45v-58q18 -59 88 -88l35 29q8 0 35 -29q0 41 39 41 q35 0 125 -39q4 -12 4 -18q-47 0 -142.5 -7t-142.5 -7q29 -29 29 -35l39 12q49 0 41 -31q-29 -8 -70 -22q33 -37 92 -59q53 -25 98 -25q33 0 88 18q70 23 82 56q10 27 22.5 54.5t39.5 29.5q-100 0 -152 16q14 43 56 43q14 0 14 -4q0 -2 -3 -8t-3 -8q0 -6 12 -7q14 0 100 43 v50q-53 27 -53 32q55 29 68 27q-8 23 -35 43q-33 23 -45 41q37 18 65 12q-18 35 -14 70h51zM811 195v24h-37v-24h37zM614 211l-20 20l-14 -14l18 -20zM567 195v24h-37v-24h37zM463 215l-53 16v-18l45 -16zM760 559q-98 2 -256 -16l14 37q142 -1 242 -21zM487 559 q-70 0 -104 -18l14 39zM662 352l-187 19q27 6 86.5 9t85.5 9q15 -25 15 -37z" />
<glyph unicode="h" horiz-adv-x="1243" d="M483 -354q-10 0 -43 30q-25 -10 -41 -10q12 6 29 6q55 1 55 -26zM1022 1632h-66v29h66v-29zM1090 1458l-236 17v30l236 -18v-29zM725 1458l-150 19v28l150 -18v-29zM553 1458l-117 19v28l117 -18v-29zM961 985l-41 -63l-25 18l41 59zM418 1483l-10 -25l-58 21v26z M696 563l-10 -24l-57 20v27zM1004 225h-48v31h48v-31zM1163 -123q-53 -10 -104 -20q-61 -12 -105 -33q10 -10 68 -10v-170h-49q-20 0 -21 8q0 2 2 7t2 9q0 8 -18 8q-23 0 -57.5 -25.5t-57.5 -25.5q-18 0 -46.5 10.5t-45.5 10.5q0 8 20.5 23.5t24.5 21.5q37 47 41 135v199 q-109 -27 -209 12h178q31 37 31 43q-23 10 -186 14h-264v68q16 0 49 9t53 9q18 0 47 -25.5t47 -25.5q25 0 25 6q0 2 -4 9.5t-4 9.5q49 6 133 26l43 -35q20 14 59 45v35q-27 45 -94 45q-111 -4 -119 -2l-8 -10h-19q-2 23 3 39q8 10 26 8q25 -2 49 -6h178q-49 20 -22 66 q-12 68 -12 90q0 61 37 82q-29 14 -35 22q-6 23 -13 43q-31 55 -34 66q-27 41 -54 63q-49 39 -178 39q-90 0 -149 -184q-41 -129 -41 -203v-53l28 -29q14 6 41 6q16 0 70.5 -5t85.5 -5q-10 -14 -50 -30.5t-71 -16.5q-51 0 -78 16q-4 -14 -26 -45v-149q27 -10 86 -37 q-37 -12 -121 -55q10 -8 45 -66q-23 -141 6 -268q-6 0 -110 6q-61 4 -130 -6q49 150 50 178q0 27 -19 37q-27 12 -28 14q31 72 30 102q-25 27 -139 46q20 14 63 26q37 10 76 21q-16 20 -57 30q-57 16 -66 19q14 8 29 28q8 16 33 17q27 0 26 -2q8 -16 9 -17q10 10 12 23v22 q-6 49 -4 134q2 100 0 135q-4 55 -17 94v301q14 6 33 6q25 0 92 -22q0 12 31 45q-16 8 -59 14q-53 8 -78 16q0 6 -8.5 37t-5.5 41q4 4 28 10q18 4 19 29q0 35 -15.5 132.5t-15.5 156.5q0 63 14 117q-27 18 -73 34q-55 18 -66 23q242 0 326 4q10 -31 11 -104.5t9 -108.5 q0 -10 -8 -35.5t-8 -36.5q0 -6 3 -34.5t3 -47.5q0 -72 -41 -92q29 -29 61 -94q16 33 73.5 69t90.5 36q27 0 142 -23q170 -31 188 -35q-16 2 -16 -39q0 -20 10 -44.5t10 -39.5q8 -10 31.5 -14t25.5 -6q27 -43 54 -143q31 -106 57 -156q-39 8 -84 -14q8 -8 66 -9 q29 -90 2 -196q29 -29 61 -29q25 0 47.5 8t26.5 8q18 -31 18 -47q-70 2 -100 -8q-57 -18 -53 -86q63 -23 153 -14v-66q-80 4 -135 -14q29 -45 70 -57q-104 -20 -105 -62q0 -78 98 -78q25 0 47.5 -4t28.5 -4zM588 8l-154 25q6 0 34 13t52 13q31 0 49.5 -17.5t18.5 -33.5z M92 -295l-22 -47l-25 10l23 45zM815 889h-100q0 -10 33.5 -26.5t42.5 -22.5q14 16 24 49zM522 872l-10 25l-41 -20v-25zM416 862l-80 29l-23 -29h103zM274 520v31h-63v-31h63zM43 414v0v0v0z" />
<glyph unicode="i" horiz-adv-x="698" d="M592 1438l-82 20v31l82 -21v-30zM489 1454q-8 0 -44.5 -4t-53.5 -4l-22 31zM403 1315q0 -12 -12 -58.5t-12 -72.5q0 -18 4 -33h-207q12 43 6 119q-8 111 -8 98q0 25 23.5 35t48.5 18q2 10 -15 27q-20 -4 -36 29h153q0 -27 27.5 -84.5t27.5 -77.5zM596 956l-8 -24l-60 20 v27zM233 1122l-22 -45l-25 10l23 46zM156 948h-66v31h66v-31zM479 406l-22 -48l-25 11l21 45zM600 223h-29v47h29v-47zM522 242h-65l43 49q22 -35 22 -49zM592 63h-209v-180q20 -20 60 -36.5t46 -22.5q-53 2 -157 -35q8 -6 47 -6q12 -8 18 -39t-2 -57q2 0 20.5 -28t18.5 -48 l-145 14q-2 0 -18.5 -7t-30.5 -7q-33 0 -72 33q-14 -18 -14 -35l-84 26q6 0 25.5 7.5t31.5 7.5t20 -6q29 25 35 65q12 70 15 72q51 0 100 29q-29 16 -119 10q0 63 33 129q-33 35 -68 35q-14 0 -42.5 -8.5t-43.5 -8.5q-16 0 -32 8q-20 0 -21 52q27 -8 81 -8.5t79 -8.5l29 27 q-23 23 -61 24.5t-73 4.5h-55v65q76 -27 172 -2q-8 33 17 82q-20 20 -62 35q-53 18 -61 22h108q2 27 -3 81t-5 79q0 45 10 82q-2 2 -12 27q-8 18 -6 28q18 33 18 80q0 18 -3 53t-3 52q0 74 53 110q-16 6 -51 31v98h205q8 -23 8 -51q0 -51 -24 -125q18 18 34 18q2 -90 0 -245 q-4 -182 -4 -234q0 -6 9.5 -35.5t9.5 -50.5q0 -39 -29 -59v-45q55 -47 104 -47q27 0 52.5 9t29.5 9q21 -21 21 -70zM592 -31l-133 19v30l133 -18v-31zM559 -381l-29 -14l-12 28l29 13zM145 -137l-22 -47l-25 12l23 43zM84 -190l-82 20v31l82 -21v-30zM348 -49v31h-47v-31h47 z" />
<glyph unicode="j" horiz-adv-x="618" d="M408 1509l-11 -198q-4 -57 -4 -66q-45 0 -53 -10q6 -6 26.5 -21.5t28.5 -23.5q-14 0 -39.5 -2t-44.5 -2q-23 0 -43 16q-12 10 -22 19q-2 18 -11.5 82.5t-9.5 99.5q0 47 15 72q-4 2 -43 16q-25 10 -25 18q63 0 168 -4q48 -4 68 4zM549 1067l-80 16v25l80 -16v-25z M125 1477l-66 16v25l66 -17v-24zM168 1069h-80v25h80v-25zM524 637l-8 -21l-47 17v20zM580 524l-9 -20l-47 16v21zM129 692l-8 -18l-47 16v21zM510 184l-8 -20l-47 18v21zM578 369h-84q-14 0 -17 2q-2 2 0 12q2 6 -2 12q-8 -14 -35 -22q-41 -12 -45 -15q39 -39 84 -47 q-84 -8 -84 -59q0 -12 6.5 -39t8.5 -41q-35 -4 -99 -25q20 -12 82 -8q0 -47 43 -86v-51h-43q-23 -88 -43 -176q-33 -102 -88 -119q4 -16 0 -26q-20 -6 -39 -15q-27 -12 -43 -45h-94q0 4 -8 22.5t-8 39.5q0 14 10 69t10 76q33 20 111 61q10 6 10 18.5t9 41t9 45.5 q0 4 12.5 19.5t12.5 35.5q0 82 -39 131q27 49 27 107l-23 24l-14 -14l-64 18q12 12 33 17q20 4 31 -6q23 23 22 30q-29 8 -123 13h-102v53q47 -8 84 -4q57 6 55 6q14 0 15 -6q0 -2 -3 -8.5t-3 -8.5q0 -6 12 -6q18 0 78 51q-37 61 -76 70q-57 10 -66 16h123q10 279 0 582 q98 0 165 -8t65 -8q-10 -29 -56.5 -61.5t-62.5 -32.5q-20 0 -21 2q-4 10 -6 12q-10 -12 -10 -19q29 -16 98 -12q6 -23 6 -115q-4 -254 -4 -423q78 -53 121 -54q12 0 12 6q0 2 -3 8.5t-3 8.5q0 6 15 4h41v-53zM68 502l-66 16v25l66 -17v-24zM129 311l-8 -20l-47 18v21z M57 311l-8 -20l-47 18v21zM33 37l-19 -39l-20 10l18 35zM172 -174l-20 22l-15 -14l21 -20z" />
<glyph unicode="k" horiz-adv-x="1218" d="M514 -348h-63v31h63v-31zM1133 1442l-80 20v29l80 -21v-28zM909 1442l-114 18v31l114 -18v-31zM633 1442l-166 18v29l166 -16v-31zM1108 582l-23 -47l-24 12l22 43zM135 1442l-133 18v31l133 -18v-31zM1094 408v0v0v0zM567 958q-25 0 -62.5 -14t-51.5 -29q0 10 -9.5 34 t-9.5 34zM1030 254l-149 18v31l149 -18v-31zM1167 74q-225 29 -409 6q29 -18 82 -39q45 -14 90 -31q-76 4 -105 -16q35 -45 103 -141q-37 8 -84 -17v-16q18 -14 74 4q45 -27 100 -86q41 -45 82 -92l-92 14q-23 0 -36.5 -17.5t-33.5 -17.5q-16 0 -87 9.5t-108 9.5q0 10 31 41 q-20 23 -55 116q-23 66 -74 66q-31 0 -74 -17q0 37 19 37q8 0 16 -6l15 111q-14 12 -132 12q-53 0 -90 -47q-6 -45 -6 -82q0 -35 8.5 -103.5t8.5 -127.5h-66q-23 0 -22 6q0 2 2 7t2 7q0 8 -7 12q-12 -16 -12 -32h-76q-25 -2 -28.5 -10.5t-9.5 -8.5q-14 29 0 187q57 0 65 10 q-51 20 -127 33q-102 18 -115 20q20 0 77 11.5t97 11.5q8 23 11 77q-18 29 -39 35q-2 6 13 32t15 34q-51 10 -139 39q61 31 139 57v653q18 10 52 9q78 -4 59 -5q41 0 61 39q-59 8 -188 52q0 16 9.5 55t11.5 53q4 55 -13 393q-25 41 -24 60h286q0 -8 -20 -21q-29 -20 -45 -37 q12 -10 23.5 -21t11.5 -38q0 -166 -25 -270q-8 -37 -27.5 -44.5t-21.5 -50.5q18 18 33 19q12 -12 33 -41q-18 -100 -19 -115q0 -39 21 -82q-20 -35 -21 -96q0 -49 19 -139q-14 2 -46 -15q20 -10 29 -41q14 -47 19 -57q51 8 98 164q41 18 67 39q-4 59 73 154.5t77 121.5 q0 31 -51 47q180 59 223 60q27 0 137 -41q-53 -66 -151 -178q-2 -25 -11 -68q-4 -4 -39 -59q-27 -41 -57 -62q0 -10 21 -32q29 -33 30 -37q-63 0 -102 -52q-20 -25 -51 -100q-27 -63 -54 -84q55 -27 132 -26q14 0 42.5 8t43.5 8q14 0 24 -6q-29 -27 -178 -27q-8 -8 -4 -31 q8 -37 8 -57q27 0 98.5 -10t157.5 -10q94 0 225 10v-90zM1016 23l-8 -25l-58 20v25zM1116 -141h-63v30h63v-30zM573 178h-28v47h28v-47zM156 270q-16 -8 -71.5 -11t-82.5 -13l21 67q16 -10 65.5 -22.5t67.5 -20.5zM616 -354h-65l45 47q20 -33 20 -47zM135 -4l-133 18v31 l133 -18v-31zM41 -313l-23 -47l-24 12l22 43zM913 862l-10 25l-39 -21v-24zM1151 254v31l-98 18v-31zM641 221l-27 27l-16 -17l25 -26z" />
<glyph unicode="l" horiz-adv-x="706" d="M332 1640l-10 -26l-58 22v25zM592 1378l-10 -24l-58 22v25zM100 936l-80 20v31l80 -22v-29zM557 389l-10 -24l-58 22v25zM588 -8h-158q-16 -25 -16 -64v-30q2 -18 2 -29q0 -45 -35 -64q20 -29 31 -86q16 -80 20 -90l-397 21q53 31 143 10q18 25 24.5 74t24.5 76v268 q-66 4 -227 4q39 49 76 55q2 2 117 6q0 6 8 13.5t8 31.5q0 41 -88 78q27 6 82 47q4 80 0 213q-8 174 -8 236q0 16 15 51t15 53q0 27 -10 35t-20 14q8 39 8 297q0 176 6 205q-41 20 -111 35q-86 18 -98 23q82 0 322 -7q125 -2 249 9q-12 -8 -72.5 -22.5t-99.5 -35.5 q27 -27 50 -26v-445q-20 -10 -41 -35q-41 -47 -43 -49q-12 -10 -13 -16q0 -8 21 -8q25 0 31 7t10 7q2 27 18 -324q-57 0 -67 -12q10 -10 49 -10q0 -47 -4 -57q16 -23 16 -54q0 -16 -4 -41.5t-4 -36.5q0 -37 49 -38q-25 -29 -68 -95q0 -29 29 -59q-2 0 39 8t102 8 q0 -8 8.5 -32.5t8.5 -32.5l-74 16q-70 0 -113 -45q25 -29 82 -29q8 0 25 3h24q50 0 58 -31zM596 -164h-31v47h31v-47zM100 242l-80 20v31l80 -21v-30zM557 -356l-10 -25l-58 21v26zM102 -162h-84l21 45q40 0 63 -45zM369 1096l-27 26l-16 -18l24 -25z" />
<glyph unicode="m" horiz-adv-x="1955" d="M1057 33h-47v30h47v-30zM1686 1593l-84 23v31l84 -23v-31zM1565 1622l-11 -27l-59 23v27zM1470 1110l-137 18v31l137 -18v-31zM1534 672h-33v84h33v-84zM1440 739q6 -10 -8.5 -35.5t-14.5 -31.5h-141l16 24q33 27 45 27q2 0 9 -2h14q27 0 80 18zM1241 688l-10 -26l-60 22 v27zM1886 672h-76q-4 -23 -4 -43q0 -39 13.5 -74t13.5 -31q0 -27 -14.5 -25.5t-18.5 -4.5q-4 -37 -6 -74q-8 -49 -33 -82q16 -14 33 -14q0 -29 10.5 -91.5t10.5 -85.5q0 -53 -54 -98q33 -35 33 -51q-10 -4 -41 2q-41 6 -43 6q0 6 8 28.5t8 43.5h-43q-12 -12 -6 -37 q8 -35 9 -35h-91v848q-39 76 -39 201q0 25 -65 90q8 6 45 17.5t45 21.5q4 8 -4 24q-20 0 -77.5 17.5t-80.5 17.5q-20 0 -54 -18.5t-54 -18.5q-45 0 -82 37q-51 -25 -51 -45q0 -6 9 -22.5t9 -30.5q0 -10 -2 -21q-8 0 -27.5 -22.5t-29.5 -50.5q-41 -106 -41 -193v-301 q45 -14 106 -47h-74q-14 -43 -28 -88q-16 -51 -41 -86q14 -12 53 -12v-316q-31 -12 -94 -8q-113 6 -98 6q0 8 67 43q-8 4 -53 19q-31 10 -49 32q23 211 0 451q-8 31 -37 31q-4 33 51 61q-16 18 -50 33.5t-40 21.5q57 0 72 15q-16 12 -33 12q0 33 39 33q6 6 6 14q0 20 -23 29 q-2 4 13.5 17t15.5 38q0 96 -29 170q-45 121 -151 107q80 16 233 67q-23 25 -170 25q2 0 -89 -6.5t-226 -6.5q16 -6 53 -28v-64q-59 -23 -78 -100q10 -14 11 -33q0 -18 -17.5 -57t-17.5 -56q0 -6 12 -36.5t12 -51.5l-18 -143q12 -8 35 -33q4 -12 -13 -30q-20 -25 -22 -31 q-18 -188 0 -467l-25 -27q-6 -14 -6 -49q-39 0 -118.5 3t-104.5 3q2 0 82 41q0 25 -51 25q8 94 7 280.5t9 278.5q-37 27 -180 49q68 16 147 16q23 39 23 109q0 104 -41 176q35 92 35 96q0 23 -21 39q0 29 72 62q-55 80 -55 213q0 74 47 84l184 12q0 -57 12 -70 q16 12 34 28.5t18 33.5q27 2 112 16q72 12 96 12q18 0 64.5 -27.5t71.5 -27.5q2 0 25.5 9.5t39.5 9.5q20 0 33 -13q-57 0 -72 -14l53 -53q37 -39 41 -70l11 -14h63q10 12 4 37q-8 35 -8 34q20 0 64 29q70 47 81 55q78 45 211 45q25 0 138 -51q139 -63 184 -80q0 -4 -51 -57 q47 -23 71 -94q-18 -8 -63 -9t-64 -10q0 -29 64 -59l37 37q39 -39 78 -39v-88q4 -47 57 -59q-55 -53 -55 -156q0 -25 20 -68q25 -59 27 -63q4 -10 28.5 -23.5t32.5 -21.5zM791 674h-89q0 6 -7 40t-7 44q62 -61 103 -84zM610 674q-33 0 -61 31q-12 -12 -12 -52q-10 0 -43 9.5 t-41 9.5q0 8 8 40.5t8 43.5q-14 0 45 -6q35 -4 57 6q0 -43 39 -82zM1174 1264v49h-31v-49h31zM1149 1198l-160 23q8 -16 17 -19q6 -2 20 0q18 4 35 4q25 0 54.5 -4t33.5 -4zM1284 606v0v0v0zM375 1200v31h-66v-31h66z" />
<glyph unicode="n" horiz-adv-x="1228" d="M1139 1612l-84 20v33l84 -23v-30zM1067 1370h-70l41 49q29 0 29 -49zM977 1243q-127 -8 -402 -8q-285 0 -428 -10q18 47 19 78q0 51 -57 69q14 16 20 66q6 47 0 71q76 -16 127 -16q31 0 55.5 5t26.5 5q16 0 53 -47q145 74 244 74q-16 0 170 -27q10 -18 52 -50t58 -62 q29 -48 62 -148zM1180 696l-11 -24l-61 22v25zM1106 731q0 -20 -21 -104q-20 -90 -22 -119q2 -8 16 -23q-4 -143 -35 -413q23 -59 23 -80q-27 0 -88 10t-90 10q27 12 90 41q-59 29 -125 29q12 369 2 477q-4 53 -10 107q-14 16 -30.5 35.5t-16.5 35.5q12 6 43 -22q10 18 6 55 q-4 31 -8 60.5t-4 52.5q0 57 17 71.5t17 22.5q0 41 -108 203q78 12 227 41q55 -27 76 -174q27 -188 33 -199q0 -2 -25 -70q33 -4 33 -47zM74 1386l-11 -26l-59 22v27zM739 592h-67l45 49q22 -35 22 -49zM690 768q4 -8 -2 -28.5t-6 -32.5t6 -25q-16 0 -68.5 -11.5 t-76.5 -11.5q-23 0 -42.5 9.5t-39.5 11.5h-60q0 8 21 35q27 35 35 53q18 0 55 -27.5t55 -27.5q10 12 6 26q-8 25 -8 27q10 0 21 -18q14 -27 20 -33q29 16 84 53zM489 1159q-43 -37 -88 -96t-45 -174q0 -35 9 -117q4 -72 2 -104q-10 -168 -11 -398q0 -20 10.5 -78.5 t6.5 -87.5q-23 -16 -66 -51q16 -12 33.5 -25.5t17.5 -35.5q-41 8 -97 47t-114 43q0 4 -9 33.5t-9 48.5q0 10 2 16t29 37q20 27 20 53q0 23 -6 24t-13 2t-11 7q-12 104 14 182q-35 35 -72 35q53 53 53 103q0 20 -17 57t-17 55q-23 0 -23 -55l-88 27q29 0 72 30q53 39 67 45 q-2 10 -2 23q0 27 13.5 77t13.5 68q0 20 -12 78q-10 66 -13 90q-6 10 -49 31q193 72 227 72q27 0 82 -23q80 -35 90 -39zM111 606l-11 -24l-61 20v27zM238 27l-11 -27l-61 23v26zM477 1278v49h-31v-49h31zM242 899v47h-31v-47h31z" />
<glyph unicode="o" horiz-adv-x="1296" d="M799 1595l-80 21v31l80 -21v-31zM1262 772h-70q-25 -211 -117 -395q-119 -240 -278 -223q-10 -10 -4 -33l8 -33q-111 -25 -303 -16q8 78 -68 92q-98 20 -119 51q-4 96 -63 178q-33 -31 -41 -31q4 23 -23.5 69t-27.5 65q0 25 32 43q-10 10 -23 11t-26 3 q-16 35 -34.5 105.5t-18.5 101.5q0 25 8 45l12 24q20 102 -2 207q61 12 68 54v86q145 35 260 34l29 25q-57 18 -203 14q4 14 41 54q31 33 31 63q0 14 -4 29q35 10 77 37q51 33 66 61q250 27 221 27q25 0 127 -52q125 -59 172 -73q0 -12 -16 -39q25 -35 84 -125q-49 20 -86 2 q0 -39 -2 -27q2 -12 28 -12q25 0 46.5 8t27.5 8q35 -78 70 -153q43 -106 43 -183q0 -33 -6 -59q33 -12 84 -43zM944 1239l-24 8l-21 -43l23 -12zM989 827q0 45 -139 308q-25 4 -49.5 7t-32.5 17q35 14 102 64q-59 8 -184 10t-180 10q10 -49 -68 -123q-84 -76 -84 -129 q0 -29 15 -59q-45 -29 -41 -60l32 9q23 6 33 -4q0 -10 -28 -41h-56q0 -10 9.5 -42t9.5 -40q8 0 17 16t17 16q8 -16 29 -32.5t21 -24.5q-49 -25 -84 -14q14 -63 28 -125q18 -76 41 -109q16 -23 72 -71q45 -41 53 -68q0 2 -4 16q-2 8 3 12.5t26 4.5q23 0 58.5 -16.5 t51.5 -16.5q-6 0 62 6q43 4 61 -6q27 84 117 127q4 37 25 88q-51 0 -52 29q18 18 66 -4q-8 55 -8 53q0 20 33 53q-2 35 -19 105q4 4 29 8q18 1 18 26zM635 131l-25 27l-16 -17l22 -26zM381 225l-21 49l-24 -10l20 -39h25zM821 735l-10 -24l-57 20v25zM717 721h-82v63 q33 -22 82 -63zM612 719q-8 0 -41 33q-31 -31 -49 -31q10 20 70 80q0 -8 10 -41t10 -41zM492 799l-41 -82l-23 82h64zM598 582l-8 -25l-58 21v24zM457 555l-78 20v29l78 -20v-29z" />
<glyph unicode="p" horiz-adv-x="1460" d="M385 -293h-47v31h47v-31zM1481 1595l-101 19v31l101 -19v-31zM1233 1595l-82 21v31l82 -23v-29zM1126 1595l-82 21v31l82 -23v-29zM1360 1374l-8 -24l-60 20v27zM1251 1360h-67l45 49q22 -35 22 -49zM1485 1145l-10 -25l-60 21v26zM848 1622l-8 -25l-60 21v27zM1419 688 h-30v66h30v-66zM1065 766l-41 -82l-25 10l41 80zM897 770q0 -55 -29 -84q12 29 -39 84h68zM846 688h-101v68q42 -25 101 -68zM672 705l-10 -27l-58 22v25zM1358 555q-23 -23 -85.5 -156t-127.5 -202q-98 -104 -246 -123q8 -8 30.5 -18.5t22.5 -18.5q-29 -18 -67 -21h-70 q-45 -4 -63 -36q-4 4 -101 83q-70 57 -94 58q-23 0 -22.5 -9.5t-22.5 -9.5q-27 0 -39 18.5t-20 35.5q-18 -37 -27 -50q-14 -20 -37 -32q8 -10 49 -11v-436q8 0 -108 -6q-68 -2 -117 8q0 45 33 66q27 14 55 29l-29 26q-25 -29 -96 6q18 18 35.5 73.5t36.5 74.5v383 q-23 150 -68 254q16 14 25.5 57t23.5 59q-41 20 -106 33q-100 18 -107 19q53 -18 93 -19q117 0 116 176q0 55 -12 152q-16 117 -18 139q68 37 145 37q27 0 80 -6t80 -6q72 0 131 32q4 -37 -41 -86q-84 -90 -92 -104q-27 -37 -52 -180q-23 -123 -22 -168q0 -53 80 -125 q2 -4 -27 -35q35 -51 123 -127q98 -86 133 -127q29 18 160 80q111 49 143 92q27 35 27 66q0 25 -16 41q18 8 39.5 44t43.5 72q-31 31 -51 31v82q37 0 68 31q-8 20 -74 162q-49 102 -49 129q0 61 74 108l16 10q0 8 -20.5 23.5t-30.5 36.5q-16 0 -31 -31q-168 -25 -520 -25 q-8 0 -107.5 12.5t-150.5 12.5q-25 0 -41 -2q6 10 10 51q4 33 25 43q-31 31 -70 31q37 37 37 133q96 -18 205 0q0 -27 9 -89.5t9 -86.5q8 0 15 22q6 31 12 39q33 49 135 95q96 41 160 41q78 0 213 -64q96 -47 192 -92h-55q0 -16 -33 -49q4 -4 15 -4q8 0 32.5 6t38.5 4 q0 -14 11.5 -32.5t23.5 -18.5q0 -10 -51 -60q4 -4 8 -20q2 -6 29 -6q18 0 18 4q0 2 -2 4v4q0 4 19 4q35 0 69 -102q23 -84 47 -168q2 -8 -4 -25.5t-4 -28.5q20 -39 21 -116q0 -84 -21 -183q15 -18 31 -18zM582 690h-103l19 47q39 0 84 -47zM627 287v0v0v0zM86 518l-84 21v30 l84 -20v-31zM973 1305l-70 22v-27l60 -22zM1202 33l-69 22v-26l59 -21zM403 414v30h-47v-30h47z" />
<glyph unicode="q" horiz-adv-x="1527" d="M1501 1417l-22 -47l-25 10l23 45zM606 1640l-8 -26l-61 22v25zM1495 698h-104q0 37 49 84q2 -27 -15 -43q27 -10 70 -41zM1421 598l-82 20v31l82 -22v-29zM393 1497l-10 -24l-59 20v27zM1350 780q0 -6 -17.5 -34.5t-17.5 -49.5q-10 0 -20.5 22.5t-18.5 31.5 q4 -133 -19 -314q-8 -74 -4 -246t-2 -235q-2 -12 7.5 -59.5t9.5 -73.5q0 -72 -58 -101q18 -6 52 -30v-82q-106 29 -228 20v64q35 8 107 33q-10 12 -86 8q-10 25 -17 143q-4 106 -41 146q0 4 27 17t27 40q0 23 -29 80q-92 -43 -197 -119q-29 -23 -149 -23q-33 0 -119 5 q-10 8 -53 77q-45 0 -82 23q-43 23 -43 59q0 18 12 41q-6 10 -31.5 11.5t-48.5 3.5q-18 39 -74.5 114.5t-76.5 128.5q-35 82 -31 187q-2 4 -21.5 11t-19.5 34q0 35 31 82q12 274 117 407q70 27 86 27q25 0 22 -10q-4 -18 4 -25q8 8 30.5 13t31.5 14q-23 29 -123 28v68h75 q6 4 7 14q0 12 -31 70q2 0 178 78q117 53 143 53q139 0 363 -125q6 4 16 45q-2 4 -11 26.5t-9 32.5q-16 0 225 0q20 -98 21 -170q0 -115 -54 -124q18 -14 47 -50q-4 -18 -4 -43q0 -35 23 -186q2 -8 -13.5 -18.5t-17.5 -36.5v-86q35 -25 105 -17zM49 778q4 -4 4 -14 q0 -43 -49 -68v82h45zM1085 1221q-78 0 -295 10t-362 10q23 -20 43 -39q31 -31 29 -51q-25 -31 -48.5 -60.5t-29.5 -80.5q-2 -2 -41 -23q-12 -35 -31 -104q-4 -14 -16 -33t-12 -39t11 -40.5t11 -25.5q0 -4 -4 -10q70 0 70 -28q-16 -16 -70 -17q27 -82 88 -235 q-18 -16 -35 -23q14 6 29 6q45 0 92 -57q61 -72 70 -78q0 6 -3 14.5t-3 10.5q0 10 28 10q18 0 43 -17.5t45 -17.5q82 0 187 78q12 8 32 33q14 20 21 20q6 33 47 109q35 68 35 110q0 23 -8 47q10 8 18 52.5t25 60.5q-72 0 -72 29q16 18 72 18q-27 37 -52 103q-41 109 -47 122 t-38.5 38.5t-41.5 39.5q57 40 213 58zM1194 88l-10 25l-41 -21v-26zM1171 -115v31h-47v-31h47zM817 63v31h-49v-31h49zM625 88l-11 25l-41 -21v-26zM856 1159l-10 -26l-60 22v27zM956 770l-79 -80l-17 19l78 79zM985 651l-22 -47l-25 10l23 45zM780 696h-65q0 55 28 86 q4 -27 -12 -43q4 -6 31 -20q18 -13 18 -23zM778 610h-82q23 47 82 23v-23zM516 698h-67v66q8 0 67 -66zM590 625l-10 -25l-60 21v26zM537 553l-11 -25l-59 21v26z" />
<glyph unicode="r" horiz-adv-x="772" d="M618 930l-53 -23v27l43 22zM721 670l-121 20v31l121 -19v-32zM582 696l-11 -24l-61 22v25zM723 1509q0 -31 -37 -30q0 -164 -18 -238q-59 -12 -432 -12q72 -29 272 -70q-109 -88 -109 -282q0 -80 4 -97q16 -66 86 -98h-77q-6 -16 -6 -49v-12q0 -43 -15 -62 q12 -63 12 -100q0 -57 -30 -115q23 -20 22 -37q0 -20 -33 -37q18 -12 35 -12q-12 -45 -8 -127q6 -141 6 -139h-213q-10 90 -6 168q8 117 8 98q18 -12 39 -12q16 0 31 8q-23 29 -88 29v1226h229q0 -41 13 -53q14 14 94 43q88 31 133 31q25 0 53.5 -10.5t34.5 -10.5zM631 506 l-84 22v31l84 -22v-31zM147 696l-10 -24l-61 22v25z" />
<glyph unicode="s" horiz-adv-x="1083" d="M418 8l-10 -24l-60 20v27zM1161 1386l-10 -26l-61 22v27zM1157 680h-67q0 70 12 70q8 -18 35 -41q20 -19 20 -29zM1065 680l-86 27q8 0 33.5 12t34.5 12q18 -35 18 -51zM328 1386l-11 -26l-61 22v27zM354 1231v0v0v0zM961 487q0 -94 -55.5 -231t-100.5 -170 q-31 -23 -100 -23q0 -8 9 -35.5t9 -35.5l-268 18q0 10 23.5 21.5t29.5 17.5q-104 27 -174 109q-61 74 -62 147q0 14 2 25q16 -4 33 12q-10 12 -69 12q0 6 8 20.5t8 41.5q0 18 -17.5 43.5t-15.5 46.5q-2 8 -19.5 20.5t-17.5 22.5q-16 0 58.5 9t208.5 9q0 -6 -8.5 -20.5 t-8.5 -40.5q0 -47 42 -131t59.5 -90t44.5 -6q23 0 77 28q70 35 86 41v137q-27 33 -88 33q0 10 19 21q27 12 33 20q-20 6 -39 37q-29 39 -31 41q-76 78 -139 78q-25 0 -30 -17.5t-11 -17.5q-10 55 -11 65q2 20 25 33q-53 29 -141 29q0 10 32 45q-57 137 -106 137 q39 264 94 410q33 39 64 55q23 10 22 10q0 -2 -37 41q12 0 43 -30q31 55 119 55t170 -66q100 -82 119 -221q-10 0 -43 33q-10 -10 -23.5 -22.5t-21.5 -22.5q143 -82 143 -172q0 -25 -19.5 -49.5t-43.5 -24.5q-18 0 -38 27.5t-42 27.5q-27 0 -45.5 -8t-24.5 -8 q-18 51 -76 137q18 0 93 37l-15 59q-59 -37 -114 -36q-35 0 -148 39q0 -35 92 -99q0 -4 -17.5 -17.5t-17.5 -39.5q0 -53 105 -117q74 -43 139 -63q29 -35 47 -52q33 -31 64 -43q-4 -14 20 -36q29 -29 35 -50q62 -219 62 -256zM170 725l-25 -49l-24 10l22 47zM92 696l-10 -24 l-62 22v25zM565 55l-18 -16l-27 27l19 18zM803 1278v49h-31v-49h31zM485 580v30l-84 21v-31zM377 326v32h-47v-32h47z" />
<glyph unicode="t" horiz-adv-x="933" d="M776 883l-10 -25l-57 21v24zM961 436q-37 0 -62 51q-8 0 -10 -10q0 -6 2 -21.5t2 -19.5q-6 0 -45 2h-55q37 23 90 80h78v-82zM805 547l-80 20v29l80 -21v-28zM756 1118q0 -29 -37 -28q-8 -18 -9 -65.5t-10 -74.5q-14 8 -77 13q-76 4 -93 6q29 -178 2 -355q0 -29 50 -28 q0 -10 -17 -21q-27 -14 -30 -20q4 -4 49 -62q31 -37 53 -45h-90q-14 -10 -15 -26l27 -29q12 10 59 10q-43 -27 -73 -74q-14 -207 -15 -520q-66 -8 -184 0q-8 43 -8 135.5t-8 135.5q35 0 49 14q-6 23 -33 62.5t-33 58.5q12 53 13 131q0 145 -52 166q27 4 70 26q-29 29 -51 29 v193q0 20 4 22q2 0 12 -4q8 -2 13 4q8 41 8 158q-2 0 49 -6q35 -4 70 6q0 8 13 13t19 13q-82 14 -307 15q-8 82 2 252q170 -8 289 14l-29 23l-106 -15q0 -16 6 119q4 82 -6 133q43 0 69 53q10 0 21 -18q12 -25 18 -31q8 8 13.5 29.5t13.5 30.5q-12 14 -47 14q-55 0 -66 -39 q0 2 -11 39t-11 78h219q-8 -29 -19.5 -57.5t-31.5 -39.5q0 -33 45 -61q-10 -74 -11 -256q59 -8 166 -41q13 -57 58 -80zM74 1133l-21 -48l-24 11l20 45zM272 438h-65l45 47q20 -33 20 -47zM186 426l-80 20v29l80 -20v-29zM41 391l-23 -45l-24 10l22 45zM522 -63v47h-30v-47 h30zM479 -174v29h-63v-29h63z" />
<glyph unicode="u" horiz-adv-x="1693" d="M100 -262l-14 -35l-82 31v35zM1020 1384l-211 25v43l211 -25v-43zM1618 700l-33 -63l-33 14l31 62zM752 1384l-162 27v41l162 -25v-43zM1606 166l-164 24v43l164 -26v-41zM971 680h-90v41h90v-41zM1628 -55l-112 28v41l112 -28v-41zM752 725l-113 29v41l113 -29v-41z M1634 1065q-72 -4 -137 -52t-133 -98q20 -39 41.5 -79.5t46.5 -55.5q10 -90 10 -239q0 -14 -18.5 -64.5t-18.5 -77.5q0 -37 27 -59v-29q-78 -211 -123 -370q-86 -23 -137 -95q-23 -33 -59 -125q-23 -6 -152 -61q-104 -45 -139 -45q-39 0 -50.5 16.5t-21.5 32.5 q-20 -25 -20 -47q-41 31 -82 59q-70 45 -131 45q-23 0 -45 -6q12 53 -21 119q-29 -23 -51 -22q-14 35 -31 69q-27 45 -94 56q2 125 -45 184q-35 45 -111 57q-70 4 -139 8q33 10 122 25.5t122 28.5q-45 37 -45 84q0 45 28 47q39 23 78 45q47 29 84 28q2 0 23.5 -28.5 t48.5 -46.5q43 -27 96 -27q0 -14 -23.5 -36.5t-46.5 -43.5q45 -31 125 -47q72 -14 144 -29q-94 6 -170 -26q104 -119 113.5 -125t105.5 -6h35q20 -2 30 -2q82 0 179 112q-45 43 -45 82q111 -12 110 55q0 25 -16 62q25 12 85 22.5t85 22.5q-25 10 -68 50t-72 50 q-35 14 -120 21q-111 8 -129 12q16 4 73 41q49 33 84 33q37 0 48.5 -16.5t23.5 -32.5q6 12 10 88q2 51 29 90q-135 16 -367 59h348q41 84 41 142q0 37 -26 61q-18 16 -39 35q41 100 41 192q0 143 -96 195q4 10 59 72q43 49 43 90q0 10 -2 20q27 0 107.5 15.5t123.5 15.5 q31 0 56 -6q0 -4 -4.5 -29t-4.5 -43q0 -86 82 -98q0 -14 -26 -31q-33 -23 -39 -31q-14 -51 -31 -164v-96l62 -65q16 25 16 47zM608 741h-100q-10 -51 -10 -73q0 -68 39 -115q-59 -51 -152.5 -69.5t-183.5 -37.5q0 18 -15.5 47t-29.5 33q-2 10 -2 25q0 37 41 170 q-18 18 -70 18q0 14 28.5 34t34.5 30q31 63 31 117q0 78 -96 174q4 0 24.5 -3.5t30.5 -3.5q41 0 41 39q0 27 -22 95q-23 61 -21 88q-10 43 19 71q-47 14 -121 56q160 20 149 176q74 -18 139 -19q66 0 121 19q-10 -59 -10 -84q0 -88 88 -127h-78q0 -66 6.5 -200t6.5 -206 q0 -117 -13 -213q37 4 75 -9.5t50 -31.5zM764 586l-31 -97l-35 15l29 82h37zM645 674q29 -47 -2 -109q0 14 -31 49q-37 45 -49 68q68 2 82 -8zM971 166l-137 24v43l137 -26v-41zM82 1067l-33 -66l-33 17l31 61zM1167 -127h-65v43h65v-43zM387 1360v43h-115v-43h115zM451 -80 v0v0v0z" />
<glyph unicode="v" horiz-adv-x="1832" d="M1767 1399l-153 24v39l153 -24v-39zM1745 1128q0 -16 -20.5 -54t-38.5 -56q6 16 -12.5 52t-39.5 54q18 0 58 -39q43 43 53 43zM1767 776l-106 27v41l106 -29v-39zM1739 649l-56 29v84q68 -23 68 -80q0 -21 -12 -33zM1008 1399l-177 24v39l177 -24v-39zM1526 676h-39v84 h39v-84zM1468 776l-106 27v41l106 -29v-39zM922 1110l-13 -33l-78 29v33zM1767 41l-106 27v38l106 -26v-39zM735 1417q-111 8 -207 -22q12 -12 68 -13q-2 -12 19.5 -75.5t21.5 -96.5q0 -49 -39 -67q35 -12 69.5 -26.5t45.5 -41.5l-27 -100h-293q4 27 -39 110 q-35 -35 -35 -65q-14 0 -28 24q-20 35 -29 41q-33 -14 -55 -14q10 6 76 29q59 18 86 45l-62 143q-49 115 -100 127q41 59 41 90q0 10 -7.5 35t-9.5 47q104 51 138 51q25 0 24 -12q0 -4 -2 -11t-2 -9q0 -14 25 -15q33 0 57.5 10.5t30.5 10.5q12 -123 98 -160q67 -19 135 -35z M1538 250h-199v39h199v-39zM1608 1128q0 -10 -23.5 -41.5t-23.5 -44.5h-66q-31 -2 -31 11q0 2 2 8v8q0 10 -6 16q-80 -53 -119 -157q-23 -57 -49 -205q-27 -139 -57 -211q-70 23 -80 23q-14 0 -27 -13q59 -61 91 -61v-80q0 -23 -17.5 -52.5t-17.5 -43.5q0 -6 4 -15 q-57 -23 -78 -51q10 -106 -70 -299q-2 -12 7.5 -49t9.5 -45q-106 -33 -291 -27q-10 10 -10 33q0 41 26 70q-14 14 -65 14q0 25 -14.5 78t-14.5 76t8 36q-6 4 -28.5 54.5t-61.5 81.5q-180 31 -377 26q139 12 439 74q-10 10 -23 12q-8 2 -20 0q-16 -2 -23 -2q-14 55 -31 111 q-39 98 -108 96q0 14 43 57q-35 59 -88 60q0 14 43 57q0 59 -70 76l82 29q55 18 89 18t44 29.5t21 60.5h53q41 -2 53 -2v-94q35 -16 141 -16q98 0 125 6q51 14 82 75v134q-4 4 -10 26q-2 10 -35 10q-35 0 -46 -21.5t-17 -21.5q14 53 -6 54q10 12 32 -11q10 25 58 43 q61 25 86 46q25 100 39 139q35 82 84 88q-16 23 -115 16q76 37 168 221q145 -49 221 -49v-174q-25 -37 -57 -115q-39 -98 -56 -133q10 -23 42 -41t44 -43q6 0 37 22.5t58 22.5zM1540 90q-61 -63 -125 -63q-78 0 -78 67l67 -2q68 -2 136 -2zM111 1397l-107 28v39l107 -26v-41 zM1245 53l-14 -33l-76 27v35zM53 1044h-39v84h39v-84zM301 662l-14 -33l-82 41l12 32zM117 743l-13 -32l-77 26v35zM645 61q-12 0 -55 -16t-55 -16q-25 43 -25 65zM111 248l-107 26v39l107 -26v-39zM180 -188l-153 24v39l153 -25v-38zM1309 1147v39h-64v-39h64zM463 1153 l-14 33l-54 -27v-35zM987 678v102h-205q47 -14 138 -53q-27 -27 -69 -46t-46 -22q59 -39 59 -88q0 -23 -16.5 -64.5t-16.5 -62.5q4 0 32 -3t40 -1q16 2 17 13q8 94 10 110q16 86 57 115zM784 510l-12 33l-55 -29v-33z" />
<glyph unicode="w" horiz-adv-x="1837" d="M1901 1368h-52q-25 0 -24 6q0 2 2 7t2 10q0 6 -6 12q-4 -10 -25.5 -31.5t-23.5 -48.5v-82q-117 4 -232 0v78q0 18 4 20l8 -4q6 -2 9 4q0 16 8 70q8 61 8 100h266q0 -10 -33 -45q8 -18 44.5 -47t44.5 -49zM1049 1358l-86 20v33l86 -22v-31zM762 1640l-10 -26l-60 22v27z M1087 1247q-100 0 -176 -24q-23 33 -22 49q16 6 43 6q61 0 155 -31zM469 1241h-107q-23 0 -22 6v8q2 4 2 9q0 6 -6 12q-12 -16 -12 -35h-84q-29 88 -74 268h248q10 -68 20 -133q15 -78 35 -135zM1737 989q-55 -20 -74 -94q-27 -106 -33 -117l31 -28q27 16 76 16 q0 -10 -9.5 -43t-9.5 -43q-10 0 -22.5 22.5t-18.5 28.5q-72 -111 -151 -338q-61 -184 -123 -368l4 22q2 14 -4 23.5t-27 9.5q-45 0 -71 -27q6 -6 32 -22q18 -10 19 -21q-27 2 -139 2q10 25 88 60q-27 14 -105 10q-18 43 -18 94q0 68 32 94q-25 6 -90 31q-6 66 -86 328 q6 0 31 20q-29 10 -82 66q-14 -25 -45 -68v-82q45 -14 109 -45q-35 4 -113 -10q-29 -55 -59 -152q-27 -82 -54 -163l-20 -78q-20 -55 -43 -56q-12 0 -39 2q-18 2 -31 0q-18 -2 -39 -12q33 -18 125 -12q-29 -37 -106 -37q-16 0 -88 8q-39 170 -72 238q10 6 31 20 q-35 27 -90 162q-43 113 -91 100q27 6 72 31q-33 84 -67 168q-41 106 -41 170q0 23 6 41q-20 33 -41 107.5t-37 109.5q27 63 90 64q18 0 18 -7q0 -4 -4 -11t-4 -11q0 -6 19.5 -6t60.5 -2h70q0 -2 123 -512q23 -92 61 -121q14 20 21 57q8 45 16 60q-12 12 -70 12q0 10 19 22 q27 14 33 21q-33 33 -33 43q8 0 27.5 -17.5t27.5 -17.5q31 39 31 57q0 20 -31 29q59 33 86 152q20 98 39 194q172 57 188 58q78 0 150 -232q37 -139 72 -276h51q18 0 18 8q0 6 -11 19.5t-11 17.5q27 4 71 14q57 68 58 199q0 23 -2 39q55 33 49 153q31 16 59 35q39 23 68 23 q18 0 62 -10.5t61 -10.5v-211zM270 682h-213q0 18 10.5 39.5t10.5 28.5q35 -35 86 -35q33 0 39 3t18 32q10 0 25 -27q20 -35 24 -41zM1669 1329l-10 25l-43 -21v-26zM1376 653q-16 0 -45 25l-45 -37q0 -41 49 -90q0 61 41 102zM895 735v49h-33v-49h33z" />
<glyph unicode="x" horiz-adv-x="1347" d="M1331 1622l-10 -27l-59 23v27zM1223 993l-11 -26l-59 22v27zM555 1608h-104l20 47q14 0 43 -15.5t41 -31.5zM1116 993l-10 -26l-62 22v27zM1366 688l-10 -26l-60 22v27zM1255 688q-51 4 -86 -14q6 6 29 40t33 44q24 -25 24 -70zM608 1227h-104q-25 0 -25 6q0 2 2 7t2 9 q0 6 -6 13q-10 -23 -49 -33q-61 -18 -63 -21q0 12 -6.5 40t-6.5 40q0 18 8 33q-51 33 -124 33q0 10 34 43q-4 8 -32 47q-20 27 -21 47q53 4 96 4q147 0 201 -47q37 -35 35 -121q36 -24 59 -100zM145 1622l-10 -27l-59 23v27zM1253 500l-118 18v31l118 -19v-30zM193 1356h-84 q10 20 36 26q25 4 48 -4v-22zM1219 -12q-102 18 -246 18q0 10 18 21q27 14 33 20q-8 4 -57 23q-35 10 -45 28q-63 133 -197 391q-27 4 -39 -12q0 -33 -31 -78q-27 -35 -53 -69q-29 -41 -71 -139.5t-70 -143.5q20 -53 20 -59q-2 0 -80 20q-49 14 -88 68q-8 -8 -6 -41t-6 -47 h-84q10 23 35 39q33 18 35 22q-29 29 -51 29v84q43 8 81 96q25 59 48 119q25 33 84 121q-4 4 -33 20q-18 12 -19 23q55 0 72 14q2 16 -16.5 36.5t-18.5 37.5q8 0 27.5 -7.5t30.5 -7.5l30 29q-10 18 -25.5 57t-25.5 58q10 -16 18 -17q6 0 13 7l6 6q6 0 8 -52q59 27 59 74 q0 20 -8 51t-8 60h-90q0 10 23.5 23.5t27.5 19.5q-106 143 -125 215q39 61 109 61q33 0 92 -21.5t80 -45.5q-12 -39 18 -95q31 23 58 74q39 80 43 88q6 0 35.5 -7t46.5 -7q14 0 22 6q-31 31 -72 31q31 119 107 221q-6 4 -33 20q-18 10 -18 21h319q-23 -78 -74 -170 q-35 -66 -71 -129q-18 -4 -94 33q-31 -29 -31 -39q47 -12 110 -41q-63 -127 -198 -363q0 -27 69 -26q0 -6 -7 -24.5t-7 -45.5q0 -16 33 -65q41 -61 90 -82q0 -6 -35 -41q39 -39 29 -86q53 -47 180 -306q2 -6 -16 -57q0 -2 19.5 -21.5t19.5 -39.5zM391 662l-100 18v31 l100 -19v-30zM160 799h-70l45 49q25 -35 25 -49zM250 670h-121q-6 14 -74 82q57 0 80 -47q51 49 80 49q0 -25 -18 -41q6 -6 32 -21q21 -12 21 -22zM285 500l-121 18v31l121 -19v-30zM74 688l-11 -26l-59 22v27zM236 -174l-11 -27l-61 23v26z" />
<glyph unicode="y" horiz-adv-x="1343" d="M979 1632h-61v29h61v-29zM1266 1038l-95 19v28l95 -18v-29zM1436 750l-80 20v29l80 -21v-28zM1305 776l-11 -24l-55 20v25zM420 1632h-78v29h78v-29zM233 1632h-45v29h45v-29zM522 1286h-213q-18 39 -18 57q0 29 31 50l-27 24l-14 -14h-76q0 10 21.5 22.5t27.5 18.5 q-10 8 -17.5 42t-15.5 48h215q29 -39 49 -117q29 -111 37 -131zM1321 1507h-55q-23 -49 4 -100q-45 -23 -62 -61l-28 -62q-92 6 -148 -10q39 -18 117 -29q0 -4 9 -13t9 -34q0 -14 -36.5 -139t-38.5 -174q-18 -8 -43 -33q16 -12 32 -12q-35 -66 -90 -195q-47 -143 -135 -424 q-12 -16 -40 -27.5t-54 -21.5q6 -6 41 -14t43 -17q-4 -8 -74 -172q-51 -125 -94 -125q-100 0 -119 -10q2 -2 6 -18q2 -6 27 -6t35 6t16 6q-29 -39 -81 -67.5t-79 -28.5q-18 0 -66 10t-77 10v229q49 18 172 25q43 51 87 107.5t44 82.5q0 29 -38 160t-75 228q-18 51 -36 104 q-29 63 -70 80q0 4 33 37q-33 10 -84 39l24 -4q18 -2 30.5 3t12.5 23q0 23 -47 146q-57 150 -71 202q20 25 20 39q66 -33 107 -33q20 0 88 35q98 -307 168 -440q33 33 45 33q4 -10 -10.5 -21.5t-28.5 -23.5v-60q25 -16 24 -35q0 -8 -5 -24t-3 -25q6 -14 21 -14 q51 119 83.5 230.5t61.5 220.5q47 147 123 188v96q-14 14 -46 31.5t-38 26.5h72q8 37 32 104zM463 717l-23 -45l-22 10l20 43zM340 776l-10 -24l-56 20v25zM492 625l-9 -25l-57 21v24zM377 690l-17 -22l-59 39l14 24zM373 625l-8 -25l-58 21v24zM152 817q-51 0 -68 -16 q6 -6 31 -21q18 -10 18 -20h-113v82zM86 625l-10 -25l-56 21v24zM455 -180v28l-80 21v-29z" />
<glyph unicode="z" horiz-adv-x="1841" d="M1794 643q-8 0 -27.5 -14.5t-56.5 -14.5q-35 0 -39 17q-4 27 -10 33q-31 -31 -45 -31q-8 0 -17 4q20 23 78 43q78 29 88 33q29 -23 29 -70zM1575 766l-14 -35l-82 29v37zM1444 729l-166 27v43l166 -27v-43zM1450 664l-72 -33v37l60 30zM1794 156h-217v43h217v-43z M774 1049q-35 -8 -61 -9q-80 0 -113 70h74q25 2 24 -8q0 -4 -5 -13.5t-5 -13.5q0 -12 25 -12q51 0 45 2zM1501 188l-74 -30v35l60 30zM1722 1421h-227q0 -78 -62.5 -160.5t-134.5 -111.5q29 -31 39 -41q20 -27 35 -61q-47 -31 -92 -62q-72 -47 -131 -61q8 -10 45 -29 q27 -12 27 -27l-31 2q-23 0 -35 -2q-20 -4 -31 -14q31 -16 60 -53q18 -29 39 -56q-55 12 -125 -20q14 -12 51 -26.5t49 -26.5q-63 4 -108 -56q-33 -57 -67 -116.5t-75 -59.5q-23 0 -49.5 8.5t-40.5 8.5q-16 0 -35 -6q41 -41 99 -41q-63 -174 -66 -181q-39 -80 -106 -149 q35 -16 96 -17q-121 2 102 3q33 0 33 -13q0 -2 -2 -9t-2 -13q0 -8 8 -17q18 25 19 47h116q0 -23 24.5 -47t65.5 -24t58 24q2 2 16 37q27 14 102 15q27 0 78 -25q68 -33 109 -84q0 -14 -29 -29q-37 -16 -45 -26q35 -43 35 -99q0 -27 -10 -47q61 -16 149 -59q-53 2 -164 -6 q-119 -10 -170 -10q-25 0 -68.5 -33t-72.5 -33q-31 0 -111.5 38t-111.5 38q-41 0 -41 -29q0 -8 3 -24.5t3 -20.5q-20 23 -66 47q-51 27 -88 27q-31 0 -218 -25.5t-218 -25.5q-37 0 -62.5 27.5t-33.5 27.5q0 10 29 31q45 29 67 51q-27 27 -39 97.5t-37 107.5q92 33 177 168 q-63 16 -150 57q37 -2 156 12q12 10 78 113q51 82 102 82q37 0 39 -15q4 -29 10 -34q12 12 31.5 43.5t32.5 44.5q-23 29 -123 16q92 246 264 463q2 10 2 24q0 20 -8 63.5t-8 63.5q37 12 110.5 35t112.5 37q-12 10 -25 14q-10 2 -22 0q-20 -2 -25 -2q0 12 11.5 39t11.5 39 q-16 10 -39 10q-18 0 -60.5 -8t-64.5 -8q-55 0 -123 74q-39 -74 -139 -74q-20 0 -73.5 7t-86.5 7q-45 0 -86 -10q0 31 2 62q4 51 43 96q-16 16 -70 16q0 18 24.5 95t24.5 122q35 0 94.5 -10t90.5 -10t74 24.5t75 24.5q31 0 68 -20.5t57 -22.5q55 -6 461 -6q41 0 51 12 q2 6 2 33h94v-176q88 -17 252 -62zM295 1403l-215 27v43l215 -27v-43zM1401 193l-15 -37l-83 30v37zM727 766l-14 -35l-84 29v37zM395 1018h-92q0 27 14 55q20 37 54 37q0 -12 12 -46t12 -46zM1194 154l-117 28v43l117 -28v-43zM608 702l-33 -65l-34 14l30 66zM319 729 l-190 27v43l190 -27v-43zM246 711q0 -59 -90 -146v146h90zM102 766l-14 -35l-84 29v37zM98 520h-94q0 8 4 55.5t4 75.5q0 -29 33 -65q45 -50 53 -66zM197 145h-97l58 68q16 0 27.5 -24t11.5 -44zM971 1378v43h-144v-43h144z" />
<glyph unicode="&#xad;" horiz-adv-x="1202" d="M1280 -399h-49v30h49v-30zM856 1266l-10 -25l-60 21v26zM1288 117l-22 -47l-25 10l23 47zM121 1239l-119 18v31l119 -18v-31zM1229 57h-68q-8 51 27 84q0 -41 41 -84zM1083 207l-100 18v31l100 -18v-31zM1016 180l-8 -26l-62 22v25zM1137 45l-101 21v30l101 -20v-31z M1085 549q-25 -76 -24 -121q0 -27 6 -49q-90 -23 -256 -23q-20 0 -20 11q0 2 2 7t2 7q0 10 -21 10q-23 0 -22.5 -17.5t-20.5 -17.5q-29 0 -41 18.5t-22 35.5q-12 -12 -13 -52q-53 0 -170.5 9.5t-160.5 9.5q0 8 32 41q-45 18 -123 67v64h852zM1032 115q-23 0 -57 -15 q-10 -6 -6 -20q8 -20 8 -25l-139 27q20 0 55 22q29 18 59 39zM1065 -43l-82 20v31l82 -22v-29zM1049 289h-816q12 137 29 137q8 -8 8 -23q2 -10 -1 -29.5t-3 -23.5q6 -6 31 -26h731zM819 57h-67q-8 51 26 84q0 -41 41 -84zM856 -16l-10 -25l-60 21v26zM713 57h-54 q-25 -2 -24 4q0 2 2 7.5t2 9.5q0 6 -6 12q-12 -18 -12 -33h-68q10 20 37.5 28.5t32.5 12.5q-14 25 -15 41q20 0 51 -33q42 -43 54 -49zM1155 -399h-156v30h156v-30zM481 233l-8 -26l-59 22v27zM977 -399h-66v30h66v-30zM453 139l-21 -82h-31l21 82h31zM299 205l-82 22v29 l82 -20v-31zM887 -399h-66v30h66v-30zM530 -43l-100 18v31l100 -18v-31zM365 61v0v0v0zM193 207l-101 18v31l101 -18v-31zM799 -399h-101v30h101v-30zM322 -16l-11 -25l-59 21v26zM301 102q-29 -68 -88 -67q-23 0 -40 26.5t-40 26.5q-27 0 -54.5 -10t-55.5 -23q0 8 -10.5 42 t-10.5 42q10 0 34.5 -20.5t41.5 -30.5q14 14 14 51h84q0 -39 10 -51q10 10 38 27.5t38 25.5q0 -12 13.5 -25.5t25.5 -13.5zM586 -399h-49v30h49v-30zM496 -399h-494v30h494v-30zM997 414l-45 49q-16 -16 -43 -29q8 0 43 -10t45 -10zM647 412l-18 102h-31l18 -102h31z M588 432l-66 66q0 -16 -22 -45q18 -21 88 -21z" />
<glyph unicode="&#xc1;" horiz-adv-x="1683" d="M1704 1612l-145 20v33l145 -20v-33zM1683 1489l-90 27q8 0 33 14t33 14q24 0 24 -55zM1513 1612l-106 20v33l106 -20v-33zM1251 1518q-31 -31 -86 -31q-4 0 -4 4q0 6 9.5 24.5t9.5 26.5zM1106 1536l-25 -51l-26 12l24 47zM1020 1612l-125 20v33l125 -20v-33zM868 1612 l-106 20v33l106 -20v-33zM680 1612l-242 18v35l242 -20v-33zM1636 485h-32v70h32v-70zM631 1526l-70 -45l-16 26l67 43zM395 1610l-88 22v33l88 -23v-32zM473 1538q-53 -53 -125 -47h-82q113 41 207 47zM266 1640l-10 -28l-63 24v27zM147 1612l-143 20v33l143 -20v-33z M1495 -256q-59 20 -203 20q4 57 -39 144q31 0 64 -33l29 29q-16 25 -62 43q-33 14 -63 26q0 25 -39 110t-39 130q0 57 47 94q6 18 6 45q-23 10 -53 10q-47 0 -119 -24q27 -29 10 -45q-4 2 -16 43q-10 33 -33 33q-43 0 -82 -39q-53 20 -131 20l-33 -35q0 -10 21 -28 q31 -25 37 -31h-58q-25 0 -24 8v6q2 6 2 9q0 8 -6 14q-35 -37 -35 -76q-2 8 -23 37q-68 -39 -92 -127q-16 -66 -35 -133q-27 -61 -108 -62q-10 0 -35 2q-18 0 -30.5 -2t-30.5 -12q8 -10 13 -18t33.5 -8t39 -18.5t16.5 -18.5q23 8 39 34q20 37 24 39q0 -61 -36 -166h-222 l549 1711q-16 23 -53 22q-20 0 -37 -8q0 55 51 51h285l-37 -37q-20 -25 -20 -55q0 -20 32 -121q41 -121 48 -151q23 -92 108 -150q0 -10 -10 -22q-20 -18 -23 -21q18 -72 64 -166q4 -8 -2 -37q-8 -39 -8 -61q0 -25 38 -57q43 -39 50 -54q27 -78 26 -157q0 -57 -14 -109 q23 -25 61 -74q53 -94 97 -354q0 8 -23 37q-47 -37 -47 -80q51 -27 111 2zM1462 -371l-10 -26l-63 22v29zM215 530l-25 -51l-26 13l24 49zM215 455l-25 -52l-26 13l24 49zM793 -399l-88 22v33l88 -23v-32zM381 -274l-10 -29l-64 24v27zM1059 1042v33l-109 21v-33zM1143 836 l-29 30l-18 -20l26 -27zM1124 713v51h-32v-51h32zM1157 629h-92v-70q39 13 92 70zM1024 575q0 29 -55 181q-72 199 -84 237q-51 -53 -99 -219q-49 -180 -84 -229q47 -10 160 -13q104 -2 135 -12q10 8 18.5 17t8.5 38zM575 561v107h-32v-107h32zM698 313q0 18 -22 54 q-23 -10 -58 -7q-57 6 -45 7q-29 -43 2 -74q45 0 83 10t40 10zM500 340l-27 10l-24 -49l26 -10zM489 209v33h-51v-33h51zM459 66l-17 24l-67 -43l16 -27z" />
<glyph unicode="&#xc2;" horiz-adv-x="1191" d="M297 154h-35v51h35v-51zM391 -164l-20 -18l-29 28l20 19zM1079 1612l-323 18v35l323 -20v-33zM985 1511q-10 0 -47 -12t-47 -12l22 53zM692 1610l-108 22v33l108 -20v-35zM557 1612l-168 20v33l168 -20v-33zM287 1612l-129 20v33l129 -20v-33zM113 1610l-109 22v33 l109 -20v-35zM1098 205q0 -10 -21 -35q-14 -16 -30 -35q-16 -43 -35 -89t-66 -44q10 -10 58 -10q-47 -92 -115 -92q-137 0 -203 6q-10 10 -19.5 21.5t-37.5 11.5q-41 0 -109 -35v-86q-14 -14 31 -15q25 0 92.5 39t89.5 39q25 0 25 -19.5t24 -19.5q25 0 25 18.5t24 16.5h76 q-51 -119 -110 -143q-20 -8 -121 -8q-102 0 -162 20q-10 -10 -25.5 -14t-25.5 -15q49 -12 135 -45h-115q-20 -2 -20 9v6q2 6 2 8q0 12 -22.5 12t-27.5 9.5t-28 9.5h-162q-8 -8 -13 -32t-15 -24v150q27 0 62.5 28.5t49.5 59.5q-4 4 -8 22q-2 8 -31 9q-31 0 -30 -13 q0 -4 3 -12t3 -14q-25 25 -70 24q0 12 4 27q10 31 37 51h14q-59 33 -59 109q0 27 10.5 88t10.5 90q0 82 -58 123q45 37 45 110q0 16 -2 45t-2 43q0 72 57 95q12 10 13 16q0 10 -25 10q-27 0 -33 -8t-12 -8q0 -47 8 411q2 248 -10 412q375 -14 477 -14q98 2 156 16 q0 -41 -53 -67q4 -4 14 -50q10 -37 33 -37t22 7q-2 2 -4 8q0 6 21 6q31 0 78 -90q37 -76 59 -150q8 -25 8 -108q0 -92 -31.5 -200.5t-85.5 -178.5q0 -10 30 -26.5t40 -30.5q106 -145 104 -209v-125q-10 -2 -18 -2q-33 0 -63 39q-20 29 -43 57q-14 -14 -15 -57 q-63 31 -205 80q0 10 21 24q29 16 35 23q-6 20 -47 47.5t-50 38.5q10 6 39 4q43 -6 58 -6q70 0 69 32v12.5v12.5q0 31 27 51l-10 10h-9q-12 -2 -31.5 -2t-49 -28.5t-54.5 -28.5q-20 0 -93 30.5t-111 32.5q-2 16 -23 54q-8 0 -10 -13q-2 -6 0 -22q2 -20 2 -23q-20 2 -52 -16 t-61 -35q18 -20 66.5 -40.5t66.5 -41.5h-61q-18 -29 -19 -53q0 16 17 -78q-41 -74 -21 -190q4 -20 -13 -67.5t-17 -70.5q0 -106 163 -106q98 0 171 37t96 92q55 133 55 199h63q25 0 62 -11q29 -8 55 -16q31 -53 66 -53zM1092 1513v0v0v0zM868 1163q-14 6 -49 62 q-29 47 -55 47q-8 0 -375 -62v-381l221 -22q29 10 84.5 43t75.5 39q0 47 -12.5 138t-12.5 130q0 33 5 57q20 0 61 -25.5t57 -25.5zM840 739v0v0v0zM606 676v51h-35v-51h35zM383 705v32h-109v-32h109zM367 319q-82 0 -131 23q0 -35 40 -74q40 0 91 51z" />
<glyph unicode="&#xc3;" horiz-adv-x="1097" d="M1051 1608l-97 24v35l97 -25v-34zM616 1610l-198 20v37l198 -22v-35zM348 1610l-158 20v37l158 -22v-35zM1057 793l-13 -31l-67 24v31zM803 987l-96 25v35l96 -25v-35zM768 793l-12 -31l-70 24v31zM637 760l-137 22v37l137 -22v-37zM1071 221l-96 25v37l96 -25v-37z M1155 90h-76v55h76v-55zM1055 117l-99 -29v59zM1055 1550q-23 -41 -42.5 -79.5t-21.5 -67.5v-113q-47 -10 -117 -10q-49 0 -118 2q-76 4 -84 4q-18 0 -19 -8q0 -4 4.5 -12.5t4.5 -12.5q0 -8 -21 -8q-23 0 -56.5 20.5t-56.5 20.5q-51 0 -84 -41q-45 -61 -73 -78q0 -20 24 -57 q27 -43 31 -59q2 -66 4 -133q2 -94 43 -111q0 -10 -22 -37q-27 -35 -37 -55v-428q23 -23 69.5 -31t55.5 -16q-33 -12 -64 -23q-37 -16 -61 -39q16 -66 16 -297q-29 0 -47 21l-33 -37v-51q25 0 32 15t11 30q14 -35 15 -62q0 -41 -35 -53q10 -10 30.5 -17.5t30.5 -19.5 q0 -10 -11 -46t-11 -46h-203q6 35 6 80q0 41 -7 134t-7 142q0 55 6 103l-17 18h-190l39 39q16 10 57 4q53 -8 76 -8l55 57v1235q-35 102 -106 103q-10 0 -30.5 -2t-31.5 -2q-23 0 -39 8q100 14 326 33q207 18 254 18q271 0 455 -27zM834 264l-27 -55l-29 12l27 53zM930 117 q-6 0 -50 -14.5t-69 -14.5q-20 39 -20 59zM723 268q-37 -55 -53 -43q-6 4 -37 -2q-39 -8 -72 -8l23 53h139zM84 793l-10 -31l-70 24v31zM762 100h-303v37h303v-37zM330 1149q0 14 -32 31.5t-48 17.5q47 -47 47 -96q19 18 33 47zM350 412l-102 -31h76zM317 -158v76h-36v-76 h36zM350 -207h-98v-55h72q22 18 26 55z" />
<glyph unicode="&#xc4;" horiz-adv-x="1802" d="M1741 737l-156 23v35l156 -23v-35zM1745 1599l-10 -28l-68 24v29zM1743 1483q-113 0 -215 -27q-25 39 -25 57q53 -8 158 -14q72 -6 82 -16zM1274 1569l-94 22v35l94 -22v-35zM1133 1569l-115 22v35l115 -22v-35zM1274 961l-94 22v35l94 -23v-34zM625 1569l-95 22v35 l95 -22v-35zM1415 737l-115 23v35l115 -23v-35zM487 1497l-10 -29l-67 25v31zM1741 201h-96v55h96v-55zM387 1497l-12 -29l-68 25v31zM719 1120v0v0v0zM205 1599l-12 -28l-68 24v29zM1561 229l-138 -28v57zM1679 82h-219q57 25 117.5 37t79.5 18q22 -39 22 -55zM260 1468 h-256v37h256v-37zM1540 -385q-102 0 -323.5 -2t-231.5 -2q-23 0 -36 20.5t-36 20.5t-22 -12q0 -2 2 -9v-10q0 -10 -21 -10q-80 0 -172 61q-16 -16 -16 -59q-70 39 -106 39q-18 0 -19 -8q0 -4 4 -12.5t4 -12.5q0 -8 -20 -8q-25 0 -25 20.5t-24 20.5q-27 0 -42.5 -10.5 t-39.5 -10.5l-250 -18q0 6 -12.5 27.5t-12.5 52.5q0 25 45 86l62 86q-16 76 -17 72q0 33 45 94q8 12 9 32q-31 27 -133.5 28t-151.5 40q162 -8 330 27q8 6 8 16q0 25 -33 57q53 25 57.5 58t6.5 69q68 0 139 35q-16 20 -53 21q-25 0 -45 -11v199q47 0 69 35q14 131 53 256 t199 493v78q-23 29 -96 -8q-25 39 -25 57q307 23 789 23q57 0 57 -57q-37 0 -135 -5.5t-164 -5.5q-94 0 -188 9q-16 16 -17 -31q0 -31 88 -279q135 -385 148 -422q39 39 45 39q0 -6 -28.5 -32.5t-28.5 -55.5q0 -51 40.5 -81.5t92.5 -30.5q68 0 67 -17q-66 4 -139 -35 q20 -14 39 -14q-4 -12 -4 -26q0 -39 41 -135.5t41 -131.5q0 -49 -56 -59q39 -8 119 -31q31 -182 31 -274q0 -59 -8 -115q16 -16 78 -16q-7 -58 22 -115zM442 737l-235 23v35l235 -21v-37zM82 768l-10 -29l-68 25v29zM406 -211h-140q0 -57 68 -57q33 0 46.5 19.5t25.5 37.5z M948 1094v75q-57 -27 -114 -26q-25 0 -37 8q0 -49 -25 -74q59 0 118.5 8.5t57.5 8.5zM1751 80v55h-35v-55h35zM1257 170q-86 -6 -161 10q-90 20 -103 66q57 29 101 18q-25 45 -50 137q-33 109 -40 131q-14 6 -33 15.5t-19 21.5q29 29 59.5 57.5t41.5 53.5q-10 0 -33 -18.5 t-33 -18.5q-90 125 -123 387q-37 -39 -73 -112q10 -20 36.5 -43t26.5 -33q-12 -4 -25 -4q-10 0 -24 5t-21 5q-6 0 -12 -6q0 -39 14 -54q78 0 66 0q31 -2 41 -18q-63 -16 -176 -70q-4 -55 -27 -149q-25 -102 -28 -135q-10 -18 -39 -47q-29 -133 -76 -201q6 -6 57 -23 q43 -14 45 -34q-25 -25 -71 -39q-63 -18 -70 -23q8 -16 8 -39q0 -41 -29 -90q2 0 87 -15.5t208 -15.5q160 0 396 25q20 2 20 27q0 20 -68 155q-135 -18 -430 -18q-33 0 -36 14q2 -12 2 29q53 6 303 16q182 8 288 33zM1294 -174v35h-55v-35h55zM1368 -258q-55 0 -55 49 q-33 -18 -107 -18q-29 0 -75 9t-52 9l-22 -55q43 0 136 3t175 3zM1133 -174v35h-76v-35h76zM1030 -276v36h-94v-36h94zM911 -262q-18 20 -28 55l-52 -55h80zM442 152v34h-73v-34h73zM801 -260q-33 4 -33 51q-14 0 -24.5 -18.5t-10.5 -32.5h68zM690 -238l-98 29 q0 -18 -23 -55zM485 -160l-71 33l-27 -33h98zM932 229q-125 -31 -262 -30q-57 0 -58 57z" />
<glyph unicode="&#xc5;" horiz-adv-x="1142" d="M449 -334l-11 -26l-63 22v27zM1225 1612l-86 20v33l86 -23v-30zM1116 1628q-51 0 -164.5 -13t-132.5 -13q-98 0 -241 47zM555 1612l-346 20v31l346 -18v-33zM182 1612l-123 20v33l123 -20v-33zM932 604q-4 -27 -47 -26q-25 0 -52.5 27.5t-50.5 27.5q-29 0 -42 -19.5 t-23 -35.5q-10 8 -32.5 24t-31.5 25q-8 0 121 43q18 -8 78 -32t80 -34zM1004 -182q-45 -23 -148 -23q-23 0 -22 19v0q0 18 -25 18q-18 0 -46 -16.5t-46 -16.5q-242 0 -295 8q-23 -2 -47 -28q-18 -18 -35 -39q4 18 4 31q0 12 -27.5 30.5t-33.5 83.5q20 -2 43 -2q94 0 211 58 q2 -27 -15 -43q4 -6 8 -11q2 -2 11.5 -1t25.5 1q27 0 52.5 29t50.5 55q-25 25 -47 29h-56q-12 0 -229 -53q0 10 -19.5 27.5t-37.5 31.5q0 -14 22 76q-43 92 -43 160q0 29 21 45l24 20q25 2 68 23q0 25 -41 53q-63 45 -70 51q0 10 10.5 31.5t12.5 28.5q-16 113 18 221 q-10 14 -12 57q-6 86 -6 92q-20 176 0 338q10 86 10 146q0 109 -33 194h742q0 -25 -31 -63q16 -102 16 -136q0 -96 -123 -96q-25 0 -145.5 9.5t-142.5 9.5q-68 0 -86 -68q-8 -29 -9 -127q0 -20 9.5 -108.5t9.5 -128.5q43 -29 123 -29q27 0 77 3t74 3q96 0 127 -47 q12 16 25.5 34.5t36.5 18.5q0 -76 -33 -119q16 -12 35 -24q20 -18 20 -49q0 -23 -11 -52.5t-11 -48.5h-447q-14 -45 -29 -90q-18 -53 -43 -88q51 -31 52 -104q0 -25 -11 -95q-8 -61 -6 -94q78 -16 310 -16q29 0 28 -12q2 -20 8 -25q12 16 13 35h51q49 -2 94 -2l-20 -86 q-10 0 -47 35h-50l-30 -31q18 -68 114 -68q16 0 31 4q0 -10 10.5 -34.5t10.5 -34.5zM598 -240l-10 -26l-64 22v27zM1053 1518v0v0v0zM471 1462l-27 11l-22 -48l27 -12zM408 1055v30h-52v-30h52zM727 743l-10 27l-43 -22v-27zM602 692v68h-33v-68h33zM633 614q-39 18 -66 66 q-33 2 -102 22q0 10 7 31t7 29q-23 -20 -30 -76q-12 -76 -17 -88q37 35 57 35q4 -4 11 -35q4 -20 30 -20q29 -1 103 36zM428 588q-10 6 -106 100q0 -16 -23 -49q66 -33 59 -98q10 10 35 24.5t35 22.5z" />
<glyph unicode="&#xc6;" horiz-adv-x="1269" d="M1161 1233q-109 -31 -190 -191q-47 -113 -92 -225q-35 -80 -222 -360q0 43 -36 80q-8 -10 -46 -17q-68 -12 -100 -20q63 139 332 678q0 33 -10 41q-135 10 -697 10q23 53 23 129q0 92 -43 137q123 8 326 10q143 0 325 -2q201 -2 174 -2q78 0 193 37q4 -10 8 -149 q2 -109 55 -156zM987 616l-12 -28l-66 24v29zM1182 270q-49 -49 -92 -49q-43 43 -43 76q12 0 49 -37q8 0 31.5 8t35.5 8q13 0 19 -6zM1282 123l-12 -27l-90 43l10 29zM1020 317l-21 -96l-192 29q119 10 213 67zM1118 115l-209 20v33l209 -21v-32zM1202 -35l-10 -26l-66 22 v29zM1110 -4l-27 -53l-26 12l24 51zM1042 0q-16 -35 -100 -35l-14 35h114zM297 616l-10 -28l-68 24v29zM729 131q-10 0 -47 -4t-45 -4l-25 35zM1120 -328l-24 -28q-233 -10 -434 -11q-449 0 -564 43q18 25 39 109q20 92 41 129q-8 14 -98 59q12 12 26 13q-47 -2 52 -2 q35 0 67.5 45t32.5 77q-90 14 -238 50h279q6 29 12 57q4 27 -8 47q-39 -39 -156 -39l-147 27q82 51 305 51q10 0 47 35q43 43 45 80h250q-49 -188 -63 -228q-41 -92 -131 -153q53 -49 108 -49q29 0 33 10t10 10q10 -10 10 -40t9 -40l145 13q-39 10 -98 36q8 12 17 21.5 t42 9.5q39 0 72 -27.5t39 -52.5q6 8 27.5 38t31.5 42q0 -25 26.5 -62.5t53.5 -76.5q6 0 31 6q8 6 8 14q0 4 -5 17.5t-5 19.5h112v-250zM985 1393q-20 10 -63 24.5t-64 24.5q-27 0 -27 -78q20 10 77 14.5t77 14.5zM608 1384q0 18 -26 58l-50 -49q8 -10 23 -13q10 0 29.5 2 t23.5 2zM489 1376v33h-151v-33h151zM311 1386q0 16 -24 56l-49 -56h73zM203 1413l-27 10l-26 -51l28 -12zM711 793l-54 24l-8 -26l49 -27z" />
<glyph unicode="&#xc7;" horiz-adv-x="1290" d="M1362 1612l-258 18v35l258 -20v-33zM950 1640l-10 -28l-63 24v27zM850 1612l-203 20v33l203 -20v-33zM889 1479l-109 20v33l109 -21v-32zM756 1499h-88v33h88v-33zM489 1612l-106 20v33l106 -20v-33zM565 1479l-88 20v33l88 -23v-30zM248 1640l-10 -28l-64 24v27z M78 1640l-10 -28l-64 24v27zM129 1491h-72l43 51q29 0 29 -51zM25 1489h-33v51h33v-51zM1290 1505q-33 -6 -65 -12q-41 -10 -64 -39q-2 -72 -12 -272q-8 -178 -8 -283q0 -117 8 -217q2 -25 14 -115q10 -68 11 -106q0 -113 -74 -160q18 -18 49 -53q2 -37 14 -133 q12 -86 13 -107q0 -25 -11.5 -40t-11.5 -34q-16 0 -52 -11t-59 -11q-55 0 -79 92q-14 51 -15 98q0 102 6 129q14 70 70 74q-29 29 -57.5 58.5t-28.5 52.5q0 27 29 55q-47 49 -123 49q-295 0 -430 -18q-25 -57 -31 -144q0 -23 16.5 -150.5t10.5 -191.5q-2 -23 -13 -96 q-10 -59 -10 -96q0 -66 27 -117h-88q0 8 34 45q-20 18 -79.5 17.5t-90.5 42.5q47 18 152 77q12 43 -57 43q-27 0 -47.5 -9t-26.5 -9q0 6 -6 149q-2 96 -35 144q27 27 47 76q90 18 125 57l-33 29q-23 2 -52.5 -18.5t-53.5 -39.5v1229h231q0 -6 -18.5 -29.5t-18.5 -50.5v-659 h158q119 -2 203 -2q0 -10 -19 -39q20 0 25 4q8 18 18 37h88q-20 -59 -4 -92q49 25 66 53q14 20 20 72q10 66 11 172q0 80 -7.5 232.5t-7.5 201.5q0 104 19 104q194 0 323 -39zM760 444l-10 -26l-64 22v29zM1155 -236h-45q-37 -2 -37 -28q0 -12 6 -29h-90q0 8 35 45 q-12 12 -53 12v146q4 0 29.5 -17.5t52.5 -17.5q31 0 32 10q-2 -8 -2 25q33 0 72 -41v-105zM45 -342l-25 -51l-26 12l22 49zM1083 1071l-75 23v-27l63 -23zM1124 684l-28 31l-21 -21l27 -26zM1116 580q0 10 -19.5 44.5t-19.5 43.5q-4 0 -15 -27t-38 -27q-25 0 -69 9.5 t-64 9.5q-23 0 -66 -18.5t-67 -18.5q-29 0 -29 27q0 10 4 25.5t4 19.5q-10 0 -30.5 -17.5t-30.5 -17.5q-35 35 -66 35q0 -8 9.5 -43t9.5 -45q113 -14 243 -15q131 1 244 15zM356 1063v33h-69v-33h69zM481 692v51h-32v-51h32zM586 561q-23 115 -47 166q0 -74 -39 -113 q-92 0 -103 -10q66 -43 189 -43zM360 608q-8 4 -55 37q-33 23 -55 23q0 -8 -10.5 -44t-10.5 -44q23 0 64 -9.5t45 -9.5q-1 16 22 47z" />
<glyph unicode="&#xc8;" horiz-adv-x="1814" d="M1192 -246h-35v53h35v-53zM1706 1487q-43 2 -127 -2q-92 -6 -127 -6l-25 34zM881 1569l-95 24v33l95 -22v-35zM1753 557h-35v53h35v-53zM518 1468l-112 23v35l112 -23v-35zM1516 403v0v0v0zM317 1468l-153 23v35l153 -23v-35zM690 1008l-26 -54l-29 13l27 51zM1747 123 q-66 -25 -205 -37q-276 -455 -518 -455q-43 0 -55 2q-23 6 -54 37q-31 -59 -92 -59q-25 0 -45 29.5t-45 29.5t-24.5 -19.5t-26.5 -19.5q-23 0 -90 35q-51 27 -103 53q-45 84 -104 144q-41 41 -143 114q0 6 9 16.5t9 39.5q0 27 -40 52.5t-79 49.5q47 10 119 47 q-49 18 -137 56q0 12 20 22q31 18 37 25q-59 111 -59 198q0 43 20 62q-23 20 -62.5 29.5t-58.5 21.5q35 8 70 14q47 12 72 35v80q-29 31 -103 49q33 18 84 43q0 63 47 152q59 111 70 147q6 -20 12 -41q10 -27 29 -39l12 17q6 20 -13 55t-19 59q0 29 41 93q37 57 67 88 q106 98 197 161q33 20 227 21q14 0 68 -6q45 -4 65 -2q4 4 19 24q10 12 39 13q31 0 79 -23q76 -35 88 -39q10 10 60 10q152 0 151 -26q-80 4 -116 -35q82 -111 106 -146q66 -94 92 -159q-16 0 -41.5 -15.5t-25.5 -29.5q-2 25 -31 52.5t-61 27.5q-25 0 -25 -9.5t-25 -9.5 q-20 0 -20 8q0 2 4 10.5t4 12.5q0 8 -18 8q-25 0 -30 -10t-30 -10q-35 0 -39 10q-2 4 -2 41q0 6 -4 6q-20 0 -20 -35q-100 41 -131 94q-31 4 -115 4q-27 0 -117 -50t-114 -50q-33 0 -38 6t-12 15q-63 -78 -116 -173q-55 -100 -56 -137v-98q20 -14 152 -14q6 0 13 -19.5 t36 -19.5q23 0 23 10q0 2 -2 8t-2 10q0 10 22 11h100q18 0 19 -9q0 -4 -4 -12t-4 -10q0 -8 18 -8q20 0 54 19.5t67 19.5q31 0 40 -13.5t19 -25.5q14 18 15 37h114q74 -2 80 -37v0q27 0 38 19.5t36 19.5q31 0 40 -13.5t19 -25.5q6 12 43 32q29 16 29 48q0 29 -33 92 q-41 80 -49 98q25 29 25 49h57q25 0 25 -19.5t24 -19.5q29 0 43.5 19.5t20.5 19.5q55 -53 71 -125q16 -10 47 -39q0 -2 13 -102q16 -20 55 -21q-6 -6 -42 -46t-58 -62q0 -25 24 -43q4 -2 56 -27q0 -31 -39 -69v-252q49 -25 120 -70q-33 0 -54 7t-46 7q-61 0 -82 -65 q31 -10 101.5 -22.5t101.5 -22.5zM745 233l-12 -28l-92 45l10 31zM1241 1450v35h-53v-35h53zM449 1110l-48 72l-26 -19l47 -71zM1403 -53v35l-94 -23v-35zM1425 664q0 33 -34.5 60.5t-63.5 27.5q31 -92 31 -189q0 -16 -18.5 -56t-18.5 -58q0 -10 4 -19q-186 63 -252 64 q-23 0 -45 -30t-45 -30q-25 0 -49.5 19.5t-50.5 19.5q-25 0 -65 -19.5t-64 -19.5q-29 0 -40.5 9.5t-17.5 9.5l-45 41q-31 -59 -80 -60q-31 0 -56.5 18.5t-29.5 18.5q0 -6 3.5 -15.5t3.5 -11.5q0 -10 -31 -10t-39 41v80q0 31 22 72q18 31 37 63q-14 0 -28.5 22.5t-14.5 39.5 h-73q0 -6 -11.5 -37t-11.5 -60q0 -31 10 -39q20 -14 23 -16q4 -20 6 -147q4 -98 29 -156q39 -10 92 -35q-10 -18 -40 -40.5t-40 -43.5q61 -10 162 -41q0 -51 -62 -51q33 -33 106.5 -76t88.5 -57q0 37 31 37q8 0 16 -6q-39 -29 -39 -35q0 2 30.5 -19.5t32.5 -76.5q29 12 60 8 q49 -10 55 -11q55 0 209 109q33 20 76 72q37 45 57 53q-125 0 -162 22q0 12 35 48q53 0 146.5 14t130.5 14q-57 0 -90 60q100 102 100 243q0 55 -14 117q10 10 22 21.5t12 40.5zM1061 94v56h-94v-56h94zM1063 -223q-35 37 -35 67q0 10 6 17q-68 -68 -67 -107q10 0 48 11.5 t48 11.5zM942 -193h-96q0 -18 -21 -53h97q0 18 20 53zM297 365v34l-113 23v-35zM582 -143q-23 25 -33 67q-14 57 -19 68q0 -6 -12 -44t-12 -73q6 0 29.5 -9t46.5 -9zM940 96h-135q12 25 44 35t62 21q29 -1 29 -56zM780 96h-135l23 54h112v-54zM590 264l-27 -53l-28 12l26 51 zM78 246h-74v35h74v-35zM98 150q-6 -25 -24 -58q-14 0 -43 21.5t-29 36.5h96z" />
<glyph unicode="&#xc9;" horiz-adv-x="634" d="M680 1612l-297 18v35l297 -20v-33zM612 1536l-24 -51l-27 12l25 47zM129 1612l-125 20v33l125 -20v-33zM492 514q-29 -31 -29 -76q0 -12 4 -22q-2 0 -23.5 -34t-46.5 -34q-16 0 -25.5 9.5t-15.5 9.5q-16 0 -73 -33q0 -25 2 -27q6 -14 35.5 -14t58.5 -2t35 -2 q0 -20 41 -60q0 -152 -10.5 -232.5t-10.5 -62.5q-6 0 -17 8.5t-38 8.5q-20 0 -21 -10q0 -4 2 -9.5t2 -7.5q0 -12 -20 -12q-29 0 -61 25q-45 35 -52 36q0 244 4 686q16 2 52 21q-18 27 -52 57q6 193 -2 682q0 39 -41 121h224q45 -27 45 -90q0 -20 -5 -56t-5 -51 q-6 -82 -33 -659q41 -37 41 -59q0 -12 -17 -76q27 -35 52 -35zM432 -238q-27 0 -43 19q-37 -37 -37 -47t6 -27q-4 0 -20 26.5t-43 26.5q-31 0 -31 -2q-4 -8 -10 -16q-14 25 -12 74q0 49 14 78q-8 -12 -8 -21q0 -16 26 -16q106 0 158 16v-111zM377 1233v33h-70v-33h70z M338 18v33h-51v-33h51z" />
<glyph unicode="&#xca;" horiz-adv-x="1206" d="M1120 -371l-10 -26l-63 22v29zM1210 1612l-106 20v33l106 -20v-33zM1020 1612l-182 20v33l182 -20v-33zM811 1610l-88 22v33l88 -23v-32zM698 1612l-221 18v35l221 -20v-33zM381 1640l-10 -28l-64 24v27zM283 1653q-25 -33 -78 -33q-14 0 -44 3t-42 3v27h164zM78 1640 l-10 -28l-64 24v27zM1079 1538q-57 -96 -297 -436q-264 -373 -288 -373h-37q-14 2 -23 0q-8 -2 -16 -10q47 -66 94 -131q63 -86 123 -144q8 8 37 9q84 0 84 -25q-111 14 -111 -41q0 -59 303 -438q-8 -4 -57 0q-45 2 -57 -8q18 -18 49 -29q25 -8 24 -23q0 -8 -6 -20 q127 -37 160 -96q0 -8 -10.5 -32t-10.5 -34h-71q0 10 20 21q29 14 35 20q-84 8 -264 35q0 29 74 102q-41 84 -105 84q-27 0 -50.5 -8t-29.5 -8q-31 57 -82 129q-74 104 -88 125q-6 25 45 127q-2 14 -18 -4q-45 23 -129 22v-198q2 -131 2 -197q-4 -6 -10 -6t-26.5 9t-39.5 9 q-20 0 -20 -10q0 -2 2 -8t2 -8q0 -10 -21 -11q-20 0 -66 20.5t-65 20.5q0 10 21 33q27 31 28 35q8 23 -2 49q-6 43 -6 78q0 45 16.5 88t16.5 63t-26.5 57.5t-26.5 57.5q0 123 13 379t13 379q0 25 -3 96.5t-3 112.5q0 55 -41 139h242q2 -31 2 -70q0 -47 -7 -147t-7 -149 q0 -109 26 -181q127 164 387 482q-78 23 -143 12l-84 29q145 22 528 22zM473 573q-61 6 -262 7q0 20 27.5 48.5t33.5 43.5q25 -16 101 -47q69 -27 100 -52zM723 43l-76 -23v29l66 23zM1006 -371l-11 -26l-63 22v29zM565 -399l-88 22v33l88 -23v-32zM375 -236q-16 0 -50 -20 t-59 -20q-29 0 -58.5 20t-35.5 20l25 111l43 -39q47 18 135 76v-148zM111 -399l-109 20v33l109 -21v-32zM735 1212v33l-88 23v-33zM717 1063v33h-51v-33h51zM1196 444l-74 25v-29l64 -22zM256 1079v0v0v0z" />
<glyph unicode="&#xcb;" horiz-adv-x="1497" d="M1284 -106h-110q37 39 75 38q8 0 15 -4zM856 231q-59 0 -108 -24l20 53zM1546 1509l-10 -26l-61 22v27zM1452 1499q-51 0 -156.5 -14.5t-121.5 -14.5q-29 0 -73 18.5t-59 33.5zM1118 1602l-10 -25l-61 22v27zM1286 1024l-10 -25l-86 41l10 27zM1393 811l-181 20v33 l181 -20v-33zM281 1602l-11 -25l-61 22v27zM670 1106q-35 0 -66 -21q-18 16 -43 48zM1378 354l-10 -26l-61 22v29zM76 1509l-10 -26l-62 22v27zM1415 231q-20 -10 -80 -20q-78 -12 -106 -18q39 -66 45 -166q4 -72 63 -107v-141q-51 0 -131 4q4 8 4 14q0 16 -28 17 q-27 0 -32 -17.5t-9 -17.5q-43 111 -37 209q-6 6 -66 139q-45 102 -104 98q0 4 26.5 20.5t26.5 43.5q0 51 -143 350q-47 -12 -80 23q37 10 131 59q-4 49 -61 74q-78 33 -89 45q27 4 74 26q-12 20 -37 80q-18 47 -51 78q-47 4 -55 -49q-12 -86 -25 -109l33 -22q20 -12 21 -23 q-14 2 -27 2q-43 0 -62.5 -41t-37.5 -82q14 -16 55 -16q-41 -59 -94 -190q-57 -143 -93 -203q18 -18 52 -33.5t43 -24.5q-18 -31 -115 -26q0 -59 -23 -141q-29 -102 -67 -103q-31 0 -36 -7t-5 -28q-6 0 -29.5 18.5t-44.5 18.5v-63q57 -23 119 22q-6 -45 -27 -127 q-6 0 -29.5 8.5t-50.5 8.5q-18 0 -18 -9q0 -2 4 -10t4 -10q0 -8 -18 -8q-25 0 -58 2h-53v80q0 18 32 52t36 46q12 43 24 135q12 100 25 146q25 16 68 51q-18 12 -148 78l117 -15q35 72 106 217v52q-4 4 -8 22q-2 8 -29 8q-35 0 -38 2t-17 33h113q-2 16 18.5 55t20.5 54 q0 31 -60 41q29 8 74 32q0 6 -16.5 32t-16.5 48q25 0 43 -16q29 23 29 78q-37 14 -94 47q37 -12 63 -13q61 0 86 68q16 76 33 150q25 104 78 161q-16 16 -17 70q-117 -6 -170 27q424 6 578 -27h-158q-39 -27 -39 -68q0 -37 40 -112.5t40 -108.5q0 -37 -33 -59 q90 -82 115 -152q8 -43 17 -86q10 -35 71 -55q0 -8 -18 -31q-27 -29 -35 -47q27 -37 92 -92q0 -2 -20 -66q-14 -41 -35 -51q18 -16 74 -10q0 -16 11 -70.5t13 -81.5q18 -18 68 -38q33 -12 37 -46q-43 10 -90 -14q63 -63 147 -63.5t94 -10.5zM930 365q-121 -47 -352 -48 q-53 0 -54 52q53 0 131 -5.5t127 -5.5q66 1 148 7zM444 608h-51v31h51v-31zM260 827q-8 0 -43 -4t-43 -4l-22 33zM483 471h-129l25 31zM76 840l-10 -27l-62 23v26zM90 328l-86 22v31l86 -23v-30zM168 231q-37 0 -66 -22q-20 18 -45 47zM1546 840l-71 22v-26l61 -23z M1350 662v0v0v0zM854 1167v31h-70v-31h70zM733 1120v68h-33v-68h33zM625 1200v0v0v0zM723 217v33h-162v-33h162z" />
<glyph unicode="&#xcc;" horiz-adv-x="1853" d="M1868 961l-25 -50l-24 11l22 47zM1231 1249l-10 -26l-64 22v27zM1860 365l-125 20v31l125 -19v-32zM1206 997l-159 21v31l159 -19v-33zM784 1249l-12 -26l-61 22v27zM1341 575l-53 -22v27l43 22zM946 915h-88l21 70h67v-70zM891 997l-162 21v31l162 -19v-33zM1749 1010 h-57q0 -4 -11.5 -19.5t-11.5 -23.5q0 -18 43 -23q-29 -31 -35 -37q-20 -29 -20 -57v-129q29 -12 74 -43q-29 -18 -95 -39q-78 -23 -110 -39q0 -35 -19 -51q31 -37 68 -37q12 0 36.5 4t37.5 4q12 0 24 -2q0 -18 19.5 -56t19.5 -63q0 -14 -21.5 -53t-21.5 -57q0 -203 -10 -307 q-4 23 -8 48t-31 25t-50.5 -8t-29.5 -8q-10 -10 -16 -24.5t-17 -24.5q31 -37 68 -37q12 0 36.5 5t37.5 5q12 0 24 -4v-199h-198q-8 133 -11 316v456q0 184 -8 326q-72 -29 -72 -100q0 -41 31 -60q-20 -25 -43 -47q-35 -37 -59 -37q-23 0 -28 9.5t-28 9.5q-31 0 -68.5 -34 t-53.5 -64q20 -10 61 -11h64q25 0 40 -6q0 -6 -8 -40t-8 -54q43 -25 113 -21q-41 -23 -117 -36q-72 -59 -72 -121q-82 0 -110 -15q12 -12 92 -12q-57 -164 -152 -461h-139q-10 10 -37 27q-2 33 -78 213q-72 172 -71 231q-27 53 -54 105q-35 39 -155 53q20 31 39 31 q10 0 24 -8q14 6 41 32q4 10 -2 37q-8 35 -8 39q59 0 94 76q41 0 64 -53q10 12 19 23t22 11q51 -102 96 -327q-18 4 -37 -15q45 -20 119 -28q14 18 26 88q14 80 29 110q43 111 88 222q55 135 111 225v49q-39 23 -84 23q-25 0 -41 -9q0 10 8 36t8 36q82 0 99 -16q16 6 34 30 q37 59 101 187q-6 29 -8 67q47 98 129 291h178q12 -90 53 -248q-49 -49 -49 -129q0 -114 92 -157zM819 958q-6 0 -32.5 -7t-45.5 -7q-16 0 -30 6l-21 33zM1044 690l-10 -26l-63 22v27zM1432 203q0 -39 -50 -90q-4 29 15 45q-35 35 -35 45h70zM127 1221l-104 20v33l104 -21 v-32zM131 1026l-10 -27l-62 23v27zM778 616q-27 12 -82 9q-96 -8 -102 -9q0 -57 -12 -57q-49 98 -127 334q-2 0 -17 -35q-10 -20 -39 -20q-127 0 -139 -11q29 -27 84 -26q63 0 98 16q0 -12 -4 -32.5t-4 -28.5q0 -29 49 -54q0 -4 -19.5 -33.5t-19.5 -52.5q-10 0 -45 35 q-20 -23 -51 -33q-49 -16 -51 -18v-47q66 -33 100 -33q6 6 15.5 35t29.5 39q-6 -47 2 -102q10 -66 39 -89q0 -10 -20.5 -30.5t-22.5 -26.5q2 -6 2 -12q0 -12 -10 -43t-12 -41q-25 2 -66 -17q41 -12 119 -36q14 -29 49 -66q-31 -16 -65 19q-33 -55 -33 -189q0 -100 2 -201 h-182q12 55 12 144q-2 127 -2 143q-16 18 -27 59q-16 66 -18 68q-2 10 19.5 21.5t25.5 19.5q-16 27 -10 143q-23 10 -64 7q-61 -10 -63 -11q-20 35 -21 54h113q16 29 33 57q18 37 18 65q0 14 -18.5 63.5t-14.5 86.5q18 133 0 221q-2 25 -57 53v86h66v502q45 0 104 2h84 q88 -143 102 -266q10 -14 68 -14q0 -10 -53 -64q47 -53 86 -158q12 -29 59 -182q-39 2 -145 -35q25 -25 73 -24q27 0 55.5 8t35.5 8q26 -64 73 -201zM90 983q0 -8 -9 -33.5t-9 -34.5h-68v70l43 -35q35 33 43 33zM76 188l-10 -26l-62 22v27zM119 123l-25 -51l-26 12l24 47z M1528 1303l-10 26l-43 -22v-29zM1634 784v72q-49 -47 -80 -47q10 0 41 -12.5t39 -12.5zM1393 979v33h-68v-33h68zM1393 854q-59 -29 -109 -23q10 -4 53 -30q27 -16 37 -17q0 8 9.5 29t9.5 41zM1636 217v31h-51v-31h51zM408 1389v32h-52v-32h52zM1188 291v33h-123v-33h123z M444 979v33h-106v-33h106zM854 291v33h-51v-33h51zM1040 -35v70h-67l-12 -39q9 -31 79 -31zM930 49h-72q45 -45 45 -59q0 32 27 59zM369 291v33h-86v-33h86z" />
<glyph unicode="&#xcd;" horiz-adv-x="1554" d="M1153 1640l-12 -28l-66 24v29zM1489 920h-33v53h33v-53zM1479 987l-150 21v32l150 -20v-33zM1425 666l-10 -29l-65 22v29zM1030 985l-90 23v34l90 -24v-33zM991 899q-6 0 -30.5 20.5t-47.5 20.5q0 -41 -32 -41q0 10 19.5 37t19.5 37q18 0 44.5 -23.5t26.5 -50.5z M1489 381l-25 -51l-28 12l24 49zM1430 381l-25 -51l-27 12l25 49zM815 987l-149 21v32l149 -20v-33zM977 666l-10 -29l-66 22v29zM1450 70l-25 -52l-28 11l24 51zM1362 934q0 -10 -23 -27q-33 -25 -47 -43q-4 -20 4 -51q10 -37 11 -59v-125q-35 -10 -70 -19q-47 -16 -86 -55 q12 -25 44 -40t60 -28q10 10 14.5 33t14.5 23q0 -57 31 -124t31 -69q0 -18 -31 -87.5t-35 -96.5q4 -84 4 -475h-188q-4 16 -74 137q-61 104 -61 147q0 23 14 33q-33 12 -115 96v70h103q8 8 10 33q0 18 -2 35q2 18 8 34q-66 -29 -66 -77h-92q0 10 21 22q29 14 37 23 q-133 88 -177 88q-29 0 -49 -8.5t-26 -8.5v74q68 -16 96 -4q-33 84 -107 213q-82 139 -106 199q55 -27 139 -37q35 35 35 45q-35 12 -96 16l-94 4q-23 27 -46.5 53.5t-48.5 39.5q-45 -20 -45 -170q0 -27 2 -78.5t2 -75.5q0 -55 -6 -86q-23 45 -2 67q-8 10 -18 23q-8 6 -39 6 t-48.5 -17.5t-31.5 -33.5q0 -31 -2 -21q2 -6 33 -6q20 0 62 -21.5t63 -21.5q-2 -10 14 -141q2 -10 -17.5 -56t-19.5 -71q0 -49 64 -65q-35 -47 -41 -146v-158q-2 -96 -23 -155h-110q0 12 18 43q-43 0 -54.5 -19.5t-41.5 -23.5v1192q-35 35 -70 35q-27 0 -37 -9.5t-28 -9.5 q0 10 -10.5 37t-10.5 37q35 0 76 -9.5t45 -9.5l33 31q-39 10 -97 45h82q27 68 27 170q0 86 -45 119q29 59 29 125q0 41 -15 69q47 47 127 48q57 0 84 -11q84 -131 90 -141q51 -84 80 -156q33 -82 96.5 -189.5t77.5 -107.5q57 0 107 -28q-6 -6 -42 -14.5t-55 -26.5 q47 -74 113 -203q23 -4 59 -4q0 -10 -9 -46t-9 -46q-6 0 -26.5 18.5t-49.5 18.5q-25 0 -31 -19.5t-30 -19.5q-4 0 -25 6q-12 4 -12 -6q0 -31 20 -51q16 -12 33 -23q59 -10 119 -20q106 -25 133 -76q10 -16 21 -33q14 -23 14 -41q0 -10 -2 -18q10 -27 39 -72q0 41 14 170 q14 119 12 190q-25 37 -51 37q16 14 30.5 28.5t14.5 39.5q0 16 -4 41q49 0 154 35q-2 2 -15 30q-6 16 -34 17q-20 0 -42 -19.5t-42 -19.5q-43 129 -43 164q0 129 43 594h166q47 -39 47 -72q0 -12 -7.5 -37t-9.5 -37q6 -47 6 -153q4 -8 -13 -31t-17 -49q0 -6 20.5 -41 t20.5 -80q0 -33 -11 -74q21 -51 64 -51zM705 76l-58 -25v29l45 24zM641 109l-111 20v35l111 -21v-34zM115 336h-95l23 53q47 0 72 -53zM821 -369l-12 -28l-64 24v29zM1167 969v32h-53v-32h53zM543 967v34h-72v-34h72zM1245 150v32h-53v-32h53zM328 764v53h-90v-53h90z M1245 -94l-20 74q-6 0 -25.5 -19.5t-48.5 -19.5q-20 0 -46 9t-69 9q0 -18 -20 -51q88 0 102 -45q25 23 74 35q41 10 53 8zM338 -29l-29 11l-24 -50l28 -12zM274 -20l-10 26l-47 -22v-29z" />
<glyph unicode="&#xce;" horiz-adv-x="1255" d="M1229 -328h-35v72h35v-72zM1143 -281q-53 -92 -76 -104q-6 -4 -63 -4q-25 0 -49.5 19.5t-49.5 19.5q-20 0 -20 -12q0 -2 2 -9v-8q0 -10 -21 -10q8 0 -254 0q-262 2 -452 2q0 6 -11.5 40t-11.5 56q0 29 12.5 47.5t12.5 20.5q-18 53 35 119q-37 37 -37 47q8 0 45 -37 q14 18 14 37q6 0 31.5 -9.5t52.5 -9.5t71 -19.5t68 -19.5q33 0 35 21q-2 -12 -2 37h74q0 -8 -6 -21.5t-6 -19.5q0 -8 8 -17q14 0 31.5 20.5t17.5 37.5q10 0 65 -58q12 12 13 58q23 0 50.5 -26t55.5 -50q6 12 12.5 25.5t36.5 13.5q-2 0 80 -2q68 -2 115 0q66 2 100 10 q-39 0 -59 -20q10 -16 29 -84q16 -56 51 -91zM1243 1049l-12 -27l-66 22v29zM1120 965l-22 -52h-113q12 25 43 35q20 6 41 13q33 4 51 4zM1241 1325q-51 -39 -143 -39q-10 -20 -19.5 -69.5t-19.5 -69.5q-10 0 -24.5 23.5t-22.5 27.5q-119 6 -529 6q-25 0 -29.5 -19.5 t-29.5 -19.5q-14 0 -81 19.5t-103 19.5q-29 0 -47 -8l-33 -27v101q-16 10 -90 26q-55 12 -68 43l125 -16q14 10 16 37q4 20 0 57q-2 49 -2 62h959q0 -72 -17 -105q25 -25 70 -33t88 -16zM1247 539h-35v53h35v-53zM1245 461l-49 -49l-18 22l47 47zM666 967q0 -37 2 -37 q-6 -20 -37 -21q-6 0 -257 14.5t-374 14.5q170 4 666 29zM903 420q-274 -31 -545 0q-2 49 -4 96q-6 57 -59 74h65q8 10 9 24q0 10 -6.5 36t-6.5 40q391 27 529 0q0 -59 -58 -88q10 -10 76 -10v-172zM1090 74l-25 -51l-29 12l25 49zM922 37h-191v35h191v-35zM246 565v0v0v0z M147 565v0v0v0zM27 27h-35v53h35v-53zM104 -63l-24 -54l-29 13l27 51z" />
<glyph unicode="&#xcf;" horiz-adv-x="1644" d="M1546 1630h-88v35h88v-35zM1202 1630h-51v35h51v-35zM1647 1057q-20 -10 -80 -21q-68 -14 -94 -22q49 -47 55 -47q0 -121 -6 -262q-2 -66 6 -76q-41 0 -71 7t-50 7q-31 0 -49.5 -25.5t-18.5 -56.5q29 -14 115 -14q29 0 40 17.5t17 17.5q-10 -18 -10 -72q0 -59 -8 -84 q4 -6 35 -25q18 -12 18 -24q-61 6 -88.5 -33t-23.5 -100q-92 6 -113 -11q18 -10 65.5 -17t67.5 -17q0 -10 -24.5 -25.5t-28.5 -23.5q-129 -207 -205 -283q-63 -66 -233 -119q-78 -25 -197 -24q-104 0 -150 26q-29 16 -79 86q-43 61 -68 62q-20 0 -20 -7q2 -4 2 -8 q0 -6 -21 -6q-25 0 -59 41q-47 55 -56 62q-16 12 -59 100q-35 70 -78 70q-10 0 -20 -3q0 23 22.5 42.5t48.5 41.5q-33 18 -79 91q-37 55 -76 55q-18 0 -43 -8q-8 2 -8 12q0 18 14 18q6 0 10 -4q16 16 70 17q-6 70 0 256q-49 14 -117 47q43 0 82 8q33 33 43 135 q10 123 31 170q-47 -20 -64 -94h-69v72q47 0 47 -19l26 31q-2 2 -35 24q-20 14 -20 39q6 0 30.5 -8t53.5 -8q70 0 108 96q20 61 41 121q96 133 222 219q139 98 260 98q367 0 504 -227q10 -4 96 -4q0 -12 -37 -49q0 -12 20 -23q14 -6 29 -12q-6 -27 -6 -72q39 -27 90 -145 q60 -10 195 -10zM231 1276l-10 -27l-65 23v28zM1032 1434l-47 51q-16 -16 -27 -51h74zM1339 537q-20 20 -36 69q-20 61 -35 84q31 51 30 135q0 66 -26 95q-49 57 -49 104q-78 -6 -113 14q10 20 33.5 33.5t23.5 22.5q-8 68 -45 100q-16 14 -73 39q-49 23 -72 51q27 27 27 29 l-10 3q-11 3 -11 19q0 12 6 35q-27 -47 -80 -59q-31 -8 -100.5 -4t-99.5 -2q25 -10 24 -25q0 -14 -27.5 -28.5t-35.5 -14.5q-25 0 -29 9t-29 9q-27 0 -91 -74.5t-79 -111.5q57 0 58 -29q-39 -27 -117 -20q23 -16 23 -39q0 -49 -81 -103.5t-132 -50.5q37 -12 72.5 -25.5 t53.5 -37.5q8 -168 -20 -234q74 -137 123 -276q-35 -16 -19 -27q49 -2 105 -69q74 -90 90 -101q10 -8 80 -39q51 -25 55 -45q37 29 152.5 52.5t154.5 50.5q27 16 70 74q41 51 70 65q10 -2 20 -2q16 0 42 10t40 8q-55 0 -76 21q23 78 47 154q33 102 86 131zM1241 47h-72 q0 -37 -26 -37q-37 37 -49 37v-90q6 0 30.5 17.5t53.5 17.5q63 0 63 55zM991 -53v35h-69v-35h69zM285 618q-20 0 -52 20.5t-38 20.5q0 -41 -41 -41q10 -10 23 -44.5t22 -45.5q55 27 86 90zM571 -43q-45 90 -90 90v-70zM360 195v32l-108 21v-33zM1204 934h-71v70q36 0 71 -70 zM1049 1018l-109 20v33l109 -20v-33zM1071 934h-110v70q42 0 110 -70zM819 932q-31 14 -63.5 30.5t-44.5 41.5l90 -19q18 -35 18 -53zM705 1018l-127 20v33l127 -20v-33zM920 702l-11 -28l-63 24v27zM1204 381q-6 0 -47 -11.5t-61 -11.5v74q45 -16 108 -51zM504 934h-33v70 h33v-70zM958 395l-10 -26l-63 22v29zM1059 129h-33v51h33v-51zM782 379h-104q-74 2 -103 2q35 37 91 33q82 -4 92 0q24 -19 24 -35zM729 184l-10 -26l-66 22v29zM475 379h-72l48 53q24 -37 24 -53z" />
<glyph unicode="&#xd0;" horiz-adv-x="1667" d="M1573 942h-211v35h211v-35zM1532 45h-115q-55 -2 -55 55h170v-55zM1573 1307q-23 2 -72 0q-57 -2 -69 -2q-8 -8 -9 -21q0 -10 6.5 -29.5t6.5 -25.5q-18 -8 -70 -10q-63 0 -109 -11q0 -2 -2 -19.5t-2 -29.5q0 -61 43 -76v-151q-20 2 -53 -15.5t-61 -35.5q66 -14 65 -162 q0 -49 -6 -92q4 -4 8 -23q2 -10 31 -10t41 7t18 7q-51 -33 -86 -84q4 -31 -4 -98q-8 -78 -8 -96t2 -88t2 -107q27 -23 74 -65q-10 0 -30.5 -12.5t-31.5 -12.5q-6 -49 -6 -51q0 -27 21 -47q-31 14 -31 -31q0 -117 35 -166q6 -2 70 -12q31 -6 51 -45l-123 16q-37 -35 -37 -78 h-188q-6 6 -7 25v29q-2 25 -28 24q-29 0 -35 -8t-12 -8q0 2 45 67q33 47 32 76q0 18 -9 89t-9 104q-47 27 -102 26q-29 0 -56 -8q29 55 106 55t77 152q0 84 -23.5 214t-23.5 126q0 72 63 141l16 13v129q-47 55 -114 55q0 12 22 29q37 25 53 40v152q-12 23 -54 47.5t-75 24.5 q-25 0 -84 -19.5t-83 -19.5q-47 0 -166 39q-35 -27 -35 -80q0 -10 2 -31v-29q0 -49 -37 -69q47 -47 88 -47q2 0 109 8q94 8 161 4q10 6 41 -14.5t31 -34.5l-414 20q-4 -49 11 -123q12 -61 24 -124q18 -47 -35 -48q0 -12 -10 -16q-18 -8 -26 -16q14 -14 77 -15 q-25 -106 -24 -180q0 -106 45 -162q-18 -14 -37 -28q-20 -20 -21 -50q0 -25 24 -65.5t28 -52.5q-18 -45 -21 -129q-2 -111 -8 -144q37 -47 125 -57q74 -6 147 -12q-33 -16 -102 -21q-59 -4 -119 -8q-49 -20 -69 -55q-8 -16 -95 -17q-20 0 -115.5 46t-148.5 51l98 24 q78 25 78 86q0 39 -59 98q41 41 41 95q-35 12 -70 26q-45 18 -67 43h147v424q-6 10 -90 86h117q-16 25 -23 92q-10 76 -31 121q18 29 56 78q-43 23 -125 35q-66 6 -131 14q80 39 203 39l32 33q-14 23 -26 151q-31 23 -90.5 35.5t-116.5 22.5q0 27 37 63q-16 10 -90 25 q-53 10 -66 43h141q6 16 9 96q2 37 10 62h1251q33 -66 4 -123q23 -16 99 -41q51 -16 57 -47zM1440 -53l-13 -29l-65 25v28zM1571 -301l-90 25v32l90 -22v-35zM98 946q-8 -4 -32 -4h-11q-39 0 -51 -10q20 57 25 57q40 0 69 -43zM317 694l-12 -28l-65 24v29zM854 94l-27 -53 l-26 12l24 51zM803 -84l-90 23v34l90 -24v-33zM946 -270l-10 -29l-66 25v28zM135 -299h-131v35h131v-35zM1395 1257v33h-92v-33h92zM1120 1100v33h-53v-33h53z" />
<glyph unicode="&#xd1;" horiz-adv-x="1093" d="M113 -399l-109 22v33l109 -21v-34zM606 1640l-10 -28l-66 24v29zM1171 1016l-10 -29l-65 25v28zM1151 924q-29 -29 -64 -21q-16 -10 -45 -51q-23 -33 -47 -33q-131 0 -178 -16q0 -43 51 -43q20 0 41 19.5t47 19.5l48 -19q10 12 22 6q-12 -74 -162 -239q0 39 -55 39 q-25 0 -39 -19.5t-39 -19.5q-20 0 -46 19.5t-50 19.5q-59 0 -90 -21l-49 39q-90 -29 -211 0l-31 -29q4 -6 10 -40q6 -27 29 -27q31 0 31 12q0 2 -3.5 11.5t-3.5 13.5q29 -29 86.5 -52.5t94.5 -23.5q25 0 39 9t38 9q55 0 144 19v-74h-293q0 -76 -2 -248t-2 -262 q-16 23 -98 60q-10 -10 -15.5 -34t-15.5 -34q35 -20 133 -14l-20 -209h-189l-2 626q-49 12 -137 48q23 -4 41 -5q63 0 88 50q39 78 47 86q-18 14 -37 14q6 94 -37 149q53 53 53 150q0 20 -28.5 70.5t-28.5 70.5l39 35q-39 10 -96 45h88v529h502q33 2 102.5 -45.5 t114.5 -100.5q41 -45 78 -135q43 -111 61 -141q2 -47 4 -94.5t72 -77.5q10 -25 10 -41zM360 791v0v0v0zM1020 133l-25 -76l-26 11l22 65h29zM80 1016l-10 -29l-66 25v28zM729 70l-27 -52l-26 11l24 51zM1030 969v32h-51v-32h51zM840 985q0 39 -37 178q-8 16 -49 45t-52 49 q39 39 9 70q-25 -37 -69 -64.5t-87 -54.5q-25 20 -51.5 40t-48.5 20q-20 -20 -25 -47q0 -113 31 -220q4 -10 4 -22q0 -33 -27.5 -89t-27.5 -71q0 -55 47 -98q29 8 65 8q78 0 154 -27q41 51 94 97q41 35 53 59q17 37 17 127zM776 987l-188 21v32l188 -20v-33zM780 946 q-47 -47 -94 -47v74q67 0 94 -27zM641 973q0 -33 -43 -76q-12 0 -22.5 13.5t-20.5 25.5l-47 -14q76 51 133 51z" />
<glyph unicode="&#xd2;" d="M1980 485l-57 -315h-76q-6 0 -21.5 3t-19.5 3q-219 16 -458 105q-20 -43 -29 -78q-29 -131 -29 -226v-194q0 -31 10 -125q-45 -2 -163 -33q-111 -31 -170 -31q-74 0 -103 37q-14 25 -26 50q-16 33 -37 34q0 20 2 66.5t2 48.5q0 45 -12 117q-12 82 -31 98 q-80 -74 -184 -133q-84 -43 -170 -86l-68 260q0 4 2 12q74 43 207 125q96 63 291 183q-4 2 -23 2q-78 0 -151 -31q-2 -2 -13 -47q-37 27 -49 26q-10 0 -14 -8q-2 -16 -8 -53q-10 8 -35 29q-6 -31 0 -70l-88 45q-6 -23 0 -102q-43 35 -88 61q-6 -39 0 -88l-80 61v-96 q-39 41 -72 66q-2 -27 -6 -56q-4 -37 6 -51l-84 80q-4 -4 -14 -4q0 182 -121 432q285 76 350 96q193 59 322 129q-41 70 -140 187q-104 123 -208 243q-35 43 -103 140q188 86 373 245q63 -68 184 -249q104 -156 219 -318q115 86 238 266q102 150 205 301q98 -41 254 -186 q180 -166 180 -266q0 -82 -139 -227q-98 -94 -197 -191q6 -8 31 -18q59 -23 411 -148v-121zM885 748q0 20 -17.5 41.5t-44.5 21.5q-25 0 -44 -20.5t-19 -42.5q0 -23 20.5 -42.5t40.5 -19.5t42 17.5t22 44.5zM858 748q0 -12 -17.5 -23.5t-25.5 -11.5q-37 0 -37 35q0 37 39 36 q14 0 27.5 -13t13.5 -23z" />
</font>
</defs>
</svg>
